SplineFontDB: 3.0
FontName: RougeScript-Regular
FullName: Rouge Script
FamilyName: Rouge Script
Weight: Book
Copyright: Copyright (c) 2011 Typesenses (typesenses@live.com.ar), with Reserved Font Name "Rouge Script"
Version: 1.003
ItalicAngle: 0
UnderlinePosition: -63
UnderlineWidth: 62
Ascent: 1000
Descent: 250
sfntRevision: 0x00010083
LayerCount: 2
Layer: 0 1 "Back"  1
Layer: 1 1 "Fore"  0
XUID: [1021 369 130514456 9403812]
FSType: 0
OS2Version: 2
OS2_WeightWidthSlopeOnly: 0
OS2_UseTypoMetrics: 1
CreationTime: 1326484406
ModificationTime: 1326480933
PfmFamily: 17
TTFWeight: 400
TTFWidth: 5
LineGap: 0
VLineGap: 0
Panose: 2 0 0 0 0 0 0 0 0 0
OS2TypoAscent: 50
OS2TypoAOffset: 1
OS2TypoDescent: -169
OS2TypoDOffset: 1
OS2TypoLinegap: 0
OS2WinAscent: 0
OS2WinAOffset: 1
OS2WinDescent: 0
OS2WinDOffset: 1
HheadAscent: 0
HheadAOffset: 1
HheadDescent: 0
HheadDOffset: 1
OS2SubXSize: 875
OS2SubYSize: 812
OS2SubXOff: 0
OS2SubYOff: 175
OS2SupXSize: 875
OS2SupYSize: 812
OS2SupXOff: 0
OS2SupYOff: 596
OS2StrikeYSize: 77
OS2StrikeYPos: 390
OS2Vendor: 'PYRS'
OS2CodePages: 00000001.00000000
OS2UnicodeRanges: 00000023.00000000.00000000.00000000
Lookup: 258 0 0 "'kern' Horizontal Kerning in Latin lookup 0"  {"'kern' Horizontal Kerning in Latin lookup 0 subtable"  } ['kern' ('DFLT' <'dflt' > 'latn' <'dflt' > ) ]
DEI: 91125
TtTable: prep
PUSHW_1
 511
SCANCTRL
PUSHB_1
 4
SCANTYPE
EndTTInstrs
ShortTable: maxp 16
  1
  0
  222
  203
  6
  0
  0
  2
  0
  1
  1
  0
  64
  0
  0
  0
EndShort
LangName: 1033 "" "" "" "Typesenses: Rouge Script: 2011" "" "Version 1.003" "" "Rouge Script is a trademark of Typesenses" "Typesenses" "Sabrina Mariela Lopez" "" "www.typesenses.com" "www.typesenses.com" "This Font Software is licensed under the SIL Open Font License, Version 1.1. This license is available with a FAQ at: http://scripts.sil.org/OFL" "http://scripts.sil.org/OFL" 
GaspTable: 1 65535 15 1
Encoding: UnicodeBmp
UnicodeInterp: none
NameList: Adobe Glyph List
DisplaySize: -24
AntiAlias: 1

StartChar: exclam
Encoding: 33 33 4
Width: 299
GlyphClass: 2
Flags: W
LayerCount: 2
Fore
SplineSet
158 153 m 0,0,1
 136 153 136 153 136 197 c 0,2,3
 136 207 136 207 140.5 237 c 128,-1,4
 145 267 145 267 178 498.5 c 128,-1,5
 211 730 211 730 219 785 c 0,6,7
 222 806 222 806 239.5 806 c 128,-1,8
 257 806 257 806 267.5 784.5 c 128,-1,9
 278 763 278 763 278 745.5 c 128,-1,10
 278 728 278 728 275 714 c 0,11,12
 269 681 269 681 175 173 c 0,13,14
 171 153 171 153 158 153 c 0,0,1
140 72 m 0,15,16
 163 72 163 72 163 41 c 128,-1,17
 163 10 163 10 133 -9 c 0,18,19
 118 -19 118 -19 107 -19 c 0,20,21
 91 -19 91 -19 87 -6 c 1,22,23
 96 -6 96 -6 100 13.5 c 128,-1,24
 104 33 104 33 112.5 52.5 c 128,-1,25
 121 72 121 72 140 72 c 0,15,16
EndSplineSet
EndChar

StartChar: quotedbl
Encoding: 34 34 5
Width: 339
GlyphClass: 2
Flags: W
LayerCount: 2
Fore
SplineSet
157 615 m 0,0,1
 147 615 147 615 147 636.5 c 128,-1,2
 147 658 147 658 149 676 c 0,3,4
 154 724 154 724 166 766 c 1,5,6
 173 795 173 795 197 795 c 0,7,8
 209 795 209 795 214.5 786.5 c 128,-1,9
 220 778 220 778 218 765 c 1,10,11
 207 718 207 718 188 666.5 c 128,-1,12
 169 615 169 615 157 615 c 0,0,1
276 615 m 0,13,14
 266 615 266 615 266 636.5 c 128,-1,15
 266 658 266 658 268 676 c 0,16,17
 273 724 273 724 285 766 c 1,18,19
 292 795 292 795 316 795 c 0,20,21
 338 795 338 795 338 772 c 0,22,23
 338 768 338 768 332 743 c 128,-1,24
 326 718 326 718 307 666.5 c 128,-1,25
 288 615 288 615 276 615 c 0,13,14
EndSplineSet
EndChar

StartChar: numbersign
Encoding: 35 35 6
Width: 669
GlyphClass: 2
Flags: W
LayerCount: 2
Fore
SplineSet
198 206 m 1,0,1
 161 3 161 3 157 -18 c 128,-1,2
 153 -39 153 -39 140 -39 c 128,-1,3
 127 -39 127 -39 127 -17 c 128,-1,4
 127 5 127 5 156 206 c 1,5,-1
 11 206 l 2,6,7
 0 206 0 206 0 214 c 0,8,9
 0 230 0 230 32 236 c 0,10,11
 40 237 40 237 55 237 c 128,-1,12
 70 237 70 237 160 235 c 1,13,-1
 178 367 l 1,14,-1
 34 367 l 2,15,16
 22 367 22 367 23 376 c 0,17,18
 25 398 25 398 73 398 c 0,19,20
 94 398 94 398 182 396 c 1,21,22
 200 523 200 523 209 579 c 0,23,24
 212 600 212 600 229 600 c 128,-1,25
 246 600 246 600 254 574 c 0,26,27
 258 561 258 561 258 544 c 128,-1,28
 258 527 258 527 255 508 c 2,29,-1
 234 395 l 1,30,31
 279 394 279 394 368 390 c 1,32,-1
 396 579 l 2,33,34
 400 600 400 600 416.5 600 c 128,-1,35
 433 600 433 600 441 574 c 0,36,37
 445 561 445 561 445 544 c 128,-1,38
 445 527 445 527 442 508 c 2,39,-1
 420 389 l 1,40,41
 474 387 474 387 564 387 c 0,42,43
 574 387 574 387 574 382 c 0,44,45
 574 368 574 368 532 367 c 1,46,-1
 416 367 l 1,47,48
 412 344 412 344 402.5 297 c 128,-1,49
 393 250 393 250 389 228 c 1,50,51
 505 226 505 226 541 226 c 0,52,53
 552 226 552 226 551 220 c 0,54,55
 547 206 547 206 509 206 c 2,56,-1
 385 206 l 1,57,58
 348 3 348 3 344 -18 c 128,-1,59
 340 -39 340 -39 327 -39 c 128,-1,60
 314 -39 314 -39 314 -17 c 128,-1,61
 314 5 314 5 343 206 c 1,62,-1
 198 206 l 1,0,1
229 367 m 1,63,64
 208 254 208 254 204 234 c 1,65,-1
 346 229 l 1,66,-1
 365 367 l 1,67,-1
 229 367 l 1,63,64
EndSplineSet
EndChar

StartChar: dollar
Encoding: 36 36 7
Width: 469
GlyphClass: 2
Flags: W
LayerCount: 2
Fore
SplineSet
259 700 m 0,0,1
 261 700 261 700 263 698 c 1,2,3
 278 692 278 692 278 664 c 0,4,5
 278 656 278 656 277 647 c 2,6,-1
 269 599 l 1,7,8
 315 595 315 595 342 570.5 c 128,-1,9
 369 546 369 546 369 510 c 0,10,11
 369 498 369 498 353.5 493 c 128,-1,12
 338 488 338 488 323 493 c 128,-1,13
 308 498 308 498 308 510 c 0,14,15
 308 565 308 565 265 574 c 1,16,-1
 229 351 l 1,17,18
 251 329 251 329 262 319 c 128,-1,19
 273 309 273 309 285.5 296 c 128,-1,20
 298 283 298 283 303.5 275.5 c 128,-1,21
 309 268 309 268 319 255 c 128,-1,22
 329 242 329 242 333 231.5 c 128,-1,23
 337 221 337 221 342 208 c 0,24,25
 352 186 352 186 352 153 c 0,26,27
 352 78 352 78 301 24.5 c 128,-1,28
 250 -29 250 -29 168 -36 c 1,29,-1
 158 -104 l 2,30,31
 156 -114 156 -114 153 -114 c 0,32,33
 139 -114 139 -114 139 -87 c 0,34,35
 139 -79 139 -79 140 -70 c 2,36,-1
 144 -37 l 1,37,38
 66 -36 66 -36 25.5 1.5 c 128,-1,39
 -15 39 -15 39 -15 95 c 0,40,41
 -15 111 -15 111 0 118 c 128,-1,42
 15 125 15 125 30 117.5 c 128,-1,43
 45 110 45 110 45 91 c 0,44,45
 45 43 45 43 67.5 15.5 c 128,-1,46
 90 -12 90 -12 148 -13 c 1,47,-1
 192 293 l 1,48,49
 161 323 161 323 144.5 341 c 128,-1,50
 128 359 128 359 112 392 c 128,-1,51
 96 425 96 425 96 461 c 0,52,53
 96 517 96 517 133.5 556 c 128,-1,54
 171 595 171 595 237 599 c 1,55,-1
 251 689 l 2,56,57
 253 700 253 700 259 700 c 0,0,1
290 133 m 0,58,59
 290 201 290 201 216 271 c 1,60,61
 207 210 207 210 190 106.5 c 128,-1,62
 173 3 173 3 171 -12 c 1,63,64
 227 -5 227 -5 258.5 37 c 128,-1,65
 290 79 290 79 290 133 c 0,58,59
176 546 m 128,-1,67
 154 520 154 520 154 475.5 c 128,-1,68
 154 431 154 431 205 376 c 1,69,70
 210 407 210 407 219.5 475.5 c 128,-1,71
 229 544 229 544 234 575 c 1,72,66
 198 572 198 572 176 546 c 128,-1,67
EndSplineSet
EndChar

StartChar: percent
Encoding: 37 37 8
Width: 745
GlyphClass: 2
Flags: W
LayerCount: 2
Fore
SplineSet
159 -102 m 0,0,1
 149 -102 149 -102 149 -87 c 128,-1,2
 149 -72 149 -72 168 -32 c 128,-1,3
 187 8 187 8 253.5 152.5 c 128,-1,4
 320 297 320 297 394 459.5 c 128,-1,5
 468 622 468 622 479 646 c 1,6,7
 491 667 491 667 504 667 c 128,-1,8
 517 667 517 667 522 656 c 0,9,10
 532 631 532 631 503 575 c 0,11,12
 500 568 500 568 355 279.5 c 128,-1,13
 210 -9 210 -9 174 -87 c 0,14,15
 167 -102 167 -102 159 -102 c 0,0,1
251 477 m 0,16,17
 251 577 251 577 201 577 c 0,18,19
 170 577 170 577 146 551 c 0,20,21
 133 538 133 538 119 541 c 0,22,23
 114 542 114 542 117 547 c 0,24,25
 153 600 153 600 212 600 c 0,26,27
 277 600 277 600 292 521 c 0,28,29
 296 500 296 500 296 477 c 0,30,31
 296 417 296 417 267 350 c 0,32,33
 228 259 228 259 166 241 c 0,34,35
 154 237 154 237 141 237 c 0,36,37
 98 237 98 237 73 264 c 1,38,39
 46 295 46 295 46 337 c 128,-1,40
 46 379 46 379 55 417 c 128,-1,41
 64 455 64 455 90 488 c 128,-1,42
 116 521 116 521 148 530 c 0,43,44
 153 531 153 531 156 526.5 c 128,-1,45
 159 522 159 522 158.5 516.5 c 128,-1,46
 158 511 158 511 155 510 c 0,47,48
 124 499 124 499 106 437 c 0,49,50
 93 395 93 395 93 354 c 0,51,52
 93 259 93 259 141 259 c 128,-1,53
 189 259 189 259 222 338 c 0,54,55
 251 408 251 408 251 477 c 0,16,17
580 199 m 0,56,57
 580 299 580 299 530 299 c 0,58,59
 499 299 499 299 475 273 c 0,60,61
 462 260 462 260 448 263 c 0,62,63
 443 264 443 264 446 269 c 0,64,65
 482 322 482 322 541 322 c 0,66,67
 606 322 606 322 621 243 c 0,68,69
 625 222 625 222 625 199 c 0,70,71
 625 139 625 139 596 72 c 0,72,73
 557 -19 557 -19 495 -37 c 0,74,75
 483 -41 483 -41 470 -41 c 0,76,77
 427 -41 427 -41 402 -14 c 1,78,79
 375 17 375 17 375 59 c 128,-1,80
 375 101 375 101 384 139 c 128,-1,81
 393 177 393 177 419 210 c 128,-1,82
 445 243 445 243 477 252 c 0,83,84
 482 253 482 253 485 248.5 c 128,-1,85
 488 244 488 244 487.5 238.5 c 128,-1,86
 487 233 487 233 484 232 c 0,87,88
 453 221 453 221 434 159 c 0,89,90
 422 117 422 117 422 76 c 0,91,92
 422 -19 422 -19 470 -19 c 128,-1,93
 518 -19 518 -19 551 60 c 0,94,95
 580 130 580 130 580 199 c 0,56,57
EndSplineSet
EndChar

StartChar: ampersand
Encoding: 38 38 9
Width: 773
GlyphClass: 2
Flags: W
LayerCount: 2
Fore
SplineSet
673 450 m 0,0,1
 673 529 673 529 622 534 c 1,2,3
 628 551 628 551 646 551 c 0,4,5
 692 551 692 551 707 497 c 0,6,7
 712 477 712 477 712 457 c 0,8,9
 712 409 712 409 684 358 c 0,10,11
 629 258 629 258 507 235 c 0,12,13
 477 229 477 229 446.5 229 c 128,-1,14
 416 229 416 229 405 231 c 1,15,16
 396 130 396 130 332 55 c 1,17,18
 423 -41 423 -41 519 -41 c 0,19,20
 577 -41 577 -41 606 -18 c 128,-1,21
 635 5 635 5 635 34 c 0,22,23
 635 38 635 38 639.5 40 c 128,-1,24
 644 42 644 42 648 40 c 128,-1,25
 652 38 652 38 652 32 c 0,26,27
 652 -1 652 -1 617.5 -33 c 128,-1,28
 583 -65 583 -65 518 -65 c 0,29,30
 414 -65 414 -65 309 30 c 1,31,32
 233 -37 233 -37 128 -37 c 0,33,34
 47 -37 47 -37 6 0.5 c 128,-1,35
 -35 38 -35 38 -35 100.5 c 128,-1,36
 -35 163 -35 163 7.5 215.5 c 128,-1,37
 50 268 50 268 124 321 c 1,38,39
 104 385 104 385 104 433 c 128,-1,40
 104 481 104 481 116 518 c 128,-1,41
 128 555 128 555 164 577.5 c 128,-1,42
 200 600 200 600 251 600 c 128,-1,43
 302 600 302 600 326 576.5 c 128,-1,44
 350 553 350 553 350 514 c 0,45,46
 350 487 350 487 341 471 c 128,-1,47
 332 455 332 455 326.5 446 c 128,-1,48
 321 437 321 437 308.5 425 c 128,-1,49
 296 413 296 413 289 406.5 c 128,-1,50
 282 400 282 400 265 387 c 128,-1,51
 248 374 248 374 241 369 c 128,-1,52
 234 364 234 364 213.5 350 c 128,-1,53
 193 336 193 336 187 331 c 1,54,55
 226 179 226 179 317 72 c 1,56,57
 374 140 374 140 384 236 c 1,58,59
 315 256 315 256 315 307 c 0,60,61
 315 328 315 328 335 339 c 0,62,63
 345 345 345 345 362.5 345 c 128,-1,64
 380 345 380 345 393 320 c 128,-1,65
 406 295 406 295 406 255 c 1,66,67
 422 252 422 252 443 252 c 0,68,69
 579 252 579 252 641 350 c 0,70,71
 673 400 673 400 673 450 c 0,0,1
131 -13 m 0,72,73
 226 -13 226 -13 292 46 c 1,74,75
 188 149 188 149 134 292 c 1,76,77
 19 199 19 199 19 91 c 0,78,79
 19 45 19 45 45.5 16 c 128,-1,80
 72 -13 72 -13 131 -13 c 0,72,73
267 576 m 0,81,82
 172 576 172 576 172 440 c 0,83,84
 172 403 172 403 180 360 c 1,85,86
 249 408 249 408 284 443.5 c 128,-1,87
 319 479 319 479 319 522 c 0,88,89
 319 576 319 576 267 576 c 0,81,82
358 322 m 0,90,91
 340 322 340 322 340 301 c 0,92,93
 340 278 340 278 385 260 c 1,94,95
 383 322 383 322 358 322 c 0,90,91
EndSplineSet
EndChar

StartChar: quotesingle
Encoding: 39 39 10
Width: 343
GlyphClass: 2
Flags: W
LayerCount: 2
Fore
SplineSet
275 680 m 128,-1,1
 286 718 286 718 286 756 c 128,-1,2
 286 794 286 794 314 794 c 128,-1,3
 342 794 342 794 342 759 c 0,4,5
 342 751 342 751 341 742 c 0,6,7
 333 687 333 687 299 650 c 0,8,9
 280 630 280 630 267 629 c 1,10,11
 247 629 247 629 246 639 c 1,12,-1
 245 642 l 1,13,0
 264 642 264 642 275 680 c 128,-1,1
EndSplineSet
EndChar

StartChar: parenleft
Encoding: 40 40 11
Width: 305
GlyphClass: 2
Flags: W
LayerCount: 2
Fore
SplineSet
292 815 m 1,0,1
 302 815 302 815 302 805.5 c 128,-1,2
 302 796 302 796 295 796 c 1,3,4
 235 787 235 787 178.5 662.5 c 128,-1,5
 122 538 122 538 95 400 c 128,-1,6
 68 262 68 262 68 146 c 0,7,8
 68 -35 68 -35 127 -72 c 0,9,10
 134 -77 134 -77 131.5 -83 c 128,-1,11
 129 -89 129 -89 126 -89 c 128,-1,12
 123 -89 123 -89 119 -87 c 0,13,14
 55 -52 55 -52 30 50 c 1,15,16
 13 115 13 115 13 173 c 0,17,18
 13 334 13 334 69 520 c 0,19,20
 105 639 105 639 166 723 c 128,-1,21
 227 807 227 807 292 815 c 1,0,1
EndSplineSet
EndChar

StartChar: parenright
Encoding: 41 41 12
Width: 390
GlyphClass: 2
Flags: W
LayerCount: 2
Fore
SplineSet
-5 -93 m 1,0,1
 -15 -93 -15 -93 -15 -83.5 c 128,-1,2
 -15 -74 -15 -74 -8 -74 c 1,3,4
 52 -65 52 -65 108.5 59.5 c 128,-1,5
 165 184 165 184 192 322 c 128,-1,6
 219 460 219 460 219 576 c 0,7,8
 219 757 219 757 160 794 c 0,9,10
 153 799 153 799 155.5 805 c 128,-1,11
 158 811 158 811 161 811 c 128,-1,12
 164 811 164 811 168 809 c 0,13,14
 232 774 232 774 258 672 c 0,15,16
 274 607 274 607 274 549 c 0,17,18
 274 388 274 388 218 202 c 0,19,20
 182 83 182 83 121 -1 c 128,-1,21
 60 -85 60 -85 -5 -93 c 1,0,1
EndSplineSet
EndChar

StartChar: asterisk
Encoding: 42 42 13
Width: 655
GlyphClass: 2
Flags: W
LayerCount: 2
Fore
SplineSet
281 770 m 0,0,1
 281 782 281 782 289 790 c 128,-1,2
 297 798 297 798 308.5 798 c 128,-1,3
 320 798 320 798 328.5 790 c 128,-1,4
 337 782 337 782 337 770 c 0,5,6
 337 689 337 689 323 640 c 1,7,8
 361 667 361 667 440 696 c 0,9,10
 451 700 451 700 462 694 c 0,11,12
 478 686 478 686 478 669 c 0,13,14
 478 650 478 650 459 643 c 0,15,16
 380 614 380 614 332 611 c 1,17,18
 369 586 369 586 426 518 c 1,19,20
 433 508 433 508 433 498 c 128,-1,21
 433 488 433 488 422 479 c 0,22,23
 400 462 400 462 382 482 c 1,24,25
 327 549 327 549 309 596 c 1,26,27
 295 553 295 553 240 480 c 0,28,29
 232 468 232 468 220 468 c 128,-1,30
 208 468 208 468 200 474.5 c 128,-1,31
 192 481 192 481 190 492.5 c 128,-1,32
 188 504 188 504 195 513 c 0,33,34
 248 583 248 583 286 611 c 1,35,36
 242 611 242 611 155 638 c 0,37,38
 135 645 135 645 135 664 c 0,39,40
 135 681 135 681 148 688 c 128,-1,41
 161 695 161 695 172 692 c 0,42,43
 259 661 259 661 295 636 c 1,44,45
 281 678 281 678 281 770 c 0,0,1
EndSplineSet
EndChar

StartChar: plus
Encoding: 43 43 14
Width: 673
GlyphClass: 2
Flags: W
LayerCount: 2
Fore
SplineSet
274 45 m 0,0,1
 272 35 272 35 269 35 c 128,-1,2
 266 35 266 35 261 39 c 128,-1,3
 256 43 256 43 256 60.5 c 128,-1,4
 256 78 256 78 278 284 c 1,5,6
 208 283 208 283 87 283 c 0,7,8
 76 283 76 283 76 291 c 0,9,10
 76 307 76 307 108 313 c 0,11,12
 116 314 116 314 136 314 c 128,-1,13
 156 314 156 314 280 310 c 1,14,15
 293 437 293 437 302 506 c 0,16,17
 303 517 303 517 309 517 c 0,18,19
 311 517 311 517 314 515 c 0,20,21
 329 509 329 509 329 476 c 128,-1,22
 329 443 329 443 308 309 c 1,23,24
 436 305 436 305 502 305 c 0,25,26
 512 305 512 305 512 300 c 0,27,28
 512 286 512 286 470 285 c 1,29,30
 363 285 363 285 305 284 c 1,31,32
 283 134 283 134 274 45 c 0,0,1
EndSplineSet
EndChar

StartChar: comma
Encoding: 44 44 15
Width: 215
GlyphClass: 2
Flags: W
LayerCount: 2
Fore
SplineSet
59 -42 m 128,-1,1
 70 -4 70 -4 70 34 c 128,-1,2
 70 72 70 72 98 72 c 128,-1,3
 126 72 126 72 126 37 c 0,4,5
 126 29 126 29 125 20 c 0,6,7
 117 -35 117 -35 83 -72 c 0,8,9
 64 -92 64 -92 51 -93 c 1,10,11
 31 -93 31 -93 30 -83 c 1,12,-1
 29 -80 l 1,13,0
 48 -80 48 -80 59 -42 c 128,-1,1
EndSplineSet
EndChar

StartChar: hyphen
Encoding: 45 45 16
Width: 610
GlyphClass: 2
Flags: W
LayerCount: 2
Fore
SplineSet
424 285 m 2,0,-1
 107 283 l 2,1,2
 96 283 96 283 96 291 c 0,3,4
 96 307 96 307 128 313 c 0,5,6
 136 314 136 314 146 314 c 2,7,-1
 456 305 l 2,8,9
 466 305 466 305 466 300 c 0,10,11
 466 286 466 286 424 285 c 2,0,-1
EndSplineSet
EndChar

StartChar: period
Encoding: 46 46 17
Width: 209
GlyphClass: 2
Flags: W
LayerCount: 2
Fore
SplineSet
100 72 m 0,0,1
 123 72 123 72 123 41 c 128,-1,2
 123 10 123 10 93 -9 c 0,3,4
 78 -19 78 -19 67 -19 c 0,5,6
 51 -19 51 -19 47 -6 c 1,7,8
 56 -6 56 -6 60 13.5 c 128,-1,9
 64 33 64 33 72.5 52.5 c 128,-1,10
 81 72 81 72 100 72 c 0,0,1
EndSplineSet
EndChar

StartChar: slash
Encoding: 47 47 18
Width: 508
GlyphClass: 2
Flags: W
LayerCount: 2
Fore
SplineSet
31 -102 m 0,0,1
 21 -102 21 -102 21 -87 c 128,-1,2
 21 -72 21 -72 40 -32 c 128,-1,3
 59 8 59 8 125.5 152.5 c 128,-1,4
 192 297 192 297 266 459.5 c 128,-1,5
 340 622 340 622 351 646 c 1,6,7
 363 667 363 667 378 667 c 0,8,9
 396 667 396 667 396 642 c 0,10,11
 396 615 396 615 375 575 c 0,12,13
 372 568 372 568 227 279.5 c 128,-1,14
 82 -9 82 -9 46 -87 c 0,15,16
 39 -102 39 -102 31 -102 c 0,0,1
EndSplineSet
EndChar

StartChar: zero
Encoding: 48 48 19
Width: 503
GlyphClass: 2
Flags: W
LayerCount: 2
Fore
SplineSet
358 395 m 0,0,1
 358 573 358 573 266 573 c 0,2,3
 204 573 204 573 163 524 c 0,4,5
 145 503 145 503 128 503 c 0,6,7
 118 503 118 503 123 512 c 1,8,9
 184 600 184 600 282.5 600 c 128,-1,10
 381 600 381 600 412 491 c 0,11,12
 424 448 424 448 424 387 c 128,-1,13
 424 326 424 326 397 240 c 0,14,15
 353 97 353 97 266 31 c 0,16,17
 217 -7 217 -7 164.5 -7 c 128,-1,18
 112 -7 112 -7 75.5 18.5 c 128,-1,19
 39 44 39 44 24 85 c 0,20,21
 5 138 5 138 5 188.5 c 128,-1,22
 5 239 5 239 17 286 c 128,-1,23
 29 333 29 333 50 378.5 c 128,-1,24
 71 424 71 424 105 458 c 128,-1,25
 139 492 139 492 178 503 c 0,26,27
 184 505 184 505 187.5 500 c 128,-1,28
 191 495 191 495 190 488 c 128,-1,29
 189 481 189 481 185 480 c 0,30,31
 153 471 153 471 126 420 c 1,32,33
 73 324 73 324 73 167 c 0,34,35
 73 104 73 104 96 59.5 c 128,-1,36
 119 15 119 15 162 15 c 0,37,38
 247 15 247 15 306 154 c 0,39,40
 358 275 358 275 358 395 c 0,0,1
EndSplineSet
EndChar

StartChar: one
Encoding: 49 49 20
Width: 385
GlyphClass: 2
Flags: W
LayerCount: 2
Fore
SplineSet
191 -20 m 0,0,1
 132 -20 132 -20 132 104 c 0,2,3
 132 167 132 167 152.5 260.5 c 128,-1,4
 173 354 173 354 215 452 c 1,5,6
 130 404 130 404 79.5 349 c 128,-1,7
 29 294 29 294 29 215 c 0,8,9
 29 197 29 197 36 192 c 128,-1,10
 43 187 43 187 45 187 c 1,11,12
 43 175 43 175 28 175 c 128,-1,13
 13 175 13 175 -1 190 c 128,-1,14
 -15 205 -15 205 -15 240.5 c 128,-1,15
 -15 276 -15 276 6 315 c 128,-1,16
 27 354 27 354 68 386 c 0,17,18
 135 439 135 439 230 485 c 1,19,20
 295 624 295 624 355 624 c 0,21,22
 386 624 386 624 386 592 c 0,23,24
 386 564 386 564 358.5 540.5 c 128,-1,25
 331 517 331 517 274 485 c 1,26,27
 224 349 224 349 203 178 c 0,28,29
 196 116 196 116 196 76 c 0,30,31
 196 4 196 4 220 0 c 1,32,33
 210 -20 210 -20 191 -20 c 0,0,1
355 600 m 0,34,35
 322 600 322 600 286 514 c 1,36,37
 367 557 367 557 367 587 c 0,38,39
 367 600 367 600 355 600 c 0,34,35
EndSplineSet
EndChar

StartChar: two
Encoding: 50 50 21
Width: 489
GlyphClass: 2
Flags: W
LayerCount: 2
Fore
SplineSet
344 197 m 0,0,1
 380 197 380 197 380 139 c 128,-1,2
 380 81 380 81 346 33 c 0,3,4
 301 -32 301 -32 223 -32 c 0,5,6
 187 -32 187 -32 159 -17 c 128,-1,7
 131 -2 131 -2 116 16 c 0,8,9
 77 63 77 63 50.5 63 c 128,-1,10
 24 63 24 63 10 43.5 c 128,-1,11
 -4 24 -4 24 -4 9 c 0,12,13
 -4 -3 -4 -3 -23.5 -3.5 c 128,-1,14
 -43 -4 -43 -4 -43 9 c 0,15,16
 -43 42 -43 42 52 118 c 0,17,18
 148 195 148 195 228 282 c 1,19,20
 269 325 269 325 296 379 c 128,-1,21
 323 433 323 433 323 484 c 0,22,23
 323 575 323 575 236 575 c 0,24,25
 161 575 161 575 120 494 c 1,26,27
 97 446 97 446 97 401 c 0,28,29
 97 383 97 383 101 365 c 0,30,31
 112 313 112 313 151 313 c 1,32,33
 151 299 151 299 129 299 c 0,34,35
 67 299 67 299 49 360 c 0,36,37
 43 380 43 380 43 400 c 0,38,39
 43 445 43 445 70 494 c 0,40,41
 129 600 129 600 251 600 c 0,42,43
 319 600 319 600 354 567.5 c 128,-1,44
 389 535 389 535 389 484 c 128,-1,45
 389 433 389 433 366.5 387.5 c 128,-1,46
 344 342 344 342 302 299 c 128,-1,47
 260 256 260 256 222 223.5 c 128,-1,48
 184 191 184 191 131 150.5 c 128,-1,49
 78 110 78 110 56 90 c 1,50,51
 63 91 63 91 68 91 c 0,52,53
 92 91 92 91 140.5 65 c 128,-1,54
 189 39 189 39 233 39 c 0,55,56
 307 39 307 39 340 100 c 0,57,58
 354 126 354 126 354 143 c 0,59,60
 354 184 354 184 329 184 c 1,61,62
 331 197 331 197 344 197 c 0,0,1
EndSplineSet
EndChar

StartChar: three
Encoding: 51 51 22
Width: 498
GlyphClass: 2
Flags: W
LayerCount: 2
Fore
SplineSet
391 480 m 0,0,1
 391 406 391 406 328 348 c 1,2,3
 361 324 361 324 377 286.5 c 128,-1,4
 393 249 393 249 393 206.5 c 128,-1,5
 393 164 393 164 374 119.5 c 128,-1,6
 355 75 355 75 323.5 40.5 c 128,-1,7
 292 6 292 6 241 -16 c 128,-1,8
 190 -38 190 -38 129 -38 c 0,9,10
 24 -38 24 -38 -13 31 c 0,11,12
 -31 64 -31 64 -31 98.5 c 128,-1,13
 -31 133 -31 133 -10 168 c 0,14,15
 30 237 30 237 111 237 c 0,16,17
 123 237 123 237 130.5 230.5 c 128,-1,18
 138 224 138 224 140 212 c 1,19,20
 127 216 127 216 111 216 c 0,21,22
 56 216 56 216 28 159 c 0,23,24
 13 129 13 129 13 100.5 c 128,-1,25
 13 72 13 72 26 44 c 0,26,27
 52 -13 52 -13 129 -13 c 0,28,29
 192 -13 192 -13 240 26 c 0,30,31
 326 97 326 97 326 222 c 0,32,33
 326 287 326 287 297 325 c 1,34,35
 246 294 246 294 186 294 c 128,-1,36
 126 294 126 294 126 327 c 0,37,38
 126 351 126 351 155 366 c 128,-1,39
 184 381 184 381 221 381 c 128,-1,40
 258 381 258 381 288 369 c 1,41,42
 330 422 330 422 330 481 c 0,43,44
 330 514 330 514 314 540 c 0,45,46
 291 576 291 576 239 576 c 0,47,48
 175 576 175 576 148 517 c 0,49,50
 137 493 137 493 137 474.5 c 128,-1,51
 137 456 137 456 145 442 c 0,52,53
 154 427 154 427 168 426 c 1,54,55
 168 412 168 412 146 412 c 0,56,57
 107 412 107 412 96 453 c 1,58,59
 94 465 94 465 94 476 c 0,60,61
 94 512 94 512 121 546 c 0,62,63
 165 600 165 600 246.5 600 c 128,-1,64
 328 600 328 600 364 556 c 0,65,66
 391 522 391 522 391 480 c 0,0,1
150 331 m 0,67,68
 150 315 150 315 190.5 315 c 128,-1,69
 231 315 231 315 270 349 c 1,70,71
 247 363 247 363 208 363 c 128,-1,72
 169 363 169 363 154 340 c 0,73,74
 150 335 150 335 150 331 c 0,67,68
EndSplineSet
EndChar

StartChar: four
Encoding: 52 52 23
Width: 514
GlyphClass: 2
Flags: W
LayerCount: 2
Fore
SplineSet
145 620 m 0,0,1
 203 620 203 620 203 512 c 0,2,3
 203 449 203 449 177 362 c 128,-1,4
 151 275 151 275 103 209 c 1,5,6
 107 208 107 208 161.5 191 c 128,-1,7
 216 174 216 174 249 169 c 1,8,9
 267 286 267 286 316 392 c 128,-1,10
 365 498 365 498 408 498 c 0,11,12
 415 498 415 498 419 495 c 128,-1,13
 423 492 423 492 423 489 c 2,14,-1
 423 486 l 1,15,16
 392 486 392 486 358.5 382.5 c 128,-1,17
 325 279 325 279 310 163 c 1,18,-1
 320 163 l 2,19,20
 373 163 373 163 390 201 c 0,21,22
 395 211 395 211 395 221 c 128,-1,23
 395 231 395 231 388.5 236 c 128,-1,24
 382 241 382 241 376 241 c 1,25,26
 380 255 380 255 397 255 c 0,27,28
 423 255 423 255 423 220.5 c 128,-1,29
 423 186 423 186 394.5 163 c 128,-1,30
 366 140 366 140 321 140 c 2,31,-1
 307 140 l 1,32,33
 303 98 303 98 303 69 c 0,34,35
 303 0 303 0 326 0 c 1,36,37
 316 -20 316 -20 297 -20 c 0,38,39
 241 -20 241 -20 241 85 c 0,40,41
 241 113 241 113 246 147 c 1,42,43
 209 154 209 154 149.5 172.5 c 128,-1,44
 90 191 90 191 89 191 c 0,45,46
 45 140 45 140 1 140 c 128,-1,47
 -43 140 -43 140 -49 167 c 0,48,49
 -50 171 -50 171 -50 175 c 0,50,51
 -50 195 -50 195 -26.5 207.5 c 128,-1,52
 -3 220 -3 220 19.5 220 c 128,-1,53
 42 220 42 220 70 216 c 1,54,55
 103 272 103 272 121.5 361 c 128,-1,56
 140 450 140 450 140 525 c 128,-1,57
 140 600 140 600 116 600 c 1,58,59
 126 620 126 620 145 620 c 0,0,1
-26 175 m 0,60,61
 -26 161 -26 161 2.5 161 c 128,-1,62
 31 161 31 161 58 199 c 1,63,64
 43 202 43 202 29 202 c 0,65,66
 -17 202 -17 202 -25 181 c 0,67,68
 -26 178 -26 178 -26 175 c 0,60,61
EndSplineSet
EndChar

StartChar: five
Encoding: 53 53 24
Width: 498
GlyphClass: 2
Flags: W
LayerCount: 2
Fore
SplineSet
383 672 m 0,0,1
 407 672 407 672 407 624.5 c 128,-1,2
 407 577 407 577 371.5 539 c 128,-1,3
 336 501 336 501 277 501 c 0,4,5
 243 501 243 501 214 511 c 0,6,7
 175 525 175 525 161 542 c 1,8,9
 158 525 158 525 152.5 477 c 128,-1,10
 147 429 147 429 142 404 c 1,11,12
 167 409 167 409 190 409 c 0,13,14
 324 409 324 409 371 314 c 0,15,16
 391 274 391 274 391 229 c 128,-1,17
 391 184 391 184 372 134 c 0,18,19
 334 36 334 36 245 -10 c 0,20,21
 192 -38 192 -38 130 -38 c 0,22,23
 26 -38 26 -38 -12 31 c 0,24,25
 -32 67 -32 67 -32 101.5 c 128,-1,26
 -32 136 -32 136 -16 168 c 0,27,28
 19 237 19 237 91 237 c 0,29,30
 101 237 101 237 101.5 226.5 c 128,-1,31
 102 216 102 216 91 216 c 0,32,33
 43 216 43 216 20 161 c 0,34,35
 8 133 8 133 8 105 c 128,-1,36
 8 77 8 77 22 49 c 0,37,38
 51 -13 51 -13 129 -13 c 0,39,40
 220 -13 220 -13 277 77 c 0,41,42
 320 145 320 145 320 222 c 0,43,44
 320 341 320 341 236 376 c 0,45,46
 209 388 209 388 183 388 c 128,-1,47
 157 388 157 388 139 383 c 1,48,49
 119 280 119 280 72 280 c 0,50,51
 39 280 39 280 39 311 c 0,52,53
 39 345 39 345 79 375 c 0,54,55
 98 389 98 389 120 397 c 1,56,57
 123 416 123 416 127.5 451 c 128,-1,58
 132 486 132 486 135 507.5 c 128,-1,59
 138 529 138 529 144 553 c 0,60,61
 154 600 154 600 177 600 c 2,62,-1
 178 600 l 2,63,64
 189 600 189 600 203 588 c 0,65,66
 245 550 245 550 302.5 550 c 128,-1,67
 360 550 360 550 381 600 c 0,68,69
 387 616 387 616 387 629 c 128,-1,70
 387 642 387 642 380.5 650 c 128,-1,71
 374 658 374 658 366 658 c 0,72,73
 365 658 365 658 366 662 c 0,74,75
 369 672 369 672 383 672 c 0,0,1
61 311 m 0,76,77
 61 301 61 301 72 300 c 1,78,79
 101 300 101 300 117 376 c 1,80,81
 76 357 76 357 64 324 c 0,82,83
 61 317 61 317 61 311 c 0,76,77
EndSplineSet
EndChar

StartChar: six
Encoding: 54 54 25
Width: 480
GlyphClass: 2
Flags: W
LayerCount: 2
Fore
SplineSet
67 158 m 0,0,1
 67 -7 67 -7 162 -7 c 0,2,3
 233 -7 233 -7 282 85 c 0,4,5
 321 159 321 159 321 235 c 0,6,7
 321 336 321 336 262 346 c 0,8,9
 257 347 257 347 251 347 c 0,10,11
 198 347 198 347 162 289.5 c 128,-1,12
 126 232 126 232 124 166 c 0,13,14
 124 152 124 152 113.5 156 c 128,-1,15
 103 160 103 160 104 173 c 0,16,17
 107 248 107 248 152 311 c 128,-1,18
 197 374 197 374 269 374 c 0,19,20
 351 374 351 374 374 293 c 0,21,22
 381 267 381 267 381 239 c 0,23,24
 381 182 381 182 351 117 c 1,25,26
 307 18 307 18 227 -16 c 0,27,28
 196 -29 196 -29 162 -29 c 0,29,30
 42 -29 42 -29 9 84 c 0,31,32
 -2 123 -2 123 -2 167 c 0,33,34
 -2 243 -2 243 32 334 c 0,35,36
 84 476 84 476 179 550 c 1,37,38
 245 600 245 600 313 600 c 0,39,40
 351 600 351 600 370 580 c 128,-1,41
 389 560 389 560 389 534 c 128,-1,42
 389 508 389 508 370 503 c 1,43,44
 352 500 352 500 351 514 c 0,45,46
 351 517 351 517 351 520 c 0,47,48
 351 542 351 542 338 558 c 128,-1,49
 325 574 325 574 297 574 c 0,50,51
 204 574 204 574 135.5 434 c 128,-1,52
 67 294 67 294 67 158 c 0,0,1
EndSplineSet
EndChar

StartChar: seven
Encoding: 55 55 26
Width: 368
GlyphClass: 2
Flags: W
LayerCount: 2
Fore
SplineSet
56 568 m 0,0,1
 56 546 56 546 77 533 c 128,-1,2
 98 520 98 520 131 520 c 0,3,4
 189 520 189 520 280 560 c 128,-1,5
 371 600 371 600 392 600 c 0,6,7
 398 600 398 600 398 588 c 128,-1,8
 398 576 398 576 392 576 c 0,9,10
 331 576 331 576 250.5 432 c 128,-1,11
 170 288 170 288 128 144 c 0,12,13
 103 60 103 60 103 30 c 128,-1,14
 103 0 103 0 115 0 c 1,15,16
 105 -20 105 -20 86 -20 c 0,17,18
 39 -20 39 -20 39 42 c 0,19,20
 39 68 39 68 47 105 c 0,21,22
 77 234 77 234 175 392 c 0,23,24
 229 480 229 480 283 535 c 1,25,26
 163 479 163 479 91 479 c 128,-1,27
 19 479 19 479 3 529 c 0,28,29
 -1 542 -1 542 -1 560.5 c 128,-1,30
 -1 579 -1 579 16.5 600.5 c 128,-1,31
 34 622 34 622 62 622 c 0,32,33
 70 622 70 622 76 618 c 128,-1,34
 82 614 82 614 85 607 c 1,35,36
 66 607 66 607 58 583 c 0,37,38
 56 575 56 575 56 568 c 0,0,1
EndSplineSet
EndChar

StartChar: eight
Encoding: 56 56 27
Width: 459
GlyphClass: 2
Flags: W
LayerCount: 2
Fore
SplineSet
255 600 m 0,0,1
 307 600 307 600 338 574.5 c 128,-1,2
 369 549 369 549 369 502.5 c 128,-1,3
 369 456 369 456 336 418 c 128,-1,4
 303 380 303 380 241 339 c 1,5,6
 326 260 326 260 344 208 c 0,7,8
 352 183 352 183 352 153 c 0,9,10
 352 73 352 73 294.5 18 c 128,-1,11
 237 -37 237 -37 152.5 -37 c 128,-1,12
 68 -37 68 -37 26.5 0.5 c 128,-1,13
 -15 38 -15 38 -15 95 c 0,14,15
 -15 171 -15 171 42 228 c 0,16,17
 72 258 72 258 96 276 c 128,-1,18
 120 294 120 294 162 322 c 1,19,20
 96 390 96 390 96 455.5 c 128,-1,21
 96 521 96 521 138.5 560.5 c 128,-1,22
 181 600 181 600 255 600 c 0,0,1
290 133 m 0,23,24
 290 161 290 161 283.5 176 c 128,-1,25
 277 191 277 191 274 199.5 c 128,-1,26
 271 208 271 208 262 219.5 c 128,-1,27
 253 231 253 231 249 236.5 c 128,-1,28
 245 242 245 242 233 254 c 2,29,-1
 217 270 l 2,30,31
 213 274 213 274 199.5 286.5 c 128,-1,32
 186 299 186 299 183 302 c 1,33,34
 112 256 112 256 73 208.5 c 128,-1,35
 34 161 34 161 34 91 c 0,36,37
 34 45 34 45 62 16 c 128,-1,38
 90 -13 90 -13 153 -13 c 128,-1,39
 216 -13 216 -13 253 30 c 128,-1,40
 290 73 290 73 290 133 c 0,23,24
299.5 558 m 128,-1,42
 279 576 279 576 241 576 c 128,-1,43
 203 576 203 576 178.5 549.5 c 128,-1,44
 154 523 154 523 154 481 c 0,45,46
 154 426 154 426 219 361 c 1,47,48
 268 398 268 398 294 432.5 c 128,-1,49
 320 467 320 467 320 503.5 c 128,-1,41
 320 540 320 540 299.5 558 c 128,-1,42
EndSplineSet
EndChar

StartChar: nine
Encoding: 57 57 28
Width: 499
GlyphClass: 2
Flags: W
LayerCount: 2
Fore
SplineSet
91 -3 m 0,0,1
 194 -3 194 -3 269 130 c 256,2,3
 344 263 344 263 344 421 c 0,4,5
 344 528 344 528 297 564 c 0,6,7
 279 578 279 578 255 578 c 0,8,9
 181 578 181 578 130 484 c 0,10,11
 89 409 89 409 89 331 c 0,12,13
 89 232 89 232 148 222 c 0,14,15
 153 221 153 221 159 221 c 0,16,17
 211 221 211 221 248 280 c 128,-1,18
 285 339 285 339 287 405 c 0,19,20
 287 419 287 419 297.5 415 c 128,-1,21
 308 411 308 411 307 398 c 0,22,23
 304 323 304 323 259 260 c 128,-1,24
 214 197 214 197 142 197 c 0,25,26
 59 197 59 197 34 278 c 0,27,28
 26 307 26 307 26 349.5 c 128,-1,29
 26 392 26 392 51 452 c 0,30,31
 94 551 94 551 178 586 c 0,32,33
 212 600 212 600 249 600 c 0,34,35
 361 600 361 600 399 493 c 0,36,37
 415 448 415 448 415 388.5 c 128,-1,38
 415 329 415 329 389 251 c 0,39,40
 342 108 342 108 241 30 c 0,41,42
 164 -29 164 -29 75 -29 c 0,43,44
 25 -29 25 -29 -1.5 -4 c 128,-1,45
 -28 21 -28 21 -28 48 c 128,-1,46
 -28 75 -28 75 -7 78 c 1,47,48
 11 77 11 77 14 63 c 1,49,50
 14 36 14 36 32.5 16.5 c 128,-1,51
 51 -3 51 -3 91 -3 c 0,0,1
EndSplineSet
EndChar

StartChar: colon
Encoding: 58 58 29
Width: 293
GlyphClass: 2
Flags: W
LayerCount: 2
Fore
SplineSet
88 72 m 0,0,1
 112 72 112 72 112 41 c 128,-1,2
 112 10 112 10 83 -9 c 0,3,4
 69 -19 69 -19 58 -19 c 0,5,6
 42 -19 42 -19 38 -6 c 1,7,8
 52 -6 52 -6 56 33 c 0,9,10
 57 48 57 48 65 60 c 128,-1,11
 73 72 73 72 88 72 c 0,0,1
129 352 m 0,12,13
 153 352 153 352 153 321 c 128,-1,14
 153 290 153 290 124 271 c 0,15,16
 110 261 110 261 99 261 c 0,17,18
 83 261 83 261 79 274 c 1,19,20
 93 274 93 274 96 313 c 0,21,22
 98 328 98 328 106 340 c 128,-1,23
 114 352 114 352 129 352 c 0,12,13
EndSplineSet
EndChar

StartChar: semicolon
Encoding: 59 59 30
Width: 235
GlyphClass: 2
Flags: W
LayerCount: 2
Fore
SplineSet
58 37 m 0,0,1
 56 72 56 72 85 72 c 128,-1,2
 114 72 114 72 114 34 c 0,3,4
 114 -27 114 -27 75 -72 c 0,5,6
 56 -93 56 -93 43 -93 c 0,7,8
 23 -93 23 -93 22 -83 c 1,9,-1
 21 -80 l 1,10,11
 40 -80 40 -80 49 -44.5 c 128,-1,12
 58 -9 58 -9 58 12 c 128,-1,13
 58 33 58 33 58 37 c 0,0,1
118 352 m 0,14,15
 143 352 143 352 143 320.5 c 128,-1,16
 143 289 143 289 116 271 c 0,17,18
 102 261 102 261 91 261 c 0,19,20
 74 261 74 261 70 274 c 1,21,22
 83 274 83 274 86 313 c 0,23,24
 87 328 87 328 95 340 c 128,-1,25
 103 352 103 352 118 352 c 0,14,15
EndSplineSet
EndChar

StartChar: less
Encoding: 60 60 31
Width: 508
GlyphClass: 2
Flags: W
LayerCount: 2
Fore
SplineSet
339 420 m 1,0,1
 356 417 356 417 356 383 c 128,-1,2
 356 349 356 349 286.5 290.5 c 128,-1,3
 217 232 217 232 152 226 c 1,4,5
 208 198 208 198 255 138 c 128,-1,6
 302 78 302 78 302 37 c 0,7,8
 302 11 302 11 290 6 c 1,9,-1
 285 5 l 1,10,11
 285 68 285 68 208.5 138 c 128,-1,12
 132 208 132 208 40 208 c 1,13,14
 40 216 40 216 51 225 c 0,15,16
 71 241 71 241 94 241 c 0,17,18
 185 241 185 241 262 303.5 c 128,-1,19
 339 366 339 366 339 420 c 1,0,1
EndSplineSet
EndChar

StartChar: equal
Encoding: 61 61 32
Width: 724
GlyphClass: 2
Flags: W
LayerCount: 2
Fore
SplineSet
532 369 m 2,0,-1
 114 367 l 2,1,2
 102 367 102 367 103 376 c 0,3,4
 105 392 105 392 135 397 c 1,5,-1
 153 398 l 1,6,-1
 564 389 l 2,7,8
 574 389 574 389 574 384 c 0,9,10
 574 370 574 370 532 369 c 2,0,-1
509 208 m 2,11,-1
 91 206 l 2,12,13
 80 206 80 206 80 214 c 0,14,15
 80 230 80 230 112 236 c 0,16,17
 120 237 120 237 130 237 c 2,18,-1
 541 228 l 2,19,20
 551 228 551 228 551 223 c 0,21,22
 551 209 551 209 509 208 c 2,11,-1
EndSplineSet
EndChar

StartChar: greater
Encoding: 62 62 33
Width: 548
GlyphClass: 2
Flags: W
LayerCount: 2
Fore
SplineSet
92 37 m 0,0,1
 92 76 92 76 162 134 c 128,-1,2
 232 192 232 192 298 198 c 1,3,4
 241 225 241 225 193.5 285.5 c 128,-1,5
 146 346 146 346 146 387 c 0,6,7
 146 400 146 400 150 408.5 c 128,-1,8
 154 417 154 417 162 420 c 1,9,10
 162 357 162 357 238.5 287 c 128,-1,11
 315 217 315 217 407 217 c 1,12,13
 404 205 404 205 388.5 194.5 c 128,-1,14
 373 184 373 184 354 184 c 0,15,16
 262 184 262 184 185.5 122 c 128,-1,17
 109 60 109 60 109 5 c 1,18,19
 92 8 92 8 92 37 c 0,0,1
EndSplineSet
EndChar

StartChar: question
Encoding: 63 63 34
Width: 579
GlyphClass: 2
Flags: W
LayerCount: 2
Fore
SplineSet
190 72 m 0,0,1
 214 72 214 72 214 41 c 128,-1,2
 214 10 214 10 185 -9 c 0,3,4
 171 -19 171 -19 160 -19 c 0,5,6
 144 -19 144 -19 140 -6 c 1,7,8
 154 -6 154 -6 158 33 c 0,9,10
 159 48 159 48 167 60 c 128,-1,11
 175 72 175 72 190 72 c 0,0,1
216 161 m 0,12,13
 216 148 216 148 196.5 148 c 128,-1,14
 177 148 177 148 177 161 c 0,15,16
 177 252 177 252 282 354 c 0,17,18
 325 397 325 397 368.5 440.5 c 128,-1,19
 412 484 412 484 442.5 541 c 128,-1,20
 473 598 473 598 473 660 c 0,21,22
 473 751 473 751 386 751 c 0,23,24
 311 751 311 751 270 670 c 1,25,26
 247 622 247 622 247 577 c 0,27,28
 247 559 247 559 251 541 c 0,29,30
 262 489 262 489 301 489 c 1,31,32
 301 475 301 475 279 475 c 0,33,34
 217 475 217 475 199 536 c 0,35,36
 193 556 193 556 193 576 c 0,37,38
 193 621 193 621 220 670 c 0,39,40
 279 776 279 776 401 776 c 0,41,42
 469 776 469 776 504 743.5 c 128,-1,43
 539 711 539 711 539 660.5 c 128,-1,44
 539 610 539 610 521 568.5 c 128,-1,45
 503 527 503 527 474.5 494 c 128,-1,46
 446 461 446 461 412 429 c 128,-1,47
 378 397 378 397 343.5 366 c 128,-1,48
 309 335 309 335 280 304 c 0,49,50
 216 234 216 234 216 161 c 0,12,13
EndSplineSet
EndChar

StartChar: at
Encoding: 64 64 35
Width: 793
GlyphClass: 2
Flags: W
LayerCount: 2
Fore
SplineSet
295 98 m 0,0,1
 231 98 231 98 231 187 c 0,2,3
 231 245 231 245 265 308 c 0,4,5
 317 402 317 402 393 402 c 0,6,7
 413 402 413 402 424.5 390.5 c 128,-1,8
 436 379 436 379 436 370 c 128,-1,9
 436 361 436 361 430 358 c 128,-1,10
 424 355 424 355 418.5 355.5 c 128,-1,11
 413 356 413 356 413 360 c 0,12,13
 413 377 413 377 393 377 c 0,14,15
 352 377 352 377 318 311 c 0,16,17
 283 241 283 241 283 186 c 128,-1,18
 283 131 283 131 300 123 c 1,19,20
 320 123 320 123 347 163 c 0,21,22
 387 221 387 221 407 263 c 2,23,-1
 443 337 l 1,24,25
 450 354 450 354 455.5 356.5 c 128,-1,26
 461 359 461 359 466 359 c 0,27,28
 477 359 477 359 481.5 345 c 128,-1,29
 486 331 486 331 481 305.5 c 128,-1,30
 476 280 476 280 473 265 c 128,-1,31
 470 250 470 250 466 223 c 128,-1,32
 462 196 462 196 462 180.5 c 128,-1,33
 462 165 462 165 464 148 c 0,34,35
 468 115 468 115 495 115 c 0,36,37
 560 115 560 115 598 216 c 0,38,39
 615 261 615 261 615 311 c 128,-1,40
 615 361 615 361 590 416 c 0,41,42
 544 516 544 516 398.5 516 c 128,-1,43
 253 516 253 516 167 395 c 1,44,45
 103 303 103 303 103 190 c 0,46,47
 103 58 103 58 181 -5 c 0,48,49
 227 -42 227 -42 293 -42 c 0,50,51
 364 -42 364 -42 402 -12 c 1,52,53
 434 15 434 15 441 35 c 2,54,-1
 444 44 l 1,55,-1
 460 43 l 1,56,57
 456 27 456 27 443 7 c 128,-1,58
 430 -13 430 -13 412.5 -27 c 128,-1,59
 395 -41 395 -41 361.5 -52.5 c 128,-1,60
 328 -64 328 -64 285 -64 c 0,61,62
 144 -64 144 -64 85 43 c 0,63,64
 53 101 53 101 53 158 c 128,-1,65
 53 215 53 215 66 264 c 0,66,67
 101 394 101 394 205 471 c 1,68,69
 296 537 296 537 416 537 c 0,70,71
 573 537 573 537 624 423 c 0,72,73
 644 378 644 378 644 329.5 c 128,-1,74
 644 281 644 281 627 230 c 0,75,76
 597 140 597 140 538 108 c 0,77,78
 516 96 516 96 493 96 c 0,79,80
 415 96 415 96 415 190 c 0,81,82
 415 211 415 211 419 236 c 1,83,84
 343 98 343 98 295 98 c 0,0,1
EndSplineSet
EndChar

StartChar: A
Encoding: 65 65 36
Width: 1055
GlyphClass: 2
Flags: W
LayerCount: 2
Fore
SplineSet
1012 818 m 0,0,1
 1020 818 1020 818 1024 813 c 128,-1,2
 1028 808 1028 808 1029 799 c 1,3,4
 925 799 925 799 847 696 c 1,5,6
 899 677 899 677 948 666 c 1,7,8
 1002 736 1002 736 1047 736 c 0,9,10
 1057 736 1057 736 1064 730.5 c 128,-1,11
 1071 725 1071 725 1074 714 c 1,12,13
 1035 714 1035 714 993 659 c 1,14,15
 1000 658 1000 658 1014 658 c 0,16,17
 1113 658 1113 658 1153 717 c 1,18,19
 1170 740 1170 740 1170 756 c 0,20,21
 1170 801 1170 801 1130 801 c 1,22,23
 1139 815 1139 815 1159 815 c 0,24,25
 1198 815 1198 815 1210 776 c 0,26,27
 1213 764 1213 764 1213 753 c 0,28,29
 1213 720 1213 720 1185 688 c 0,30,31
 1136 634 1136 634 1034 634 c 0,32,33
 1004 634 1004 634 980 638 c 1,34,35
 913 531 913 531 872 334 c 0,36,37
 843 197 843 197 843 104 c 0,38,39
 843 64 843 64 848 32 c 1,40,41
 905 76 905 76 957 143 c 128,-1,42
 1009 210 1009 210 1032 255 c 2,43,-1
 1055 300 l 1,44,-1
 1082 300 l 1,45,46
 1074 279 1074 279 1047.5 233.5 c 128,-1,47
 1021 188 1021 188 996.5 153.5 c 128,-1,48
 972 119 972 119 933 77 c 128,-1,49
 894 35 894 35 854 6 c 1,50,51
 867 -32 867 -32 891 -32 c 1,52,53
 881 -52 881 -52 862 -52 c 0,54,55
 830 -52 830 -52 809 -22 c 1,56,57
 737 -59 737 -59 669 -59 c 0,58,59
 570 -59 570 -59 498 -7 c 1,60,61
 393 -127 393 -127 245 -127 c 128,-1,62
 97 -127 97 -127 30 -22 c 0,63,64
 -7 37 -7 37 -7 105 c 0,65,66
 -7 133 -7 133 -1 162 c 0,67,68
 20 259 20 259 94 300 c 0,69,70
 133 322 133 322 181 322 c 0,71,72
 284 322 284 322 320 242 c 0,73,74
 335 209 335 209 335 174.5 c 128,-1,75
 335 140 335 140 321 105 c 0,76,77
 287 21 287 21 210 21 c 0,78,79
 198 21 198 21 190 26.5 c 128,-1,80
 182 32 182 32 178 43 c 1,81,82
 205 43 205 43 229 57 c 0,83,84
 269 81 269 81 292 144 c 1,85,86
 298 165 298 165 298 178.5 c 128,-1,87
 298 192 298 192 296 209.5 c 128,-1,88
 294 227 294 227 283 250 c 128,-1,89
 272 273 272 273 245 287 c 128,-1,90
 218 301 218 301 181 301 c 0,91,92
 86 301 86 301 41 217 c 0,93,94
 15 169 15 169 15 126 c 128,-1,95
 15 83 15 83 24 49 c 0,96,97
 50 -46 50 -46 133 -82 c 0,98,99
 172 -99 172 -99 219 -99 c 0,100,101
 354 -99 354 -99 463 23 c 1,102,103
 415 74 415 74 397 146 c 0,104,105
 386 188 386 188 386 221 c 0,106,107
 386 325 386 325 446 386 c 0,108,109
 490 430 490 430 553.5 430 c 128,-1,110
 617 430 617 430 668 399 c 1,111,112
 757 606 757 606 812 686 c 1,113,114
 805 688 805 688 760.5 705 c 128,-1,115
 716 722 716 722 704 726 c 2,116,-1
 656 742 l 2,117,118
 572 770 572 770 508 770 c 0,119,120
 378 770 378 770 316 672 c 1,121,122
 280 617 280 617 280 558 c 0,123,124
 280 541 280 541 284 523 c 0,125,126
 295 458 295 458 342 445 c 0,127,128
 351 442 351 442 361 442 c 1,129,130
 355 420 355 420 328 420 c 0,131,132
 267 420 267 420 242 485 c 0,133,134
 230 516 230 516 230 554 c 128,-1,135
 230 592 230 592 250 639 c 0,136,137
 292 740 292 740 398 777 c 0,138,139
 448 794 448 794 491.5 794 c 128,-1,140
 535 794 535 794 563.5 789.5 c 128,-1,141
 592 785 592 785 632 772.5 c 128,-1,142
 672 760 672 760 690.5 754 c 128,-1,143
 709 748 709 748 762.5 727.5 c 128,-1,144
 816 707 816 707 824 704 c 1,145,146
 910 818 910 818 1012 818 c 0,0,1
797 -1 m 1,147,148
 780 39 780 39 780 96.5 c 128,-1,149
 780 154 780 154 756 229.5 c 128,-1,150
 732 305 732 305 686 353 c 1,151,152
 595 113 595 113 516 13 c 1,153,154
 578 -36 578 -36 668 -36 c 0,155,156
 732 -36 732 -36 797 -1 c 1,147,148
658 377 m 1,157,158
 620 404 620 404 569.5 404 c 128,-1,159
 519 404 519 404 480 366 c 1,160,161
 424 309 424 309 424 217 c 0,162,163
 424 115 424 115 481 46 c 1,164,165
 545 128 545 128 604 255 c 0,166,167
 625 302 625 302 658 377 c 1,157,158
788 218 m 1,168,169
 804 336 804 336 844 453.5 c 128,-1,170
 884 571 884 571 935 647 c 1,171,172
 893 657 893 657 834 678 c 1,173,174
 787 608 787 608 740 493 c 0,175,176
 726 457 726 457 696 378 c 1,177,178
 758 323 758 323 788 218 c 1,168,169
EndSplineSet
EndChar

StartChar: B
Encoding: 66 66 37
Width: 903
GlyphClass: 2
Flags: W
LayerCount: 2
Fore
SplineSet
665 451 m 1,0,1
 766 363 766 363 766 202 c 0,2,3
 766 47 766 47 658 -56 c 0,4,5
 590 -121 590 -121 495.5 -121 c 128,-1,6
 401 -121 401 -121 383 -37 c 0,7,8
 379 -18 379 -18 379 1 c 0,9,10
 379 66 379 66 422 143 c 0,11,12
 477 243 477 243 562 282 c 0,13,14
 602 300 602 300 641 300 c 0,15,16
 647 300 647 300 649 294 c 128,-1,17
 651 288 651 288 648.5 282.5 c 128,-1,18
 646 277 646 277 640 277 c 0,19,20
 549 277 549 277 475 181 c 0,21,22
 407 92 407 92 407 0 c 0,23,24
 407 -72 407 -72 461 -88 c 0,25,26
 473 -91 473 -91 488 -91 c 0,27,28
 540 -91 540 -91 586 -54 c 0,29,30
 673 16 673 16 702 173 c 0,31,32
 707 203 707 203 707 237.5 c 128,-1,33
 707 272 707 272 698 310 c 0,34,35
 683 378 683 378 641 425 c 1,36,37
 540 326 540 326 402 326 c 2,38,-1
 395 326 l 1,39,40
 368 102 368 102 302 18 c 1,41,42
 274 -16 274 -16 230 -39 c 128,-1,43
 186 -62 186 -62 132.5 -62 c 128,-1,44
 79 -62 79 -62 43.5 -44 c 128,-1,45
 8 -26 8 -26 -8 2 c 0,46,47
 -30 43 -30 43 -30 77 c 128,-1,48
 -30 111 -30 111 -20 140.5 c 128,-1,49
 -10 170 -10 170 9 198.5 c 128,-1,50
 28 227 28 227 59 245 c 128,-1,51
 90 263 90 263 126 263 c 0,52,53
 146 263 146 263 154 249 c 1,54,-1
 156 244 l 1,55,56
 69 244 69 244 23 170 c 0,57,58
 -3 128 -3 128 -3 84 c 0,59,60
 -3 64 -3 64 2 43 c 0,61,62
 24 -35 24 -35 112 -35 c 0,63,64
 186 -35 186 -35 228 21 c 1,65,66
 274 80 274 80 294 158 c 0,67,68
 316 240 316 240 332 336 c 1,69,70
 280 353 280 353 264 391 c 0,71,72
 258 405 258 405 258 424 c 128,-1,73
 258 443 258 443 276 466 c 1,74,75
 303 504 303 504 364 519 c 1,76,77
 383 607 383 607 411 653.5 c 128,-1,78
 439 700 439 700 486 700 c 0,79,80
 500 700 500 700 504 688 c 2,81,-1
 506 683 l 1,82,83
 468 683 468 683 448 642.5 c 128,-1,84
 428 602 428 602 417 526 c 1,85,86
 423 527 423 527 436 527 c 0,87,88
 544 527 544 527 624 481 c 1,89,90
 677 560 677 560 677 639 c 0,91,92
 677 697 677 697 637.5 744 c 128,-1,93
 598 791 598 791 508 791 c 0,94,95
 326 791 326 791 220 660 c 0,96,97
 139 561 139 561 139 444 c 0,98,99
 139 361 139 361 186 329 c 0,100,101
 206 315 206 315 233 315 c 1,102,103
 223 292 223 292 202 292 c 0,104,105
 128 292 128 292 102 369 c 0,106,107
 90 403 90 403 90 450.5 c 128,-1,108
 90 498 90 498 117 564 c 0,109,110
 169 695 169 695 292 763 c 0,111,112
 387 816 387 816 508 816 c 0,113,114
 584 816 584 816 636 792 c 0,115,116
 737 746 737 746 737 631 c 0,117,118
 737 539 737 539 665 451 c 1,0,1
436 504 m 1,120,121
 436 504 436 504 414 503 c 1,122,123
 405 423 405 423 398 352 c 1,124,-1
 401 352 l 2,125,126
 523 352 523 352 606 456 c 1,127,119
 540 504 540 504 436 504 c 1,120,121
359 492 m 1,128,129
 287 468 287 468 287 417 c 0,130,131
 287 380 287 380 336 362 c 1,132,133
 352 460 352 460 359 492 c 1,128,129
EndSplineSet
EndChar

StartChar: C
Encoding: 67 67 38
Width: 709
GlyphClass: 2
Flags: W
LayerCount: 2
Fore
SplineSet
181 914 m 0,0,1
 105 914 105 914 44 878 c 0,2,3
 -69 810 -69 810 -89 664 c 0,4,5
 -92 641 -92 641 -92 608 c 128,-1,6
 -92 575 -92 575 -80 534 c 0,7,8
 -63 473 -63 473 -13.5 424 c 128,-1,9
 36 375 36 375 110 357 c 1,10,11
 141 471 141 471 204 570.5 c 128,-1,12
 267 670 267 670 363 736.5 c 128,-1,13
 459 803 459 803 565 803 c 0,14,15
 657 803 657 803 677 729 c 0,16,17
 683 710 683 710 683 689 c 0,18,19
 683 628 683 628 637 554 c 1,20,21
 565 435 565 435 427 373 c 0,22,23
 319 324 319 324 194 324 c 2,24,-1
 174 324 l 1,25,26
 153 250 153 250 153 181 c 0,27,28
 153 51 153 51 219 1 c 1,29,30
 228 83 228 83 261 155 c 128,-1,31
 294 227 294 227 352.5 276 c 128,-1,32
 411 325 411 325 482 325 c 0,33,34
 564 325 564 325 584 252 c 0,35,36
 589 232 589 232 589 211 c 0,37,38
 589 156 589 156 554 93 c 0,39,40
 499 -4 499 -4 401 -39 c 1,41,42
 330 -63 330 -63 260 -47 c 1,43,44
 259 -60 259 -60 259 -73 c 0,45,46
 259 -146 259 -146 290 -196 c 1,47,48
 325 -255 325 -255 404 -255 c 1,49,50
 401 -274 401 -274 371 -274 c 0,51,52
 291 -274 291 -274 253.5 -208 c 128,-1,53
 216 -142 216 -142 216 -52 c 0,54,55
 216 -42 216 -42 216 -33 c 1,56,57
 130 4 130 4 102 109 c 0,58,59
 88 159 88 159 88 215 c 128,-1,60
 88 271 88 271 104 334 c 1,61,62
 34 350 34 350 -17 392 c 128,-1,63
 -68 434 -68 434 -90 488 c 0,64,65
 -119 559 -119 559 -119 619 c 128,-1,66
 -119 679 -119 679 -100 732 c 128,-1,67
 -81 785 -81 785 -45.5 832.5 c 128,-1,68
 -10 880 -10 880 50 909.5 c 128,-1,69
 110 939 110 939 182 939 c 0,70,71
 324 939 324 939 376 829 c 0,72,73
 382 817 382 817 362 813 c 1,74,75
 338 811 338 811 332 824 c 1,76,77
 302 914 302 914 181 914 c 0,0,1
552 777 m 0,78,79
 495 777 495 777 436.5 739.5 c 128,-1,80
 378 702 378 702 330 641 c 0,81,82
 228 511 228 511 181 348 c 1,83,-1
 195 348 l 2,84,85
 391 348 391 348 525 473 c 0,86,87
 614 556 614 556 634 652 c 0,88,89
 638 673 638 673 638 690 c 0,90,91
 638 742 638 742 600 765 c 0,92,93
 581 777 581 777 552 777 c 0,78,79
491 298 m 0,94,95
 410 298 410 298 343.5 199 c 128,-1,96
 277 100 277 100 262 -21 c 1,97,98
 288 -29 288 -29 317 -29 c 0,99,100
 427 -29 427 -29 502 67 c 0,101,102
 561 141 561 141 561 213 c 128,-1,103
 561 285 561 285 509 296 c 0,104,105
 501 298 501 298 491 298 c 0,94,95
EndSplineSet
EndChar

StartChar: D
Encoding: 68 68 39
Width: 880
GlyphClass: 2
Flags: W
LayerCount: 2
Fore
SplineSet
37 91 m 0,0,1
 48 91 48 91 59.5 89.5 c 128,-1,2
 71 88 71 88 79 87 c 128,-1,3
 87 86 87 86 101 81.5 c 128,-1,4
 115 77 115 77 120.5 75.5 c 128,-1,5
 126 74 126 74 142.5 67.5 c 128,-1,6
 159 61 159 61 162 59.5 c 128,-1,7
 165 58 165 58 184.5 50 c 128,-1,8
 204 42 204 42 205 41 c 1,9,10
 254 97 254 97 288 215 c 1,11,12
 139 225 139 225 74 335 c 0,13,14
 39 396 39 396 39 467 c 0,15,16
 39 508 39 508 50 552 c 0,17,18
 84 677 84 677 191 748 c 0,19,20
 284 809 284 809 409 809 c 0,21,22
 497 809 497 809 566.5 780 c 128,-1,23
 636 751 636 751 677.5 702.5 c 128,-1,24
 719 654 719 654 744 591 c 0,25,26
 770 525 770 525 770 454 c 128,-1,27
 770 383 770 383 758.5 315.5 c 128,-1,28
 747 248 747 248 714.5 185 c 128,-1,29
 682 122 682 122 640 73.5 c 128,-1,30
 598 25 598 25 538.5 -4 c 128,-1,31
 479 -33 479 -33 404 -33 c 128,-1,32
 329 -33 329 -33 239 2 c 1,33,34
 182 -41 182 -41 101 -41 c 0,35,36
 -6 -41 -6 -41 -35 9 c 0,37,38
 -42 22 -42 22 -42 37.5 c 128,-1,39
 -42 53 -42 53 -22 72 c 128,-1,40
 -2 91 -2 91 37 91 c 0,0,1
260 19 m 1,41,42
 335 -7 335 -7 399 -7 c 128,-1,43
 463 -7 463 -7 511 20 c 128,-1,44
 559 47 559 47 594 93 c 128,-1,45
 629 139 629 139 657 198.5 c 128,-1,46
 685 258 685 258 696 323.5 c 128,-1,47
 707 389 707 389 707 454.5 c 128,-1,48
 707 520 707 520 686.5 579.5 c 128,-1,49
 666 639 666 639 631 685 c 128,-1,50
 596 731 596 731 536 758 c 128,-1,51
 476 785 476 785 399 785 c 0,52,53
 235 785 235 785 148 669 c 0,54,55
 87 589 87 589 87 489 c 0,56,57
 87 353 87 353 180 283 c 0,58,59
 230 246 230 246 295 239 c 1,60,61
 307 287 307 287 323.5 368.5 c 128,-1,62
 340 450 340 450 352 502.5 c 128,-1,63
 364 555 364 555 382 610 c 0,64,65
 419 721 419 721 493 721 c 0,66,67
 507 721 507 721 512 708 c 1,68,-1
 513 704 l 1,69,70
 449 704 449 704 424 600 c 0,71,72
 411 549 411 549 403.5 496 c 128,-1,73
 396 443 396 443 385.5 367.5 c 128,-1,74
 375 292 375 292 363 240 c 1,75,76
 433 250 433 250 480.5 293 c 128,-1,77
 528 336 528 336 547 397 c 0,78,79
 548 402 548 402 553.5 403 c 128,-1,80
 559 404 559 404 562.5 401 c 128,-1,81
 566 398 566 398 565 392 c 0,82,83
 543 324 543 324 490 276 c 128,-1,84
 437 228 437 228 357 217 c 1,85,86
 325 82 325 82 260 19 c 1,41,42
-12 30 m 0,87,88
 -12 11 -12 11 15 -1.5 c 128,-1,89
 42 -14 42 -14 92 -14 c 128,-1,90
 142 -14 142 -14 187 23 c 1,91,92
 87 66 87 66 43.5 66 c 128,-1,93
 0 66 0 66 -10 41 c 0,94,95
 -12 35 -12 35 -12 30 c 0,87,88
EndSplineSet
EndChar

StartChar: E
Encoding: 69 69 40
Width: 706
GlyphClass: 2
Flags: W
LayerCount: 2
Fore
SplineSet
279 939 m 0,0,1
 285 939 285 939 288.5 934.5 c 128,-1,2
 292 930 292 930 292 926 c 2,3,-1
 292 922 l 1,4,5
 227 922 227 922 180 884 c 0,6,7
 114 830 114 830 114 754 c 0,8,9
 114 721 114 721 128 688 c 0,10,11
 150 634 150 634 209 605 c 1,12,13
 233 694 233 694 308.5 757.5 c 128,-1,14
 384 821 384 821 494 821 c 0,15,16
 577 821 577 821 600 765 c 0,17,18
 607 748 607 748 607 730 c 0,19,20
 607 693 607 693 577 652 c 0,21,22
 503 554 503 554 340 554 c 0,23,24
 290 554 290 554 253 563 c 1,25,26
 250 544 250 544 250 523 c 128,-1,27
 250 502 250 502 257 481 c 1,28,29
 318 503 318 503 386.5 503 c 128,-1,30
 455 503 455 503 470 468 c 0,31,32
 473 460 473 460 473 453 c 0,33,34
 473 432 473 432 441 411 c 128,-1,35
 409 390 409 390 342 390 c 128,-1,36
 275 390 275 390 234 436 c 1,37,38
 145 379 145 379 103 268 c 0,39,40
 75 194 75 194 75 124 c 0,41,42
 75 89 75 89 82 56 c 0,43,44
 103 -46 103 -46 180 -81 c 1,45,46
 180 -78 180 -78 180 -75 c 0,47,48
 180 18 180 18 210.5 107 c 128,-1,49
 241 196 241 196 307 260.5 c 128,-1,50
 373 325 373 325 459 325 c 128,-1,51
 545 325 545 325 570 247 c 0,52,53
 579 219 579 219 579 189 c 0,54,55
 579 134 579 134 549 69 c 0,56,57
 497 -42 497 -42 392 -92 c 0,58,59
 328 -122 328 -122 254 -122 c 0,60,61
 242 -122 242 -122 222 -120 c 1,62,63
 225 -202 225 -202 259 -253 c 128,-1,64
 293 -304 293 -304 357 -304 c 1,65,66
 353 -321 353 -321 332 -321 c 0,67,68
 265 -321 265 -321 226.5 -263 c 128,-1,69
 188 -205 188 -205 182 -113 c 1,70,71
 110 -95 110 -95 66 -42 c 0,72,73
 12 22 12 22 12 121 c 0,74,75
 12 172 12 172 27 234.5 c 128,-1,76
 42 297 42 297 93 362.5 c 128,-1,77
 144 428 144 428 216 464 c 1,78,79
 200 498 200 498 200 528.5 c 128,-1,80
 200 559 200 559 203 580 c 1,81,82
 158 601 158 601 130 636 c 0,83,84
 92 685 92 685 92 745 c 0,85,86
 92 812 92 812 130 866 c 1,87,88
 154 898 154 898 193 918.5 c 128,-1,89
 232 939 232 939 279 939 c 0,0,1
467 301 m 0,90,91
 400 301 400 301 342.5 238.5 c 128,-1,92
 285 176 285 176 254.5 86 c 128,-1,93
 224 -4 224 -4 222 -93 c 1,94,95
 236 -96 236 -96 252 -96 c 0,96,97
 398 -96 398 -96 485 17 c 0,98,99
 549 100 549 100 549 186 c 128,-1,100
 549 272 549 272 499 294 c 0,101,102
 485 301 485 301 467 301 c 0,90,91
339 579 m 0,103,104
 455 579 455 579 521 651 c 0,105,106
 560 693 560 693 560 733 c 0,107,108
 560 742 560 742 559 750 c 1,109,110
 547 797 547 797 487 798 c 1,111,112
 405 798 405 798 341.5 734 c 128,-1,113
 278 670 278 670 258 587 c 1,114,115
 295 579 295 579 339 579 c 0,103,104
386 481 m 0,116,117
 324 481 324 481 269 456 c 1,118,119
 296 414 296 414 359.5 414 c 128,-1,120
 423 414 423 414 441 442 c 0,121,122
 445 449 445 449 445 454 c 0,123,124
 445 467 445 467 427.5 474 c 128,-1,125
 410 481 410 481 386 481 c 0,116,117
EndSplineSet
EndChar

StartChar: F
Encoding: 70 70 41
Width: 702
GlyphClass: 2
Flags: W
LayerCount: 2
Fore
SplineSet
370 348 m 1,0,1
 342 354 342 354 324 367 c 1,2,-1
 324 386 l 1,3,4
 344 373 344 373 373 367 c 1,5,6
 403 551 403 551 418 586 c 128,-1,7
 433 621 433 621 448 647 c 0,8,9
 478 696 478 696 529 696 c 0,10,11
 543 696 543 696 548 684 c 1,12,-1
 549 679 l 1,13,14
 525 679 525 679 507 663 c 128,-1,15
 489 647 489 647 478.5 624 c 128,-1,16
 468 601 468 601 460 560 c 0,17,18
 447 495 447 495 442 442 c 128,-1,19
 437 389 437 389 437 386 c 0,20,21
 437 375 437 375 435 365 c 1,22,23
 478 371 478 371 512 388 c 1,24,25
 518 449 518 449 545 495.5 c 128,-1,26
 572 542 572 542 613 542 c 0,27,28
 638 542 638 542 638 515 c 0,29,30
 638 462 638 462 578 409 c 0,31,32
 565 397 565 397 550 387 c 1,33,34
 547 366 547 366 547 349 c 0,35,36
 547 275 547 275 583 275 c 1,37,38
 582 263 582 263 566 263 c 0,39,40
 539 263 539 263 525 292 c 128,-1,41
 511 321 511 321 511 366 c 1,42,43
 475 350 475 350 433 346 c 1,44,45
 408 133 408 133 369 59 c 0,46,47
 350 23 350 23 323 -10 c 0,48,49
 270 -75 270 -75 166 -75 c 0,50,51
 115 -75 115 -75 78.5 -55.5 c 128,-1,52
 42 -36 42 -36 26 -4 c 0,53,54
 6 37 6 37 6 74 c 128,-1,55
 6 111 6 111 17 144.5 c 128,-1,56
 28 178 28 178 47.5 209.5 c 128,-1,57
 67 241 67 241 99 260.5 c 128,-1,58
 131 280 131 280 167 280 c 0,59,60
 186 280 186 280 194 266 c 2,61,-1
 197 261 l 1,62,63
 113 261 113 261 64 184 c 0,64,65
 32 133 32 133 32 79 c 0,66,67
 32 62 32 62 36 44 c 0,68,69
 50 -29 50 -29 116 -44 c 0,70,71
 132 -48 132 -48 159 -48 c 128,-1,72
 186 -48 186 -48 216 -33.5 c 128,-1,73
 246 -19 246 -19 268 12.5 c 128,-1,74
 290 44 290 44 305.5 76 c 128,-1,75
 321 108 321 108 334 160 c 0,76,77
 352 238 352 238 370 348 c 1,0,1
769 816 m 0,78,79
 802 816 802 816 802 777 c 0,80,81
 802 747 802 747 770.5 721.5 c 128,-1,82
 739 696 739 696 671.5 696 c 128,-1,83
 604 696 604 696 488 733 c 128,-1,84
 372 770 372 770 312 770 c 0,85,86
 183 770 183 770 111 667 c 0,87,88
 62 597 62 597 62 517 c 0,89,90
 62 403 62 403 140 366 c 0,91,92
 167 353 167 353 201 353 c 1,93,94
 201 346 201 346 193 338 c 128,-1,95
 185 330 185 330 175 330 c 0,96,97
 70 330 70 330 29 417 c 0,98,99
 10 458 10 458 10 503 c 128,-1,100
 10 548 10 548 28 598 c 0,101,102
 67 706 67 706 167 758 c 0,103,104
 232 791 232 791 304.5 791 c 128,-1,105
 377 791 377 791 484.5 758.5 c 128,-1,106
 592 726 592 726 649 726 c 0,107,108
 735 726 735 726 748 766 c 0,109,110
 755 785 755 785 744 791 c 0,111,112
 742 792 742 792 741 792 c 1,113,114
 747 816 747 816 769 816 c 0,78,79
612 523 m 0,115,116
 595 523 595 523 579 491.5 c 128,-1,117
 563 460 563 460 554 415 c 1,118,119
 604 455 604 455 617 501 c 0,120,121
 619 509 619 509 619 516 c 128,-1,122
 619 523 619 523 612 523 c 0,115,116
EndSplineSet
EndChar

StartChar: G
Encoding: 71 71 42
Width: 760
GlyphClass: 2
Flags: W
LayerCount: 2
Fore
SplineSet
288 415 m 1,0,1
 249 285 249 285 249 208 c 0,2,3
 249 27 249 27 353 27 c 0,4,5
 418 27 418 27 488 107 c 1,6,7
 502 186 502 186 507 217.5 c 128,-1,8
 512 249 512 249 518.5 281.5 c 128,-1,9
 525 314 525 314 530 332.5 c 128,-1,10
 535 351 535 351 542 375 c 128,-1,11
 549 399 549 399 557 412 c 128,-1,12
 565 425 565 425 575 438 c 0,13,14
 593 462 593 462 623 462 c 0,15,16
 658 462 658 462 658 414 c 0,17,18
 658 397 658 397 654 375 c 0,19,20
 633 264 633 264 549 144 c 1,21,22
 525 -66 525 -66 474 -182 c 0,23,24
 424 -296 424 -296 352 -351 c 0,25,26
 264 -419 264 -419 136 -419 c 0,27,28
 -13 -419 -13 -419 -73 -316 c 0,29,30
 -102 -266 -102 -266 -102 -220.5 c 128,-1,31
 -102 -175 -102 -175 -91 -139 c 0,32,33
 -65 -49 -65 -49 8 -12 c 0,34,35
 43 5 43 5 83 5 c 0,36,37
 189 5 189 5 228 -77 c 0,38,39
 245 -113 245 -113 245 -146 c 128,-1,40
 245 -179 245 -179 233 -209 c 0,41,42
 207 -278 207 -278 148 -278 c 0,43,44
 139 -278 139 -278 132 -273 c 128,-1,45
 125 -268 125 -268 121 -259 c 1,46,47
 166 -259 166 -259 191 -198 c 0,48,49
 203 -168 203 -168 203 -137.5 c 128,-1,50
 203 -107 203 -107 189 -75 c 0,51,52
 162 -14 162 -14 80 -14 c 128,-1,53
 -2 -14 -2 -14 -49 -93 c 0,54,55
 -81 -146 -81 -146 -81 -204 c 0,56,57
 -81 -228 -81 -228 -75 -253 c 0,58,59
 -54 -347 -54 -347 33 -380 c 0,60,61
 72 -395 72 -395 132 -395 c 128,-1,62
 192 -395 192 -395 248.5 -367.5 c 128,-1,63
 305 -340 305 -340 341.5 -298.5 c 128,-1,64
 378 -257 378 -257 406.5 -192.5 c 128,-1,65
 435 -128 435 -128 451 -70 c 128,-1,66
 467 -12 467 -12 481 65 c 1,67,68
 413 2 413 2 351.5 2 c 128,-1,69
 290 2 290 2 249.5 38.5 c 128,-1,70
 209 75 209 75 198 126 c 128,-1,71
 187 177 187 177 187 225 c 0,72,73
 187 319 187 319 220 424 c 1,74,75
 162 438 162 438 124.5 475.5 c 128,-1,76
 87 513 87 513 76.5 551 c 128,-1,77
 66 589 66 589 66 614 c 0,78,79
 66 751 66 751 161 812 c 0,80,81
 202 839 202 839 252 839 c 0,82,83
 267 839 267 839 268 827 c 1,84,-1
 269 823 l 1,85,86
 220 823 220 823 180 799 c 0,87,88
 103 753 103 753 88 655 c 0,89,90
 86 638 86 638 86 616.5 c 128,-1,91
 86 595 86 595 95 561 c 128,-1,92
 104 527 104 527 139 493.5 c 128,-1,93
 174 460 174 460 227 447 c 1,94,95
 280 600 280 600 376 706.5 c 128,-1,96
 472 813 472 813 582 813 c 0,97,98
 665 813 665 813 665 726 c 0,99,100
 665 664 665 664 614 589 c 0,101,102
 541 480 541 480 420 436 c 0,103,104
 360 415 360 415 296 415 c 2,105,-1
 288 415 l 1,0,1
571 790 m 0,106,107
 495 790 495 790 419.5 687 c 128,-1,108
 344 584 344 584 296 439 c 1,109,-1
 297 439 l 2,110,111
 443 439 443 439 545 549 c 1,112,113
 626 638 626 638 626 727 c 0,114,115
 626 776 626 776 589 788 c 0,116,117
 581 790 581 790 571 790 c 0,106,107
618 431 m 0,118,119
 593 431 593 431 581 382 c 128,-1,120
 569 333 569 333 563 272.5 c 128,-1,121
 557 212 557 212 556 204 c 1,122,123
 618 312 618 312 629 391 c 0,124,125
 631 401 631 401 631 408 c 0,126,127
 631 431 631 431 618 431 c 0,118,119
EndSplineSet
EndChar

StartChar: H
Encoding: 72 72 43
Width: 861
GlyphClass: 2
Flags: W
LayerCount: 2
Fore
SplineSet
241 637 m 1,0,-1
 412 626 l 1,1,2
 460 735 460 735 535 735 c 0,3,4
 549 735 549 735 554 722 c 1,5,-1
 555 718 l 1,6,7
 494 718 494 718 459 629 c 1,8,9
 560 645 560 645 601 715 c 0,10,11
 617 743 617 743 617 760 c 0,12,13
 617 800 617 800 589 800 c 1,14,15
 595 817 595 817 613 817 c 0,16,17
 647 817 647 817 647 770.5 c 128,-1,18
 647 724 647 724 610 680 c 0,19,20
 556 615 556 615 450 604 c 1,21,22
 428 532 428 532 414 424 c 128,-1,23
 400 316 400 316 398 303 c 1,24,25
 436 330 436 330 529 392 c 128,-1,26
 622 454 622 454 650 473 c 1,27,28
 695 636 695 636 766.5 743 c 128,-1,29
 838 850 838 850 917 850 c 0,30,31
 944 850 944 850 959.5 833 c 128,-1,32
 975 816 975 816 975 789 c 0,33,34
 975 716 975 716 905 640 c 128,-1,35
 835 564 835 564 710 476 c 1,36,37
 665 295 665 295 665 126 c 0,38,39
 665 -24 665 -24 708 -98 c 0,40,41
 742 -156 742 -156 800 -156 c 1,42,43
 794 -176 794 -176 772 -176 c 0,44,45
 705 -176 705 -176 664 -122 c 0,46,47
 602 -42 602 -42 602 136 c 0,48,49
 602 274 602 274 638 426 c 1,50,51
 412 276 412 276 393 263 c 1,52,53
 363 62 363 62 316 -11 c 1,54,55
 271 -79 271 -79 202 -79 c 0,56,57
 170 -79 170 -79 151 -57 c 128,-1,58
 132 -35 132 -35 132 2 c 0,59,60
 132 103 132 103 325 249 c 1,61,62
 368 514 368 514 402 602 c 1,63,-1
 253 613 l 1,64,65
 132 613 132 613 80 521 c 0,66,67
 55 475 55 475 55 429 c 0,68,69
 55 405 55 405 61 382 c 0,70,71
 80 311 80 311 136 311 c 1,72,73
 136 303 136 303 128.5 296 c 128,-1,74
 121 289 121 289 109 289 c 0,75,76
 45 289 45 289 20 355 c 0,77,78
 9 384 9 384 9 421 c 128,-1,79
 9 458 9 458 30 505 c 0,80,81
 71 599 71 599 168 627 c 0,82,83
 202 637 202 637 241 637 c 1,0,-1
949 790 m 0,84,85
 949 828 949 828 917 828 c 0,86,87
 865 828 865 828 813.5 743.5 c 128,-1,88
 762 659 762 659 724 525 c 1,89,90
 831 603 831 603 890 667.5 c 128,-1,91
 949 732 949 732 949 790 c 0,84,85
158 1 m 0,92,93
 158 -54 158 -54 200.5 -54 c 128,-1,94
 243 -54 243 -54 269 13 c 128,-1,95
 295 80 295 80 318 209 c 1,96,97
 158 85 158 85 158 1 c 0,92,93
EndSplineSet
EndChar

StartChar: I
Encoding: 73 73 44
Width: 720
GlyphClass: 2
Flags: W
LayerCount: 2
Fore
SplineSet
218 -113 m 0,0,1
 69 -113 69 -113 8 -9 c 0,2,3
 -39 72 -39 72 -13 166 c 128,-1,4
 13 260 13 260 85 297 c 0,5,6
 119 314 119 314 159 314 c 0,7,8
 265 314 265 314 304 232 c 0,9,10
 321 196 321 196 321 163 c 128,-1,11
 321 130 321 130 309 100 c 0,12,13
 283 31 283 31 224 31 c 0,14,15
 206 31 206 31 198 45 c 1,16,-1
 196 50 l 1,17,18
 239 50 239 50 263 111 c 0,19,20
 275 141 275 141 275 171.5 c 128,-1,21
 275 202 275 202 262 234 c 0,22,23
 237 295 237 295 157 295 c 128,-1,24
 77 295 77 295 30 217 c 0,25,26
 -1 165 -1 165 -1 107 c 0,27,28
 -1 83 -1 83 4 57 c 0,29,30
 25 -37 25 -37 112 -71 c 0,31,32
 151 -86 151 -86 209 -86 c 128,-1,33
 267 -86 267 -86 317.5 -59.5 c 128,-1,34
 368 -33 368 -33 399.5 14 c 128,-1,35
 431 61 431 61 453 118 c 128,-1,36
 475 175 475 175 489.5 246 c 128,-1,37
 504 317 504 317 514 380 c 0,38,39
 542 559 542 559 565 627 c 1,40,41
 472 634 472 634 468 634 c 0,42,43
 326 634 326 634 269 541 c 0,44,45
 243 499 243 499 243 455 c 0,46,47
 243 434 243 434 249 413 c 0,48,49
 267 353 267 353 315 353 c 1,50,51
 315 345 315 345 307 338 c 128,-1,52
 299 331 299 331 287 331 c 0,53,54
 230 331 230 331 206 390 c 0,55,56
 195 419 195 419 195 453 c 128,-1,57
 195 487 195 487 215 529 c 0,58,59
 259 624 259 624 376 650 c 0,60,61
 413 658 413 658 443.5 658 c 128,-1,62
 474 658 474 658 573 649 c 1,63,64
 618 763 618 763 702 763 c 0,65,66
 709 763 709 763 714.5 758.5 c 128,-1,67
 720 754 720 754 723 746 c 1,68,69
 650 746 650 746 619 646 c 1,70,-1
 639 646 l 2,71,72
 742 646 742 646 783 711 c 0,73,74
 799 736 799 736 799 754 c 0,75,76
 799 801 799 801 766 801 c 1,77,78
 772 819 772 819 789 819 c 0,79,80
 818 819 818 819 828 783 c 0,81,82
 831 770 831 770 831 758 c 0,83,84
 831 722 831 722 803 687 c 0,85,86
 750 623 750 623 638 623 c 2,87,-1
 613 623 l 1,88,89
 595 553 595 553 586 452.5 c 128,-1,90
 577 352 577 352 566.5 286.5 c 128,-1,91
 556 221 556 221 542.5 166 c 128,-1,92
 529 111 529 111 502.5 58 c 128,-1,93
 476 5 476 5 440 -31.5 c 128,-1,94
 404 -68 404 -68 347 -90.5 c 128,-1,95
 290 -113 290 -113 218 -113 c 0,0,1
EndSplineSet
EndChar

StartChar: J
Encoding: 74 74 45
Width: 776
GlyphClass: 2
Flags: W
LayerCount: 2
Fore
SplineSet
813 801 m 1,0,1
 819 819 819 819 836.5 819 c 128,-1,2
 854 819 854 819 865.5 804.5 c 128,-1,3
 877 790 877 790 877 767 c 128,-1,4
 877 744 877 744 864.5 723.5 c 128,-1,5
 852 703 852 703 834.5 689 c 128,-1,6
 817 675 817 675 786 662 c 0,7,8
 743 643 743 643 658 619 c 1,9,10
 634 531 634 531 622.5 406.5 c 128,-1,11
 611 282 611 282 599 199 c 128,-1,12
 587 116 587 116 572 44.5 c 128,-1,13
 557 -27 557 -27 528 -95.5 c 128,-1,14
 499 -164 499 -164 460 -212 c 128,-1,15
 421 -260 421 -260 359.5 -289 c 128,-1,16
 298 -318 298 -318 219 -318 c 0,17,18
 62 -318 62 -318 -5 -207 c 0,19,20
 -40 -149 -40 -149 -40 -80 c 0,21,22
 -40 -47 -40 -47 -32 -12 c 0,23,24
 -8 90 -8 90 68 137 c 0,25,26
 113 165 113 165 166 165 c 0,27,28
 274 165 274 165 314 80 c 0,29,30
 330 44 330 44 330 9.5 c 128,-1,31
 330 -25 330 -25 319 -58 c 0,32,33
 292 -132 292 -132 231 -132 c 0,34,35
 214 -132 214 -132 203 -113 c 1,36,37
 244 -113 244 -113 268 -55 c 0,38,39
 283 -19 283 -19 283 13 c 128,-1,40
 283 45 283 45 274 72 c 0,41,42
 248 146 248 146 167 146 c 0,43,44
 72 146 72 146 18 58 c 0,45,46
 -19 -3 -19 -3 -19 -72 c 0,47,48
 -19 -96 -19 -96 -14 -120 c 0,49,50
 4 -226 4 -226 93 -269 c 0,51,52
 140 -292 140 -292 212 -292 c 128,-1,53
 284 -292 284 -292 345 -245 c 128,-1,54
 406 -198 406 -198 439.5 -126.5 c 128,-1,55
 473 -55 473 -55 498.5 46.5 c 128,-1,56
 524 148 524 148 536 240 c 0,57,58
 571 491 571 491 605 604 c 1,59,60
 422 551 422 551 356 486 c 1,61,62
 329 458 329 458 310 415.5 c 128,-1,63
 291 373 291 373 291 321 c 128,-1,64
 291 269 291 269 317 233 c 128,-1,65
 343 197 343 197 383 197 c 1,66,67
 383 189 383 189 375 182 c 128,-1,68
 367 175 367 175 355 175 c 0,69,70
 306 175 306 175 274.5 217 c 128,-1,71
 243 259 243 259 243 310.5 c 128,-1,72
 243 362 243 362 255.5 398 c 128,-1,73
 268 434 268 434 286.5 460.5 c 128,-1,74
 305 487 305 487 336.5 511 c 128,-1,75
 368 535 368 535 396 551 c 128,-1,76
 424 567 424 567 467 584 c 0,77,78
 531 608 531 608 614 632 c 1,79,80
 661 763 661 763 749 763 c 0,81,82
 756 763 756 763 761.5 758.5 c 128,-1,83
 767 754 767 754 770 746 c 1,84,85
 701 746 701 746 667 648 c 1,86,87
 755 674 755 674 799.5 699 c 128,-1,88
 844 724 844 724 844 763 c 0,89,90
 844 780 844 780 835 790.5 c 128,-1,91
 826 801 826 801 813 801 c 1,0,1
EndSplineSet
EndChar

StartChar: K
Encoding: 75 75 46
Width: 836
GlyphClass: 2
Flags: W
LayerCount: 2
Fore
SplineSet
247 637 m 1,0,-1
 417 626 l 1,1,-1
 420 626 l 1,2,3
 467 735 467 735 541 735 c 0,4,5
 555 735 555 735 560 722 c 1,6,-1
 561 718 l 1,7,8
 500 718 500 718 467 630 c 1,9,10
 566 645 566 645 606 715 c 0,11,12
 622 742 622 742 622 759 c 0,13,14
 622 800 622 800 594 800 c 1,15,16
 601 818 601 818 618 818 c 0,17,18
 652 818 652 818 652 771 c 128,-1,19
 652 724 652 724 615 680 c 1,20,21
 560 617 560 617 459 605 c 1,22,23
 445 559 445 559 433 479 c 1,24,25
 512 462 512 462 557 392 c 1,26,27
 629 452 629 452 712 604 c 0,28,29
 744 662 744 662 778 716 c 0,30,31
 854 836 854 836 938 836 c 0,32,33
 948 836 948 836 953.5 831.5 c 128,-1,34
 959 827 959 827 960 818 c 1,35,36
 868 818 868 818 809 686 c 0,37,38
 783 628 783 628 756.5 566 c 128,-1,39
 730 504 730 504 684.5 443 c 128,-1,40
 639 382 639 382 579 350 c 1,41,42
 611 280 611 280 638 106 c 0,43,44
 647 49 647 49 662 -5 c 0,45,46
 692 -120 692 -120 779 -120 c 1,47,48
 777 -138 777 -138 753 -138 c 0,49,50
 690 -138 690 -138 651.5 -107 c 128,-1,51
 613 -76 613 -76 598 -21 c 128,-1,52
 583 34 583 34 576.5 90.5 c 128,-1,53
 570 147 570 147 563 218.5 c 128,-1,54
 556 290 556 290 543 334 c 1,55,56
 489 313 489 313 415 313 c 2,57,-1
 407 313 l 1,58,59
 371 100 371 100 298 14 c 0,60,61
 270 -19 270 -19 226 -40.5 c 128,-1,62
 182 -62 182 -62 130 -62 c 128,-1,63
 78 -62 78 -62 42.5 -44 c 128,-1,64
 7 -26 7 -26 -8 2 c 0,65,66
 -31 43 -31 43 -31 77 c 128,-1,67
 -31 111 -31 111 -21 140.5 c 128,-1,68
 -11 170 -11 170 8 198.5 c 128,-1,69
 27 227 27 227 58.5 245 c 128,-1,70
 90 263 90 263 126 263 c 0,71,72
 145 263 145 263 153 249 c 2,73,-1
 156 244 l 1,74,75
 68 244 68 244 22 170 c 0,76,77
 -4 127 -4 127 -4 84 c 0,78,79
 -4 64 -4 64 1 43 c 0,80,81
 23 -35 23 -35 111 -35 c 0,82,83
 182 -35 182 -35 226 18 c 0,84,85
 272 73 272 73 298 150 c 0,86,87
 319 212 319 212 344 324 c 1,88,89
 295 342 295 342 282 381 c 0,90,91
 278 394 278 394 278 412 c 128,-1,92
 278 430 278 430 296 452 c 0,93,94
 324 484 324 484 378 485 c 1,95,96
 396 563 396 563 411 603 c 1,97,-1
 259 613 l 1,98,99
 148 613 148 613 100 530 c 0,100,101
 77 490 77 490 77 460 c 128,-1,102
 77 430 77 430 84 409 c 0,103,104
 104 356 104 356 149 353 c 1,105,106
 149 345 149 345 141 338 c 128,-1,107
 133 331 133 331 121 331 c 0,108,109
 62 331 62 331 41 391 c 0,110,111
 32 416 32 416 32 449.5 c 128,-1,112
 32 483 32 483 53 526 c 0,113,114
 108 637 108 637 247 637 c 1,0,-1
416 338 m 2,115,116
 476 338 476 338 529 372 c 1,117,118
 496 441 496 441 429 456 c 1,119,-1
 411 338 l 1,120,-1
 416 338 l 2,115,116
372 461 m 1,121,122
 336 458 336 458 320.5 440 c 128,-1,123
 305 422 305 422 305 409 c 0,124,125
 305 368 305 368 349 349 c 1,126,127
 358 391 358 391 372 461 c 1,121,122
EndSplineSet
EndChar

StartChar: L
Encoding: 76 76 47
Width: 730
GlyphClass: 2
Flags: W
LayerCount: 2
Fore
SplineSet
638 831 m 0,0,1
 730 831 730 831 730 693 c 0,2,3
 730 605 730 605 682 490 c 0,4,5
 612 323 612 323 492 233 c 0,6,7
 446 199 446 199 398 181 c 1,8,9
 350 57 350 57 277 0 c 1,10,11
 377 -74 377 -74 422 -96.5 c 128,-1,12
 467 -119 467 -119 509 -119 c 0,13,14
 582 -119 582 -119 605 -68 c 0,15,16
 612 -52 612 -52 612 -38 c 128,-1,17
 612 -24 612 -24 604.5 -14.5 c 128,-1,18
 597 -5 597 -5 587 -5 c 1,19,20
 590 7 590 7 602 7 c 0,21,22
 636 7 636 7 647 -31 c 0,23,24
 651 -44 651 -44 651 -56 c 0,25,26
 651 -86 651 -86 628 -112 c 0,27,28
 596 -150 596 -150 533 -150 c 0,29,30
 454 -150 454 -150 381 -104 c 0,31,32
 340 -79 340 -79 321.5 -65 c 128,-1,33
 303 -51 303 -51 256 -15 c 1,34,35
 194 -54 194 -54 119 -54 c 0,36,37
 8 -54 8 -54 -25 2 c 0,38,39
 -34 19 -34 19 -34 37.5 c 128,-1,40
 -34 56 -34 56 -18 76 c 0,41,42
 7 107 7 107 54 107 c 0,43,44
 129 107 129 107 241 26 c 1,45,46
 286 72 286 72 322 163 c 1,47,48
 312 162 312 162 293 162 c 0,49,50
 130 162 130 162 54 292 c 0,51,52
 8 372 8 372 8 469 c 0,53,54
 8 502 8 502 13 536 c 0,55,56
 31 663 31 663 107 730 c 1,57,58
 159 774 159 774 225 774 c 128,-1,59
 291 774 291 774 327 731 c 128,-1,60
 363 688 363 688 365 625 c 0,61,62
 365 616 365 616 355 610.5 c 128,-1,63
 345 605 345 605 335 607.5 c 128,-1,64
 325 610 325 610 325 620 c 0,65,66
 323 680 323 680 301 715.5 c 128,-1,67
 279 751 279 751 222 751 c 0,68,69
 132 751 132 751 77 652 c 0,70,71
 33 574 33 574 33 480 c 0,72,73
 33 308 33 308 144 231 c 0,74,75
 205 188 205 188 292 188 c 0,76,77
 312 188 312 188 333 191 c 1,78,79
 356 253 356 253 382 353.5 c 128,-1,80
 408 454 408 454 428.5 528.5 c 128,-1,81
 449 603 449 603 477 677 c 0,82,83
 535 831 535 831 638 831 c 0,0,1
627 802 m 1,84,85
 557 802 557 802 520 667 c 0,86,87
 502 602 502 602 488 533 c 0,88,89
 447 322 447 322 412 218 c 1,90,91
 535 281 535 281 613 454 c 0,92,93
 676 592 676 592 675 708 c 1,94,95
 672 800 672 800 627 802 c 1,84,85
54 82 m 0,97,98
 9 82 9 82 -3.5 50.5 c 128,-1,99
 -16 19 -16 19 24 -9 c 0,100,101
 54 -30 54 -30 115 -30 c 128,-1,102
 176 -30 176 -30 223 9 c 1,103,96
 125 82 125 82 54 82 c 0,97,98
EndSplineSet
EndChar

StartChar: M
Encoding: 77 77 48
Width: 1274
GlyphClass: 2
Flags: W
LayerCount: 2
Fore
SplineSet
855 702 m 1,0,-1
 794 721 l 1,1,2
 746 647 746 647 692 455 c 0,3,4
 670 379 670 379 643.5 294.5 c 128,-1,5
 617 210 617 210 582.5 136.5 c 128,-1,6
 548 63 548 63 503.5 3 c 128,-1,7
 459 -57 459 -57 393 -92 c 128,-1,8
 327 -127 327 -127 245 -127 c 0,9,10
 98 -127 98 -127 31 -22 c 0,11,12
 -6 37 -6 37 -6 105 c 0,13,14
 -6 133 -6 133 0 162 c 0,15,16
 21 259 21 259 95 300 c 0,17,18
 134 322 134 322 182 322 c 0,19,20
 285 322 285 322 321 242 c 0,21,22
 336 209 336 209 336 174.5 c 128,-1,23
 336 140 336 140 322 105 c 0,24,25
 288 21 288 21 211 21 c 0,26,27
 199 21 199 21 191 26.5 c 128,-1,28
 183 32 183 32 179 43 c 1,29,30
 206 43 206 43 230 57 c 0,31,32
 270 81 270 81 292 144 c 0,33,34
 299 165 299 165 299 178.5 c 128,-1,35
 299 192 299 192 297 209.5 c 128,-1,36
 295 227 295 227 284 250 c 128,-1,37
 273 273 273 273 246 287 c 128,-1,38
 219 301 219 301 182 301 c 0,39,40
 87 301 87 301 42 217 c 0,41,42
 16 169 16 169 16 126 c 128,-1,43
 16 83 16 83 25 49 c 0,44,45
 51 -46 51 -46 134 -82 c 0,46,47
 173 -99 173 -99 233 -99 c 128,-1,48
 293 -99 293 -99 354.5 -65.5 c 128,-1,49
 416 -32 416 -32 460.5 25.5 c 128,-1,50
 505 83 505 83 541 154 c 128,-1,51
 577 225 577 225 606.5 307.5 c 128,-1,52
 636 390 636 390 660 464 c 0,53,54
 724 654 724 654 771 729 c 1,55,56
 620 776 620 776 552 776 c 0,57,58
 423 776 423 776 360 678 c 0,59,60
 324 622 324 622 324 563 c 0,61,62
 324 546 324 546 328 528 c 0,63,64
 339 462 339 462 387 449 c 0,65,66
 396 447 396 447 405 447 c 1,67,68
 399 426 399 426 372 426 c 0,69,70
 311 426 311 426 286 491 c 0,71,72
 274 522 274 522 274 560 c 128,-1,73
 274 598 274 598 294 645 c 0,74,75
 336 746 336 746 442 783 c 0,76,77
 492 800 492 800 556.5 800 c 128,-1,78
 621 800 621 800 784 748 c 1,79,80
 833 818 833 818 896 818 c 0,81,82
 904 818 904 818 908 813 c 128,-1,83
 912 808 912 808 913 799 c 1,84,85
 854 799 854 799 808 740 c 1,86,87
 853 726 853 726 866 721 c 1,88,89
 908 794 908 794 945 794 c 0,90,91
 962 794 962 794 965 784 c 2,92,-1
 966 781 l 1,93,94
 938 781 938 781 907 707 c 1,95,-1
 1050 661 l 1,96,97
 1117 787 1117 787 1190 787 c 0,98,99
 1200 787 1200 787 1206 782 c 128,-1,100
 1212 777 1212 777 1214 767 c 1,101,102
 1139 767 1139 767 1076 653 c 1,103,104
 1130 639 1130 639 1143 637 c 1,105,106
 1202 754 1202 754 1249 754 c 0,107,108
 1266 754 1266 754 1269 744 c 2,109,-1
 1270 741 l 1,110,111
 1237 741 1237 741 1190 630 c 1,112,113
 1197 629 1197 629 1209 629 c 0,114,115
 1308 629 1308 629 1348 688 c 1,116,117
 1365 711 1365 711 1365 727 c 0,118,119
 1365 772 1365 772 1325 772 c 1,120,121
 1334 786 1334 786 1354 786 c 0,122,123
 1393 786 1393 786 1405 747 c 0,124,125
 1408 735 1408 735 1408 724 c 0,126,127
 1408 691 1408 691 1380 659 c 0,128,129
 1331 605 1331 605 1229 605 c 0,130,131
 1205 605 1205 605 1182 609 c 1,132,133
 1138 496 1138 496 1106.5 348 c 128,-1,134
 1075 200 1075 200 1075 84 c 128,-1,135
 1075 -32 1075 -32 1122 -32 c 1,136,137
 1112 -52 1112 -52 1093 -52 c 0,138,139
 1015 -52 1015 -52 1015 119 c 0,140,141
 1015 220 1015 220 1047 359.5 c 128,-1,142
 1079 499 1079 499 1134 618 c 1,143,144
 1108 623 1108 623 1066 635 c 1,145,146
 1022 549 1022 549 973.5 383.5 c 128,-1,147
 925 218 925 218 887.5 112 c 128,-1,148
 850 6 850 6 812 6 c 0,149,150
 736 6 736 6 736 188 c 0,151,152
 736 299 736 299 768.5 448 c 128,-1,153
 801 597 801 597 855 702 c 1,0,-1
823.5 63 m 128,-1,155
 844 63 844 63 874.5 159 c 128,-1,156
 905 255 905 255 950.5 405 c 128,-1,157
 996 555 996 555 1040 642 c 1,158,159
 950 670 950 670 899 687 c 1,160,161
 855 569 855 569 826 382 c 0,162,163
 803 231 803 231 803 147 c 128,-1,154
 803 63 803 63 823.5 63 c 128,-1,155
EndSplineSet
EndChar

StartChar: N
Encoding: 78 78 49
Width: 1154
GlyphClass: 2
Flags: W
LayerCount: 2
Fore
SplineSet
276 645 m 0,0,1
 340 800 340 800 544 800 c 0,2,3
 615 800 615 800 753 754 c 1,4,5
 799 818 799 818 858 818 c 0,6,7
 866 818 866 818 870 813 c 128,-1,8
 874 808 874 808 875 799 c 1,9,10
 820 799 820 799 778 747 c 1,11,12
 810 739 810 739 842 735 c 1,13,14
 876 804 876 804 911 804 c 0,15,16
 927 804 927 804 930 794 c 2,17,-1
 931 790 l 1,18,19
 907 790 907 790 886 733 c 1,20,21
 944 734 944 734 965 779 c 0,22,23
 972 793 972 793 972 805.5 c 128,-1,24
 972 818 972 818 963.5 826.5 c 128,-1,25
 955 835 955 835 944 835 c 1,26,27
 949 850 949 850 965 850 c 0,28,29
 994 850 994 850 1003 816 c 0,30,31
 1006 806 1006 806 1006 796 c 0,32,33
 1006 766 1006 766 977 737.5 c 128,-1,34
 948 709 948 709 890 709 c 2,35,-1
 878 709 l 1,36,37
 849 614 849 614 837.5 480.5 c 128,-1,38
 826 347 826 347 826 258 c 0,39,40
 826 33 826 33 866 33 c 0,41,42
 883 33 883 33 908 114 c 128,-1,43
 933 195 933 195 964.5 310 c 128,-1,44
 996 425 996 425 1034.5 540.5 c 128,-1,45
 1073 656 1073 656 1130 737 c 128,-1,46
 1187 818 1187 818 1252 818 c 0,47,48
 1266 818 1266 818 1275.5 811 c 128,-1,49
 1285 804 1285 804 1289 789 c 1,50,51
 1215 789 1215 789 1154.5 705.5 c 128,-1,52
 1094 622 1094 622 1055 502 c 128,-1,53
 1016 382 1016 382 983.5 262.5 c 128,-1,54
 951 143 951 143 918.5 59.5 c 128,-1,55
 886 -24 886 -24 854 -24 c 0,56,57
 804 -24 804 -24 780 58 c 128,-1,58
 756 140 756 140 756 246 c 0,59,60
 756 368 756 368 777.5 500.5 c 128,-1,61
 799 633 799 633 832 713 c 1,62,63
 796 719 796 719 764 728 c 1,64,65
 708 642 708 642 657 410 c 0,66,67
 637 319 637 319 603 220 c 128,-1,68
 569 121 569 121 527.5 46 c 128,-1,69
 486 -29 486 -29 413.5 -78 c 128,-1,70
 341 -127 341 -127 245 -127 c 0,71,72
 98 -127 98 -127 31 -22 c 0,73,74
 -6 37 -6 37 -6 105 c 0,75,76
 -6 133 -6 133 0 162 c 0,77,78
 21 259 21 259 95 300 c 0,79,80
 134 322 134 322 182 322 c 0,81,82
 285 322 285 322 321 242 c 0,83,84
 336 209 336 209 336 174.5 c 128,-1,85
 336 140 336 140 322 105 c 0,86,87
 288 21 288 21 211 21 c 0,88,89
 199 21 199 21 191 26.5 c 128,-1,90
 183 32 183 32 179 43 c 1,91,92
 206 43 206 43 230 57 c 0,93,94
 270 81 270 81 292 144 c 0,95,96
 299 165 299 165 299 178.5 c 128,-1,97
 299 192 299 192 297 209.5 c 128,-1,98
 295 227 295 227 284 250 c 128,-1,99
 273 273 273 273 246 287 c 128,-1,100
 219 301 219 301 182 301 c 0,101,102
 87 301 87 301 42 217 c 0,103,104
 16 169 16 169 16 126 c 128,-1,105
 16 83 16 83 25 49 c 0,106,107
 51 -46 51 -46 134 -82 c 0,108,109
 173 -99 173 -99 220 -99 c 0,110,111
 306 -99 306 -99 374 -52 c 128,-1,112
 442 -5 442 -5 484 66.5 c 128,-1,113
 526 138 526 138 563.5 234 c 128,-1,114
 601 330 601 330 624 418 c 0,115,116
 684 641 684 641 741 735 c 1,117,118
 736 736 736 736 714.5 743 c 128,-1,119
 693 750 693 750 685.5 752 c 128,-1,120
 678 754 678 754 658.5 759 c 128,-1,121
 639 764 639 764 628 766 c 128,-1,122
 617 768 617 768 600 771 c 0,123,124
 570 776 570 776 534 776 c 0,125,126
 404 776 404 776 342 678 c 1,127,128
 306 623 306 623 306 564 c 0,129,130
 306 547 306 547 310 529 c 0,131,132
 321 464 321 464 368 451 c 0,133,134
 377 448 377 448 387 448 c 1,135,136
 381 426 381 426 354 426 c 0,137,138
 293 426 293 426 268 491 c 0,139,140
 256 522 256 522 256 560 c 128,-1,141
 256 598 256 598 276 645 c 0,0,1
EndSplineSet
EndChar

StartChar: O
Encoding: 79 79 50
Width: 736
GlyphClass: 2
Flags: W
LayerCount: 2
Fore
SplineSet
339 340 m 0,0,1
 339 191 339 191 422 191 c 1,2,3
 419 172 419 172 389 172 c 0,4,5
 317 172 317 172 292 263 c 0,6,7
 282 302 282 302 282 355.5 c 128,-1,8
 282 409 282 409 305 484 c 0,9,10
 347 619 347 619 436 673 c 0,11,12
 480 700 480 700 530 700 c 0,13,14
 626 700 626 700 647 585 c 0,15,16
 653 553 653 553 653 518 c 0,17,18
 653 419 653 419 606 291 c 0,19,20
 542 114 542 114 436 18 c 0,21,22
 359 -53 359 -53 280 -53 c 0,23,24
 133 -53 133 -53 77 83 c 0,25,26
 48 152 48 152 48 230.5 c 128,-1,27
 48 309 48 309 68 392 c 0,28,29
 112 575 112 575 226 696.5 c 128,-1,30
 340 818 340 818 481 818 c 0,31,32
 489 818 489 818 494 813 c 128,-1,33
 499 808 499 808 500 797 c 1,34,35
 362 797 362 797 252 642 c 0,36,37
 155 505 155 505 125 323 c 0,38,39
 115 262 115 262 115 210 c 0,40,41
 115 109 115 109 156 40 c 128,-1,42
 197 -29 197 -29 281 -29 c 0,43,44
 393 -29 393 -29 493 123 c 0,45,46
 581 257 581 257 613 425 c 0,47,48
 625 487 625 487 625 534 c 0,49,50
 625 608 625 608 596 646 c 1,51,52
 573 673 573 673 539 673 c 0,53,54
 450 673 450 673 391 552 c 0,55,56
 339 446 339 446 339 340 c 0,0,1
EndSplineSet
EndChar

StartChar: P
Encoding: 80 80 51
Width: 730
GlyphClass: 2
Flags: W
LayerCount: 2
Fore
SplineSet
325 276 m 1,0,1
 240 299 240 299 240 373 c 0,2,3
 240 402 240 402 255.5 417.5 c 128,-1,4
 271 433 271 433 282 433 c 0,5,6
 300 433 300 433 303 422 c 2,7,-1
 304 418 l 1,8,9
 278 418 278 418 268 389 c 0,10,11
 265 379 265 379 265 369 c 0,12,13
 265 343 265 343 285.5 326 c 128,-1,14
 306 309 306 309 330 302 c 1,15,16
 364 504 364 504 374 546 c 0,17,18
 412 700 412 700 482 716 c 0,19,20
 491 718 491 718 500 718 c 0,21,22
 515 718 515 718 520 706 c 1,23,-1
 521 701 l 1,24,25
 479 701 479 701 456 655 c 0,26,27
 434 609 434 609 425.5 553 c 128,-1,28
 417 497 417 497 413 465 c 128,-1,29
 409 433 409 433 403.5 380.5 c 128,-1,30
 398 328 398 328 394 295 c 1,31,32
 517 299 517 299 597 404 c 0,33,34
 664 492 664 492 664 595 c 0,35,36
 664 711 664 711 582 762 c 0,37,38
 534 791 534 791 465 791 c 0,39,40
 271 791 271 791 170 653 c 0,41,42
 100 559 100 559 100 443 c 0,43,44
 100 329 100 329 160 282 c 0,45,46
 187 260 187 260 222 260 c 1,47,48
 213 237 213 237 191 237 c 0,49,50
 107 237 107 237 72 323 c 0,51,52
 53 369 53 369 53 422 c 128,-1,53
 53 475 53 475 71 534 c 0,54,55
 114 674 114 674 232 751 c 0,56,57
 331 816 331 816 465 816 c 0,58,59
 634 816 634 816 696 707 c 0,60,61
 725 657 725 657 725 605 c 128,-1,62
 725 553 725 553 708 502 c 0,63,64
 670 388 670 388 570 322 c 1,65,66
 489 270 489 270 391 269 c 1,67,68
 361 57 361 57 292 -28 c 0,69,70
 265 -62 265 -62 223 -83 c 128,-1,71
 181 -104 181 -104 130 -104 c 128,-1,72
 79 -104 79 -104 43 -86 c 128,-1,73
 7 -68 7 -68 -8 -40 c 0,74,75
 -31 1 -31 1 -31 35 c 128,-1,76
 -31 69 -31 69 -21 98.5 c 128,-1,77
 -11 128 -11 128 8 156.5 c 128,-1,78
 27 185 27 185 58 203 c 128,-1,79
 89 221 89 221 125 221 c 0,80,81
 146 221 146 221 152 207 c 1,82,-1
 155 202 l 1,83,84
 68 202 68 202 23 128 c 0,85,86
 -4 85 -4 85 -4 42 c 0,87,88
 -4 21 -4 21 2 1 c 0,89,90
 23 -77 23 -77 111 -77 c 0,91,92
 150 -77 150 -77 182 -57 c 128,-1,93
 214 -37 214 -37 235.5 -6.5 c 128,-1,94
 257 24 257 24 275 74 c 0,95,96
 302 149 302 149 325 276 c 1,0,1
EndSplineSet
EndChar

StartChar: Q
Encoding: 81 81 52
Width: 736
GlyphClass: 2
Flags: W
LayerCount: 2
Fore
SplineSet
339 340 m 0,0,1
 339 191 339 191 422 191 c 1,2,3
 419 172 419 172 389 172 c 0,4,5
 317 172 317 172 292 263 c 0,6,7
 282 302 282 302 282 355.5 c 128,-1,8
 282 409 282 409 305 484 c 0,9,10
 347 619 347 619 436 673 c 0,11,12
 480 700 480 700 530 700 c 0,13,14
 626 700 626 700 647 585 c 0,15,16
 653 553 653 553 653 518 c 0,17,18
 653 419 653 419 606 291 c 0,19,20
 542 114 542 114 436 18 c 0,21,22
 359 -53 359 -53 280 -53 c 0,23,24
 133 -53 133 -53 77 83 c 0,25,26
 48 152 48 152 48 230.5 c 128,-1,27
 48 309 48 309 68 392 c 0,28,29
 112 575 112 575 226 696.5 c 128,-1,30
 340 818 340 818 481 818 c 0,31,32
 489 818 489 818 494 813 c 128,-1,33
 499 808 499 808 500 797 c 1,34,35
 362 797 362 797 252 642 c 0,36,37
 155 505 155 505 125 323 c 0,38,39
 115 262 115 262 115 210 c 0,40,41
 115 109 115 109 156 40 c 128,-1,42
 197 -29 197 -29 281 -29 c 0,43,44
 393 -29 393 -29 493 123 c 0,45,46
 581 257 581 257 613 425 c 0,47,48
 625 487 625 487 625 534 c 0,49,50
 625 608 625 608 596 646 c 1,51,52
 573 673 573 673 539 673 c 0,53,54
 450 673 450 673 391 552 c 0,55,56
 339 446 339 446 339 340 c 0,0,1
10 -98 m 1,57,58
 15 -74 15 -74 41 -74 c 128,-1,59
 67 -74 67 -74 107.5 -94.5 c 128,-1,60
 148 -115 148 -115 184 -139 c 128,-1,61
 220 -163 220 -163 271.5 -183.5 c 128,-1,62
 323 -204 323 -204 370 -204 c 0,63,64
 463 -204 463 -204 493 -146 c 0,65,66
 502 -128 502 -128 502 -113 c 128,-1,67
 502 -98 502 -98 493 -86 c 0,68,69
 485 -76 485 -76 473 -75 c 1,70,71
 478 -56 478 -56 498 -56 c 0,72,73
 537 -56 537 -56 550 -97 c 0,74,75
 555 -112 555 -112 555 -126 c 0,76,77
 555 -159 555 -159 530 -190 c 0,78,79
 488 -244 488 -244 395 -244 c 0,80,81
 340 -244 340 -244 282 -221 c 128,-1,82
 224 -198 224 -198 184 -171 c 0,83,84
 76 -98 76 -98 10 -98 c 1,57,58
EndSplineSet
EndChar

StartChar: R
Encoding: 82 82 53
Width: 778
GlyphClass: 2
Flags: W
LayerCount: 2
Fore
SplineSet
486 700 m 0,0,1
 500 700 500 700 504 688 c 2,2,-1
 506 683 l 1,3,4
 463 683 463 683 442.5 631.5 c 128,-1,5
 422 580 422 580 411 480 c 1,6,7
 496 464 496 464 541 380 c 1,8,9
 605 421 605 421 640.5 490 c 128,-1,10
 676 559 676 559 676 626 c 128,-1,11
 676 693 676 693 625.5 742 c 128,-1,12
 575 791 575 791 481 791 c 0,13,14
 300 791 300 791 201 662 c 0,15,16
 132 571 132 571 132 468 c 128,-1,17
 132 365 132 365 185 329 c 0,18,19
 207 315 207 315 233 315 c 1,20,21
 223 292 223 292 202 292 c 0,22,23
 127 292 127 292 97 371 c 0,24,25
 82 409 82 409 82 457.5 c 128,-1,26
 82 506 82 506 104 566 c 0,27,28
 150 697 150 697 270 764 c 0,29,30
 362 816 362 816 481 816 c 0,31,32
 566 816 566 816 625 789 c 128,-1,33
 684 762 684 762 710 720 c 0,34,35
 738 673 738 673 738 619.5 c 128,-1,36
 738 566 738 566 717.5 517 c 128,-1,37
 697 468 697 468 654.5 421.5 c 128,-1,38
 612 375 612 375 555 347 c 1,39,40
 580 282 580 282 600 105 c 0,41,42
 607 48 607 48 619 -6 c 0,43,44
 645 -120 645 -120 730 -120 c 1,45,46
 728 -138 728 -138 704 -138 c 0,47,48
 582 -138 582 -138 556 -22 c 0,49,50
 543 33 543 33 539.5 89 c 128,-1,51
 536 145 536 145 533 216.5 c 128,-1,52
 530 288 530 288 519 332 c 1,53,54
 464 312 464 312 402 312 c 2,55,-1
 393 312 l 1,56,57
 365 95 365 95 298 15 c 0,58,59
 271 -18 271 -18 227.5 -40 c 128,-1,60
 184 -62 184 -62 131.5 -62 c 128,-1,61
 79 -62 79 -62 43.5 -44 c 128,-1,62
 8 -26 8 -26 -8 2 c 0,63,64
 -30 43 -30 43 -30 77 c 128,-1,65
 -30 111 -30 111 -20 140.5 c 128,-1,66
 -10 170 -10 170 9 198.5 c 128,-1,67
 28 227 28 227 59 245 c 128,-1,68
 90 263 90 263 126 263 c 0,69,70
 146 263 146 263 154 249 c 1,71,-1
 156 244 l 1,72,73
 69 244 69 244 23 170 c 0,74,75
 -3 128 -3 128 -3 84 c 0,76,77
 -3 64 -3 64 2 43 c 0,78,79
 24 -35 24 -35 112 -35 c 0,80,81
 154 -35 154 -35 187.5 -14 c 128,-1,82
 221 7 221 7 242.5 38 c 128,-1,83
 264 69 264 69 282 120 c 0,84,85
 309 199 309 199 330 323 c 1,86,87
 292 336 292 336 276 360.5 c 128,-1,88
 260 385 260 385 260 398 c 128,-1,89
 260 411 260 411 260 416 c 0,90,91
 265 442 265 442 290.5 462.5 c 128,-1,92
 316 483 316 483 357 484 c 1,93,94
 370 552 370 552 384 595.5 c 128,-1,95
 398 639 398 639 424 669.5 c 128,-1,96
 450 700 450 700 486 700 c 0,0,1
401 338 m 2,97,98
 457 338 457 338 510 362 c 1,99,100
 480 441 480 441 409 457 c 1,101,-1
 397 338 l 1,102,-1
 401 338 l 2,97,98
353 461 m 1,103,104
 317 458 317 458 302 439.5 c 128,-1,105
 287 421 287 421 287 409 c 0,106,107
 287 368 287 368 334 349 c 1,108,109
 346 425 346 425 353 461 c 1,103,104
EndSplineSet
EndChar

StartChar: S
Encoding: 83 83 54
Width: 769
GlyphClass: 2
Flags: W
LayerCount: 2
Fore
SplineSet
69 -12 m 1,0,1
 36 50 36 50 36 134 c 0,2,3
 36 212 36 212 62.5 273.5 c 128,-1,4
 89 335 89 335 120.5 372.5 c 128,-1,5
 152 410 152 410 197.5 432.5 c 128,-1,6
 243 455 243 455 294 455 c 0,7,8
 366 455 366 455 409 414 c 1,9,-1
 540 524 l 1,10,11
 536 559 536 559 536 593 c 0,12,13
 536 815 536 815 653 815 c 0,14,15
 683 815 683 815 700 794 c 128,-1,16
 717 773 717 773 719 740 c 1,17,18
 720 692 720 692 688.5 644 c 128,-1,19
 657 596 657 596 596 539 c 1,20,21
 627 332 627 332 627 257.5 c 128,-1,22
 627 183 627 183 608 113.5 c 128,-1,23
 589 44 589 44 550 -13 c 128,-1,24
 511 -70 511 -70 443 -102 c 128,-1,25
 375 -134 375 -134 285 -134 c 0,26,27
 156 -134 156 -134 90 -46 c 1,28,29
 72 -109 72 -109 72 -189.5 c 128,-1,30
 72 -270 72 -270 114.5 -334.5 c 128,-1,31
 157 -399 157 -399 224 -399 c 0,32,33
 229 -399 229 -399 229.5 -409 c 128,-1,34
 230 -419 230 -419 224 -419 c 0,35,36
 145 -419 145 -419 94 -344.5 c 128,-1,37
 43 -270 43 -270 43 -179 c 128,-1,38
 43 -88 43 -88 69 -12 c 1,0,1
426 395 m 1,39,40
 454 357 454 357 454 309.5 c 128,-1,41
 454 262 454 262 439.5 224.5 c 128,-1,42
 425 187 425 187 388.5 158.5 c 128,-1,43
 352 130 352 130 304 130 c 0,44,45
 294 130 294 130 288.5 135 c 128,-1,46
 283 140 283 140 281 151 c 1,47,48
 324 151 324 151 360 191 c 0,49,50
 412 247 412 247 412 317 c 0,51,52
 412 346 412 346 401 373 c 1,53,54
 289 277 289 277 212 185 c 128,-1,55
 135 93 135 93 99 -15 c 1,56,57
 156 -107 156 -107 278 -107 c 0,58,59
 353 -107 353 -107 409.5 -75.5 c 128,-1,60
 466 -44 466 -44 498 10 c 0,61,62
 561 116 561 116 561 267 c 0,63,64
 561 304 561 304 543 492 c 1,65,-1
 426 395 l 1,39,40
386 394 m 1,66,67
 354 428 354 428 298 428 c 128,-1,68
 242 428 242 428 197 401 c 0,69,70
 114 351 114 351 78 233 c 0,71,72
 62 183 62 183 62 130 c 0,73,74
 62 71 62 71 81 21 c 1,75,76
 150 194 150 194 386 394 c 1,66,67
587 644 m 0,77,78
 587 617 587 617 592 572 c 1,79,80
 691 669 691 669 691 736 c 0,81,82
 691 788 691 788 653 788 c 0,83,84
 587 788 587 788 587 644 c 0,77,78
EndSplineSet
EndChar

StartChar: T
Encoding: 84 84 55
Width: 603
GlyphClass: 2
Flags: W
LayerCount: 2
Fore
SplineSet
529 696 m 0,0,1
 543 696 543 696 548 684 c 1,2,-1
 549 679 l 1,3,4
 475 679 475 679 454 530 c 0,5,6
 444 463 444 463 437 382.5 c 128,-1,7
 430 302 430 302 416 221.5 c 128,-1,8
 402 141 402 141 376.5 74.5 c 128,-1,9
 351 8 351 8 297.5 -33.5 c 128,-1,10
 244 -75 244 -75 166 -75 c 0,11,12
 115 -75 115 -75 78.5 -55.5 c 128,-1,13
 42 -36 42 -36 26 -4 c 0,14,15
 6 37 6 37 6 74 c 128,-1,16
 6 111 6 111 17 144.5 c 128,-1,17
 28 178 28 178 47.5 209.5 c 128,-1,18
 67 241 67 241 99 260.5 c 128,-1,19
 131 280 131 280 167 280 c 0,20,21
 186 280 186 280 194 266 c 2,22,-1
 197 261 l 1,23,24
 113 261 113 261 64 184 c 0,25,26
 32 133 32 133 32 79 c 0,27,28
 32 62 32 62 36 44 c 0,29,30
 50 -29 50 -29 116 -44 c 0,31,32
 132 -48 132 -48 149 -48 c 0,33,34
 209 -48 209 -48 251 -7 c 128,-1,35
 293 34 293 34 315 99.5 c 128,-1,36
 337 165 337 165 352 244.5 c 128,-1,37
 367 324 367 324 379 403.5 c 128,-1,38
 391 483 391 483 407 548.5 c 128,-1,39
 423 614 423 614 453.5 655 c 128,-1,40
 484 696 484 696 529 696 c 0,0,1
740 824 m 0,41,42
 773 824 773 824 773 785 c 0,43,44
 773 755 773 755 741.5 729.5 c 128,-1,45
 710 704 710 704 642.5 704 c 128,-1,46
 575 704 575 704 473.5 737 c 128,-1,47
 372 770 372 770 312 770 c 0,48,49
 183 770 183 770 111 667 c 0,50,51
 62 597 62 597 62 517 c 0,52,53
 62 403 62 403 140 366 c 0,54,55
 167 353 167 353 201 353 c 1,56,57
 201 346 201 346 193 338 c 128,-1,58
 185 330 185 330 175 330 c 0,59,60
 70 330 70 330 29 417 c 0,61,62
 10 458 10 458 10 503 c 128,-1,63
 10 548 10 548 28 598 c 0,64,65
 67 706 67 706 167 758 c 0,66,67
 232 791 232 791 304.5 791 c 128,-1,68
 377 791 377 791 470 762.5 c 128,-1,69
 563 734 563 734 620 734 c 0,70,71
 706 734 706 734 719 774 c 0,72,73
 726 793 726 793 715 799 c 0,74,75
 713 800 713 800 712 800 c 1,76,77
 718 824 718 824 740 824 c 0,41,42
EndSplineSet
EndChar

StartChar: U
Encoding: 85 85 56
Width: 713
GlyphClass: 2
Flags: W
LayerCount: 2
Fore
SplineSet
580 493 m 0,0,1
 614 493 614 493 614 452 c 0,2,3
 614 427 614 427 602 387 c 0,4,5
 571 289 571 289 492 173 c 1,6,7
 491 156 491 156 491 140 c 0,8,9
 491 57 491 57 508 -2 c 0,10,11
 529 -71 529 -71 577 -71 c 1,12,13
 572 -91 572 -91 549 -91 c 0,14,15
 497 -91 497 -91 468 -39.5 c 128,-1,16
 439 12 439 12 433 95 c 1,17,18
 333 -22 333 -22 263 -22 c 0,19,20
 139 -22 139 -22 139 112 c 0,21,22
 139 168 139 168 162.5 241.5 c 128,-1,23
 186 315 186 315 215 375.5 c 128,-1,24
 244 436 244 436 267.5 511.5 c 128,-1,25
 291 587 291 587 291 651 c 128,-1,26
 291 715 291 715 254 754 c 128,-1,27
 217 793 217 793 152 793 c 0,28,29
 52 793 52 793 -11 691 c 0,30,31
 -60 610 -60 610 -60 520 c 0,32,33
 -60 406 -60 406 7 375 c 0,34,35
 27 366 27 366 50 366 c 0,36,37
 127 366 127 366 167 452 c 0,38,39
 169 456 169 456 173.5 456.5 c 128,-1,40
 178 457 178 457 181.5 454 c 128,-1,41
 185 451 185 451 183 447 c 0,42,43
 164 400 164 400 130 371.5 c 128,-1,44
 96 343 96 343 50 343 c 0,45,46
 -40 343 -40 343 -72 434 c 0,47,48
 -85 473 -85 473 -85 522 c 128,-1,49
 -85 571 -85 571 -64 632 c 0,50,51
 -25 747 -25 747 61 794 c 0,52,53
 104 817 104 817 152 817 c 0,54,55
 244 817 244 817 293 754.5 c 128,-1,56
 342 692 342 692 342 589 c 0,57,58
 342 529 342 529 320.5 453.5 c 128,-1,59
 299 378 299 378 272 318 c 0,60,61
 203 162 203 162 203 82.5 c 128,-1,62
 203 3 203 3 262 3 c 0,63,64
 330 3 330 3 431 134 c 1,65,66
 431 138 431 138 431 143 c 0,67,68
 431 222 431 222 449 302 c 128,-1,69
 467 382 467 382 502 437.5 c 128,-1,70
 537 493 537 493 580 493 c 0,0,1
495 228 m 1,71,72
 587 379 587 379 587 443 c 0,73,74
 587 461 587 461 575 461 c 0,75,76
 549 461 549 461 526.5 392.5 c 128,-1,77
 504 324 504 324 495 228 c 1,71,72
EndSplineSet
EndChar

StartChar: V
Encoding: 86 86 57
Width: 718
GlyphClass: 2
Flags: W
LayerCount: 2
Fore
SplineSet
508 221 m 1,0,1
 452 280 452 280 452 422 c 0,2,3
 452 550 452 550 505 640 c 0,4,5
 540 700 540 700 587 700 c 0,6,7
 632 700 632 700 632 599 c 0,8,9
 632 536 632 536 610.5 438.5 c 128,-1,10
 589 341 589 341 545 239 c 1,11,12
 571 210 571 210 607 210 c 1,13,14
 602 190 602 190 577.5 190 c 128,-1,15
 553 190 553 190 529 203 c 1,16,17
 481 102 481 102 422 40 c 128,-1,18
 363 -22 363 -22 301 -22 c 0,19,20
 174 -22 174 -22 174 112 c 0,21,22
 174 181 174 181 203 278 c 128,-1,23
 232 375 232 375 261 473.5 c 128,-1,24
 290 572 290 572 290 643.5 c 128,-1,25
 290 715 290 715 253 754 c 128,-1,26
 216 793 216 793 151 793 c 0,27,28
 51 793 51 793 -12 691 c 0,29,30
 -61 610 -61 610 -61 520 c 0,31,32
 -61 406 -61 406 6 375 c 0,33,34
 26 366 26 366 49 366 c 0,35,36
 126 366 126 366 166 452 c 0,37,38
 168 456 168 456 172.5 456.5 c 128,-1,39
 177 457 177 457 180.5 454 c 128,-1,40
 184 451 184 451 182 447 c 0,41,42
 163 400 163 400 129 371.5 c 128,-1,43
 95 343 95 343 49 343 c 0,44,45
 -41 343 -41 343 -73 434 c 0,46,47
 -86 473 -86 473 -86 522 c 128,-1,48
 -86 571 -86 571 -65 632 c 0,49,50
 -26 747 -26 747 60 794 c 0,51,52
 103 817 103 817 151 817 c 0,53,54
 243 817 243 817 292 754.5 c 128,-1,55
 341 692 341 692 341 589 c 0,56,57
 341 514 341 514 315.5 415 c 128,-1,58
 290 316 290 316 264 225 c 128,-1,59
 238 134 238 134 238 88 c 128,-1,60
 238 42 238 42 251.5 22.5 c 128,-1,61
 265 3 265 3 300 3 c 0,62,63
 357 3 357 3 410.5 63 c 128,-1,64
 464 123 464 123 508 221 c 1,0,1
605 607 m 0,65,66
 605 668 605 668 582.5 668 c 128,-1,67
 560 668 560 668 540 622 c 0,68,69
 502 537 502 537 502 414 c 0,70,71
 502 320 502 320 527 268 c 1,72,73
 594 440 594 440 604 580 c 0,74,75
 605 594 605 594 605 607 c 0,65,66
EndSplineSet
EndChar

StartChar: W
Encoding: 87 87 58
Width: 963
GlyphClass: 2
Flags: W
LayerCount: 2
Fore
SplineSet
851 578 m 0,0,1
 851 437 851 437 790 266 c 1,2,3
 816 210 816 210 857 210 c 1,4,5
 852 190 852 190 824 190 c 128,-1,6
 796 190 796 190 771 217 c 1,7,8
 730 118 730 118 676.5 57.5 c 128,-1,9
 623 -3 623 -3 564 -3 c 0,10,11
 487 -3 487 -3 455 93 c 1,12,13
 367 -22 367 -22 284 -22 c 0,14,15
 157 -22 157 -22 157 112 c 0,16,17
 157 211 157 211 224 376 c 0,18,19
 248 436 248 436 269 511.5 c 128,-1,20
 290 587 290 587 290 651 c 128,-1,21
 290 715 290 715 253 754 c 128,-1,22
 216 793 216 793 151 793 c 0,23,24
 51 793 51 793 -12 691 c 0,25,26
 -61 610 -61 610 -61 520 c 0,27,28
 -61 406 -61 406 6 375 c 0,29,30
 26 366 26 366 49 366 c 0,31,32
 126 366 126 366 166 452 c 0,33,34
 168 456 168 456 172.5 456.5 c 128,-1,35
 177 457 177 457 180.5 454 c 128,-1,36
 184 451 184 451 182 447 c 0,37,38
 163 400 163 400 129 371.5 c 128,-1,39
 95 343 95 343 49 343 c 0,40,41
 -41 343 -41 343 -73 434 c 0,42,43
 -86 473 -86 473 -86 522 c 128,-1,44
 -86 571 -86 571 -65 632 c 0,45,46
 -26 747 -26 747 60 794 c 0,47,48
 103 817 103 817 151 817 c 0,49,50
 243 817 243 817 292 754.5 c 128,-1,51
 341 692 341 692 341 589 c 0,52,53
 341 514 341 514 311 415 c 128,-1,54
 281 316 281 316 251 225 c 128,-1,55
 221 134 221 134 221 88 c 128,-1,56
 221 42 221 42 234.5 22.5 c 128,-1,57
 248 3 248 3 283 3 c 0,58,59
 362 3 362 3 446 125 c 1,60,61
 438 178 438 178 438 227 c 0,62,63
 438 387 438 387 492 501 c 0,64,65
 531 581 531 581 575 581 c 0,66,67
 614 581 614 581 614 512 c 128,-1,68
 614 443 614 443 582 346 c 128,-1,69
 550 249 550 249 499 161 c 1,70,71
 511 24 511 24 575 24 c 0,72,73
 671 24 671 24 753 240 c 1,74,75
 707 317 707 317 707 458 c 0,76,77
 707 541 707 541 728 610 c 0,78,79
 754 697 754 697 802.5 697 c 128,-1,80
 851 697 851 697 851 578 c 0,0,1
825 585 m 0,81,82
 825 665 825 665 798 665 c 0,83,84
 778 665 778 665 766.5 607.5 c 128,-1,85
 755 550 755 550 755 509 c 0,86,87
 755 377 755 377 775 305 c 1,88,89
 825 468 825 468 825 585 c 0,81,82
496 220 m 0,90,91
 496 215 496 215 496 211 c 1,92,93
 535 286 535 286 561 367 c 0,94,95
 589 455 589 455 589 499.5 c 128,-1,96
 589 544 589 544 570 549 c 1,97,98
 544 549 544 549 520 438.5 c 128,-1,99
 496 328 496 328 496 220 c 0,90,91
EndSplineSet
EndChar

StartChar: X
Encoding: 88 88 59
Width: 923
GlyphClass: 2
Flags: W
LayerCount: 2
Fore
SplineSet
448 650 m 0,0,1
 448 793 448 793 321 793 c 0,2,3
 227 793 227 793 166 701 c 0,4,5
 119 629 119 629 119 552 c 0,6,7
 119 450 119 450 189 426 c 0,8,9
 206 420 206 420 227 420 c 0,10,11
 304 420 304 420 344 505 c 0,12,13
 349 514 349 514 355.5 509.5 c 128,-1,14
 362 505 362 505 360 500 c 0,15,16
 341 453 341 453 307 424.5 c 128,-1,17
 273 396 273 396 227 396 c 0,18,19
 134 396 134 396 105 482 c 1,20,21
 93 514 93 514 93 558 c 128,-1,22
 93 602 93 602 118 661 c 0,23,24
 159 762 159 762 242 800 c 0,25,26
 280 817 280 817 331.5 817 c 128,-1,27
 383 817 383 817 423 793.5 c 128,-1,28
 463 770 463 770 479 730 c 0,29,30
 502 674 502 674 502 599 c 0,31,32
 502 564 502 564 496 525 c 1,33,34
 577 670 577 670 653.5 750.5 c 128,-1,35
 730 831 730 831 817 831 c 0,36,37
 848 831 848 831 865.5 812 c 128,-1,38
 883 793 883 793 883 757.5 c 128,-1,39
 883 722 883 722 859 682 c 128,-1,40
 835 642 835 642 801.5 609.5 c 128,-1,41
 768 577 768 577 708 537 c 0,42,43
 614 475 614 475 478 401 c 1,44,45
 475 383 475 383 466 333 c 0,46,47
 437 186 437 186 437 118 c 0,48,49
 437 83 437 83 454 34 c 1,50,51
 471 -21 471 -21 545 -21 c 0,52,53
 640 -21 640 -21 706 83 c 0,54,55
 758 166 758 166 758 246.5 c 128,-1,56
 758 327 758 327 715 334 c 1,57,-1
 706 335 l 1,58,59
 648 335 648 335 613 277 c 128,-1,60
 578 219 578 219 578 165.5 c 128,-1,61
 578 112 578 112 600 101 c 1,62,63
 596 86 596 86 582 86 c 0,64,65
 538 86 538 86 538 165 c 0,66,67
 538 222 538 222 571 277 c 1,68,69
 617 358 617 358 693 358 c 0,70,71
 789 358 789 358 789 242 c 0,72,73
 789 179 789 179 752 106 c 0,74,75
 700 3 700 3 615 -32 c 0,76,77
 581 -46 581 -46 532 -46 c 128,-1,78
 483 -46 483 -46 443 -23.5 c 128,-1,79
 403 -1 403 -1 388 37 c 0,80,81
 369 86 369 86 369 139 c 128,-1,82
 369 192 369 192 377 236 c 1,83,84
 300 97 300 97 230.5 20.5 c 128,-1,85
 161 -56 161 -56 86 -56 c 0,86,87
 43 -56 43 -56 18 -33 c 128,-1,88
 -7 -10 -7 -10 -7 29.5 c 128,-1,89
 -7 69 -7 69 18 110 c 128,-1,90
 43 151 43 151 76.5 183 c 128,-1,91
 110 215 110 215 173.5 256.5 c 128,-1,92
 237 298 237 298 282.5 323.5 c 128,-1,93
 328 349 328 349 408 392 c 1,94,95
 409 396 409 396 411 405 c 0,96,97
 448 578 448 578 448 650 c 0,0,1
47.5 98.5 m 128,-1,99
 26 62 26 62 26 31.5 c 128,-1,100
 26 1 26 1 42 -14.5 c 128,-1,101
 58 -30 58 -30 89 -30 c 128,-1,102
 120 -30 120 -30 154.5 -7.5 c 128,-1,103
 189 15 189 15 217 46 c 128,-1,104
 245 77 245 77 280 134 c 0,105,106
 329 213 329 213 398 346 c 1,107,-1
 401 359 l 1,108,109
 176 237 176 237 100 165 c 0,110,98
 69 135 69 135 47.5 98.5 c 128,-1,99
803 804 m 0,111,112
 769 804 769 804 733.5 783 c 128,-1,113
 698 762 698 762 669 731 c 128,-1,114
 640 700 640 700 605 647 c 0,115,116
 556 572 556 572 483 435 c 1,117,-1
 483 431 l 1,118,119
 567 476 567 476 621.5 509 c 128,-1,120
 676 542 676 542 732 585 c 0,121,122
 845 671 845 671 845 756 c 0,123,124
 845 804 845 804 803 804 c 0,111,112
EndSplineSet
EndChar

StartChar: Y
Encoding: 89 89 60
Width: 771
GlyphClass: 2
Flags: W
LayerCount: 2
Fore
SplineSet
348 24 m 0,0,1
 418 24 418 24 511 149 c 1,2,3
 544 340 544 340 559 388 c 0,4,5
 590 493 590 493 645 493 c 0,6,7
 681 493 681 493 681 450 c 0,8,9
 681 426 681 426 670 390 c 0,10,11
 643 298 643 298 571 188 c 1,12,13
 543 -42 543 -42 495 -160 c 0,14,15
 444 -285 444 -285 371 -344 c 0,16,17
 331 -377 331 -377 274 -398 c 128,-1,18
 217 -419 217 -419 149 -419 c 0,19,20
 0 -419 0 -419 -60 -316 c 0,21,22
 -89 -266 -89 -266 -89 -220.5 c 128,-1,23
 -89 -175 -89 -175 -78 -139 c 0,24,25
 -52 -49 -52 -49 21 -12 c 0,26,27
 56 5 56 5 96 5 c 0,28,29
 202 5 202 5 241 -77 c 0,30,31
 258 -113 258 -113 258 -146 c 128,-1,32
 258 -179 258 -179 246 -209 c 0,33,34
 220 -278 220 -278 161 -278 c 0,35,36
 152 -278 152 -278 145 -273 c 128,-1,37
 138 -268 138 -268 134 -259 c 1,38,39
 179 -259 179 -259 204 -198 c 0,40,41
 216 -168 216 -168 216 -137.5 c 128,-1,42
 216 -107 216 -107 202 -75 c 0,43,44
 175 -14 175 -14 93 -14 c 128,-1,45
 11 -14 11 -14 -36 -93 c 0,46,47
 -68 -146 -68 -146 -68 -204 c 0,48,49
 -68 -228 -68 -228 -62 -253 c 0,50,51
 -41 -347 -41 -347 46 -380 c 0,52,53
 85 -395 85 -395 135.5 -395 c 128,-1,54
 186 -395 186 -395 230.5 -379.5 c 128,-1,55
 275 -364 275 -364 308.5 -339 c 128,-1,56
 342 -314 342 -314 370 -275 c 128,-1,57
 398 -236 398 -236 417.5 -196 c 128,-1,58
 437 -156 437 -156 454 -103 c 0,59,60
 479 -21 479 -21 502 98 c 1,61,62
 413 -1 413 -1 349 -1 c 0,63,64
 225 -1 225 -1 225 133 c 0,65,66
 225 189 225 189 247.5 259 c 128,-1,67
 270 329 270 329 296.5 385.5 c 128,-1,68
 323 442 323 442 345.5 514.5 c 128,-1,69
 368 587 368 587 368 651 c 128,-1,70
 368 715 368 715 331 754 c 128,-1,71
 294 793 294 793 229 793 c 0,72,73
 129 793 129 793 66 691 c 0,74,75
 17 610 17 610 17 520 c 0,76,77
 17 406 17 406 84 375 c 0,78,79
 104 366 104 366 127 366 c 0,80,81
 204 366 204 366 244 452 c 0,82,83
 246 456 246 456 250.5 456.5 c 128,-1,84
 255 457 255 457 258.5 454 c 128,-1,85
 262 451 262 451 260 447 c 0,86,87
 241 400 241 400 207 371.5 c 128,-1,88
 173 343 173 343 127 343 c 0,89,90
 37 343 37 343 5 434 c 0,91,92
 -8 473 -8 473 -8 522 c 128,-1,93
 -8 571 -8 571 13 632 c 0,94,95
 52 747 52 747 138 794 c 0,96,97
 181 817 181 817 229 817 c 0,98,99
 321 817 321 817 370 754.5 c 128,-1,100
 419 692 419 692 419 589 c 0,101,102
 419 514 419 514 386.5 420.5 c 128,-1,103
 354 327 354 327 321.5 241 c 128,-1,104
 289 155 289 155 289 99 c 0,105,106
 289 24 289 24 348 24 c 0,0,1
640 461 m 1,107,108
 615 461 615 461 603 412 c 128,-1,109
 591 363 591 363 578 252 c 1,110,111
 650 379 650 379 653 438 c 1,112,113
 653 460 653 460 640 461 c 1,107,108
EndSplineSet
EndChar

StartChar: Z
Encoding: 90 90 61
Width: 875
GlyphClass: 2
Flags: W
LayerCount: 2
Fore
SplineSet
747 831 m 0,0,1
 797 831 797 831 797 786 c 0,2,3
 797 747 797 747 754.5 707.5 c 128,-1,4
 712 668 712 668 652 668 c 0,5,6
 629 668 629 668 618 670 c 1,7,8
 593 624 593 624 542.5 515 c 128,-1,9
 492 406 492 406 466 355 c 1,10,11
 588 407 588 407 635 546 c 0,12,13
 637 552 637 552 646 553.5 c 128,-1,14
 655 555 655 555 663 551 c 128,-1,15
 671 547 671 547 669 540 c 0,16,17
 644 465 644 465 587.5 407 c 128,-1,18
 531 349 531 349 451 324 c 1,19,20
 353 141 353 141 258 62 c 1,21,22
 309 26 309 26 337.5 8.5 c 128,-1,23
 366 -9 366 -9 413 -27 c 128,-1,24
 460 -45 460 -45 502 -45 c 0,25,26
 593 -45 593 -45 656 53 c 0,27,28
 707 131 707 131 706 210 c 1,29,30
 699 279 699 279 654 285 c 1,31,32
 596 285 596 285 558 225.5 c 128,-1,33
 520 166 520 166 520 113.5 c 128,-1,34
 520 61 520 61 539 51 c 1,35,36
 534 36 534 36 521 36 c 0,37,38
 479 36 479 36 479 102.5 c 128,-1,39
 479 169 479 169 515 227 c 0,40,41
 565 308 565 308 646 308 c 0,42,43
 733 308 733 308 733 200 c 0,44,45
 733 135 733 135 691 57 c 0,46,47
 636 -47 636 -47 549 -82 c 0,48,49
 515 -96 515 -96 476 -96 c 128,-1,50
 437 -96 437 -96 399.5 -86 c 128,-1,51
 362 -76 362 -76 325.5 -54 c 128,-1,52
 289 -32 289 -32 269 -16.5 c 128,-1,53
 249 -1 249 -1 212 30 c 1,54,55
 150 -7 150 -7 82 -7 c 0,56,57
 -27 -7 -27 -7 -57 48 c 0,58,59
 -66 64 -66 64 -66 83.5 c 128,-1,60
 -66 103 -66 103 -46 124 c 1,61,62
 -17 158 -17 158 34 158 c 128,-1,63
 85 158 85 158 131 137.5 c 128,-1,64
 177 117 177 117 235 78 c 1,65,66
 321 149 321 149 409 314 c 1,67,68
 376 309 376 309 329 309 c 128,-1,69
 282 309 282 309 233 326.5 c 128,-1,70
 184 344 184 344 155 373.5 c 128,-1,71
 126 403 126 403 108.5 441 c 128,-1,72
 91 479 91 479 91 521 c 128,-1,73
 91 563 91 563 100 605 c 128,-1,74
 109 647 109 647 132.5 685 c 128,-1,75
 156 723 156 723 186.5 752.5 c 128,-1,76
 217 782 217 782 259.5 799.5 c 128,-1,77
 302 817 302 817 351.5 817 c 128,-1,78
 401 817 401 817 446.5 799 c 128,-1,79
 492 781 492 781 537.5 754.5 c 128,-1,80
 583 728 583 728 614 718 c 1,81,82
 684 831 684 831 747 831 c 0,0,1
318 781 m 0,83,84
 227 781 227 781 165 695 c 0,85,86
 112 622 112 622 112 537 c 0,87,88
 112 412 112 412 213 360 c 0,89,90
 268 332 268 332 345 332 c 0,91,92
 387 332 387 332 423 341 c 1,93,94
 449 390 449 390 504.5 507 c 128,-1,95
 560 624 560 624 589 675 c 1,96,97
 547 685 547 685 498.5 712.5 c 128,-1,98
 450 740 450 740 405.5 760.5 c 128,-1,99
 361 781 361 781 318 781 c 0,83,84
-40 80 m 0,100,101
 -40 59 -40 59 -11 38 c 128,-1,102
 18 17 18 17 78.5 17 c 128,-1,103
 139 17 139 17 192 48 c 1,104,105
 144 88 144 88 105.5 108.5 c 128,-1,106
 67 129 67 129 22.5 129 c 128,-1,107
 -22 129 -22 129 -36 98 c 0,108,109
 -40 89 -40 89 -40 80 c 0,100,101
745 802 m 0,110,111
 698 802 698 802 642 711 c 1,112,113
 660 708 660 708 679 708 c 0,114,115
 725 708 725 708 753 749 c 0,116,117
 767 768 767 768 767 779 c 0,118,119
 767 802 767 802 745 802 c 0,110,111
EndSplineSet
EndChar

StartChar: bracketleft
Encoding: 91 91 62
Width: 302
GlyphClass: 2
Flags: W
LayerCount: 2
Fore
SplineSet
73 -86 m 2,0,1
 104 -86 104 -86 124 -92 c 128,-1,2
 144 -98 144 -98 148 -104 c 2,3,-1
 153 -111 l 1,4,-1
 -20 -111 l 1,5,6
 11 47 11 47 122 785 c 1,7,-1
 295 785 l 1,8,9
 292 776 292 776 270 768 c 128,-1,10
 248 760 248 760 217 760 c 2,11,-1
 170 760 l 1,12,13
 162 709 162 709 101 339.5 c 128,-1,14
 40 -30 40 -30 31 -86 c 1,15,-1
 73 -86 l 2,0,1
EndSplineSet
EndChar

StartChar: backslash
Encoding: 92 92 63
Width: 457
GlyphClass: 2
Flags: W
LayerCount: 2
Fore
SplineSet
92 657 m 0,0,1
 92 696 92 696 111 696 c 0,2,3
 131 696 131 696 137 669 c 128,-1,4
 143 642 143 642 209 320 c 128,-1,5
 275 -2 275 -2 286 -48 c 128,-1,6
 297 -94 297 -94 297 -113 c 128,-1,7
 297 -132 297 -132 283 -132 c 0,8,9
 275 -132 275 -132 271 -114 c 0,10,11
 254 -33 254 -33 180.5 269.5 c 128,-1,12
 107 572 107 572 99.5 604 c 128,-1,13
 92 636 92 636 92 657 c 0,0,1
EndSplineSet
EndChar

StartChar: bracketright
Encoding: 93 93 64
Width: 328
GlyphClass: 2
Flags: W
LayerCount: 2
Fore
SplineSet
202 760 m 2,0,1
 171 760 171 760 151 766 c 128,-1,2
 131 772 131 772 126 778 c 1,3,-1
 122 785 l 1,4,-1
 295 785 l 1,5,6
 264 627 264 627 153 -111 c 1,7,-1
 -20 -111 l 1,8,9
 -17 -102 -17 -102 5 -94 c 128,-1,10
 27 -86 27 -86 58 -86 c 2,11,-1
 105 -86 l 1,12,13
 113 -35 113 -35 174 334.5 c 128,-1,14
 235 704 235 704 244 760 c 1,15,-1
 202 760 l 2,0,1
EndSplineSet
EndChar

StartChar: asciicircum
Encoding: 94 94 65
Width: 413
GlyphClass: 2
Flags: W
LayerCount: 2
Fore
SplineSet
414 387 m 1,0,-1
 383 387 l 1,1,-1
 247 514 l 1,2,-1
 34 387 l 1,3,-1
 2 387 l 1,4,-1
 216 540 l 1,5,-1
 261 540 l 1,6,-1
 414 387 l 1,0,-1
EndSplineSet
EndChar

StartChar: underscore
Encoding: 95 95 66
Width: 655
GlyphClass: 2
Flags: W
LayerCount: 2
Fore
SplineSet
492 -65 m 2,0,-1
 -12 -67 l 2,1,2
 -23 -67 -23 -67 -23 -59 c 0,3,4
 -23 -43 -23 -43 9 -37 c 0,5,6
 17 -36 17 -36 27 -36 c 2,7,-1
 524 -45 l 2,8,9
 534 -45 534 -45 534 -50 c 0,10,11
 534 -64 534 -64 492 -65 c 2,0,-1
EndSplineSet
EndChar

StartChar: grave
Encoding: 96 96 67
Width: 396
GlyphClass: 2
Flags: W
LayerCount: 2
Fore
SplineSet
180 637 m 0,0,1
 216 604 216 604 248.5 564.5 c 128,-1,2
 281 525 281 525 281 515.5 c 128,-1,3
 281 506 281 506 270.5 506 c 128,-1,4
 260 506 260 506 225 531 c 128,-1,5
 190 556 190 556 153 592 c 0,6,7
 139 606 139 606 139 616 c 128,-1,8
 139 626 139 626 145 636 c 128,-1,9
 151 646 151 646 160.5 646 c 128,-1,10
 170 646 170 646 180 637 c 0,0,1
EndSplineSet
EndChar

StartChar: a
Encoding: 97 97 68
Width: 462
GlyphClass: 2
Flags: W
LayerCount: 2
Fore
SplineSet
27 -1 m 0,0,1
 -52 -1 -52 -1 -52 118 c 0,2,3
 -52 187 -52 187 -16 269 c 0,4,5
 34 380 34 380 111 414 c 0,6,7
 138 425 138 425 165.5 425 c 128,-1,8
 193 425 193 425 209 409 c 128,-1,9
 225 393 225 393 225 373 c 0,10,11
 225 364 225 364 215.5 364.5 c 128,-1,12
 206 365 206 365 206 374 c 128,-1,13
 206 383 206 383 196.5 390.5 c 128,-1,14
 187 398 187 398 169 398 c 0,15,16
 106 398 106 398 55 285 c 0,17,18
 7 180 7 180 7 86 c 0,19,20
 7 28 7 28 32.5 28 c 128,-1,21
 58 28 58 28 94.5 71.5 c 128,-1,22
 131 115 131 115 162 173 c 0,23,24
 229 295 229 295 241 330 c 128,-1,25
 253 365 253 365 267 365 c 0,26,27
 292 365 292 365 292 323 c 0,28,29
 292 310 292 310 289 293 c 0,30,31
 256 133 256 133 253.5 108 c 128,-1,32
 251 83 251 83 251 72 c 0,33,34
 251 24 251 24 274 24 c 0,35,36
 300 24 300 24 347 93 c 128,-1,37
 394 162 394 162 428 231 c 2,38,-1
 462 300 l 1,39,-1
 489 300 l 1,40,41
 483 288 483 288 473.5 267.5 c 128,-1,42
 464 247 464 247 436 194.5 c 128,-1,43
 408 142 408 142 382.5 102 c 128,-1,44
 357 62 357 62 325.5 29.5 c 128,-1,45
 294 -3 294 -3 271 -3 c 0,46,47
 197 -3 197 -3 197 105 c 0,48,49
 197 141 197 141 205 189 c 1,50,-1
 198 189 l 1,51,52
 96 -1 96 -1 27 -1 c 0,0,1
EndSplineSet
EndChar

StartChar: b
Encoding: 98 98 69
Width: 371
GlyphClass: 2
Flags: W
LayerCount: 2
Fore
SplineSet
214 443 m 0,0,1
 259 443 259 443 259 349 c 0,2,3
 259 339 259 339 258 328 c 1,4,5
 270 324 270 324 293 324 c 128,-1,6
 316 324 316 324 334 343 c 128,-1,7
 352 362 352 362 352 378 c 0,8,9
 352 382 352 382 357 383.5 c 128,-1,10
 362 385 362 385 366.5 383 c 128,-1,11
 371 381 371 381 371 377 c 0,12,13
 371 348 371 348 346.5 322 c 128,-1,14
 322 296 322 296 281 296 c 0,15,16
 270 296 270 296 256 298 c 1,17,18
 248 230 248 230 224 163.5 c 128,-1,19
 200 97 200 97 160.5 48.5 c 128,-1,20
 121 0 121 0 79 0 c 0,21,22
 -20 0 -20 0 -20 137 c 0,23,24
 -20 222 -20 222 16.5 381.5 c 128,-1,25
 53 541 53 541 114 678 c 128,-1,26
 175 815 175 815 230 815 c 0,27,28
 272 815 272 815 272 763 c 0,29,30
 272 745 272 745 267 721 c 0,31,32
 248 626 248 626 179 525 c 0,33,34
 127 449 127 449 84 431 c 1,35,36
 33 208 33 208 33 117.5 c 128,-1,37
 33 27 33 27 81 27 c 0,38,39
 133 27 133 27 175.5 116 c 128,-1,40
 218 205 218 205 233 306 c 1,41,42
 201 322 201 322 188 356 c 0,43,44
 180 376 180 376 180 390.5 c 128,-1,45
 180 405 180 405 184 416 c 0,46,47
 192 443 192 443 214 443 c 0,0,1
250 761 m 0,48,49
 250 791 250 791 232 792 c 1,50,51
 201 792 201 792 163 697 c 128,-1,52
 125 602 125 602 91 461 c 1,53,54
 146 497 146 497 198 605 c 128,-1,55
 250 713 250 713 250 761 c 0,48,49
EndSplineSet
EndChar

StartChar: c
Encoding: 99 99 70
Width: 339
GlyphClass: 2
Flags: W
LayerCount: 2
Fore
SplineSet
23 142 m 0,0,1
 23 25 23 25 104 25 c 0,2,3
 136 25 136 25 171.5 53.5 c 128,-1,4
 207 82 207 82 236 122 c 0,5,6
 300 214 300 214 326 272 c 2,7,-1
 339 300 l 1,8,-1
 366 300 l 1,9,10
 349 260 349 260 316 201.5 c 128,-1,11
 283 143 283 143 253 103 c 128,-1,12
 223 63 223 63 182 30.5 c 128,-1,13
 141 -2 141 -2 104 -2 c 0,14,15
 0 -2 0 -2 -28 93 c 0,16,17
 -37 123 -37 123 -37 168.5 c 128,-1,18
 -37 214 -37 214 -9 280 c 0,19,20
 32 378 32 378 103 412 c 0,21,22
 131 425 131 425 158.5 425 c 128,-1,23
 186 425 186 425 202 410 c 0,24,25
 221 392 221 392 221 368.5 c 128,-1,26
 221 345 221 345 216 325 c 128,-1,27
 211 305 211 305 195.5 289.5 c 128,-1,28
 180 274 180 274 161 274 c 0,29,30
 153 274 153 274 149 285 c 1,31,32
 157 285 157 285 170.5 313.5 c 128,-1,33
 184 342 184 342 184 370 c 128,-1,34
 184 398 184 398 160 398 c 0,35,36
 108 398 108 398 65.5 311 c 128,-1,37
 23 224 23 224 23 142 c 0,0,1
EndSplineSet
EndChar

StartChar: d
Encoding: 100 100 71
Width: 469
GlyphClass: 2
Flags: W
LayerCount: 2
Fore
SplineSet
310.5 386.5 m 128,-1,1
 294 317 294 317 274.5 225.5 c 128,-1,2
 255 134 255 134 255 79 c 128,-1,3
 255 24 255 24 280 24 c 0,4,5
 307 24 307 24 354.5 93 c 128,-1,6
 402 162 402 162 436 231 c 2,7,-1
 469 300 l 1,8,-1
 496 300 l 1,9,10
 490 288 490 288 480.5 267.5 c 128,-1,11
 471 247 471 247 443 194.5 c 128,-1,12
 415 142 415 142 389.5 102 c 128,-1,13
 364 62 364 62 332 29.5 c 128,-1,14
 300 -3 300 -3 277 -3 c 0,15,16
 205 -3 205 -3 205 103 c 0,17,18
 205 142 205 142 216 205 c 1,19,-1
 208 205 l 1,20,21
 97 -1 97 -1 28 -1 c 0,22,23
 -51 -1 -51 -1 -51 118 c 0,24,25
 -51 187 -51 187 -15 269 c 0,26,27
 35 380 35 380 112 414 c 0,28,29
 139 425 139 425 166.5 425 c 128,-1,30
 194 425 194 425 210 409 c 128,-1,31
 226 393 226 393 226 373 c 0,32,33
 226 364 226 364 216.5 364.5 c 128,-1,34
 207 365 207 365 207 374 c 128,-1,35
 207 383 207 383 197.5 390.5 c 128,-1,36
 188 398 188 398 170 398 c 0,37,38
 107 398 107 398 56 285 c 0,39,40
 8 180 8 180 8 86 c 0,41,42
 8 28 8 28 33 28 c 0,43,44
 67 28 67 28 118 102 c 128,-1,45
 169 176 169 176 207.5 261 c 128,-1,46
 246 346 246 346 262.5 416.5 c 128,-1,47
 279 487 279 487 313 609 c 0,48,49
 335 688 335 688 371 688 c 0,50,51
 379 688 379 688 383 682.5 c 128,-1,52
 387 677 387 677 386 671.5 c 128,-1,53
 385 666 385 666 356 561 c 128,-1,0
 327 456 327 456 310.5 386.5 c 128,-1,1
EndSplineSet
EndChar

StartChar: e
Encoding: 101 101 72
Width: 345
GlyphClass: 2
Flags: W
LayerCount: 2
Fore
SplineSet
24 146 m 0,0,1
 24 25 24 25 110 25 c 0,2,3
 142 25 142 25 177.5 53.5 c 128,-1,4
 213 82 213 82 242 122 c 0,5,6
 306 214 306 214 332 272 c 2,7,-1
 345 300 l 1,8,-1
 372 300 l 1,9,10
 355 260 355 260 322 201.5 c 128,-1,11
 289 143 289 143 259 103 c 128,-1,12
 229 63 229 63 188 30.5 c 128,-1,13
 147 -2 147 -2 110 -2 c 0,14,15
 -38 -2 -38 -2 -38 164 c 0,16,17
 -38 241 -38 241 7 318 c 0,18,19
 69 425 69 425 160 425 c 0,20,21
 224 425 224 425 224 355 c 0,22,23
 224 303 224 303 184 247 c 1,24,25
 128 171 128 171 53 170 c 0,26,27
 42 170 42 170 39 180 c 2,28,-1
 38 184 l 1,29,30
 90 184 90 184 137.5 252.5 c 128,-1,31
 185 321 185 321 185 367 c 0,32,33
 185 398 185 398 161 398 c 0,34,35
 108 398 108 398 62 305 c 0,36,37
 24 226 24 226 24 146 c 0,0,1
EndSplineSet
EndChar

StartChar: f
Encoding: 102 102 73
Width: 282
GlyphClass: 2
Flags: W
LayerCount: 2
Fore
SplineSet
167 270 m 0,0,1
 167 181 167 181 195 181 c 1,2,3
 194 169 194 169 178 169 c 0,4,5
 153 169 153 169 140.5 199.5 c 128,-1,6
 128 230 128 230 128 276 c 1,7,8
 88 259 88 259 45 256 c 1,9,10
 -9 -81 -9 -81 -47 -205 c 1,11,12
 -105 -400 -105 -400 -186 -400 c 0,13,14
 -240 -400 -240 -400 -240 -344 c 0,15,16
 -240 -319 -240 -319 -229 -282 c 0,17,18
 -198 -178 -198 -178 -114 -65 c 0,19,20
 -75 -13 -75 -13 -46 10 c 1,21,22
 -40 48 -40 48 -27 130.5 c 128,-1,23
 -14 213 -14 213 -7 256 c 1,24,-1
 -34 256 l 2,25,26
 -39 256 -39 256 -39 265.5 c 128,-1,27
 -39 275 -39 275 -34 275 c 2,28,-1
 -4 275 l 1,29,30
 45 588 45 588 100 706 c 0,31,32
 121 753 121 753 150 784 c 128,-1,33
 179 815 179 815 213 815 c 0,34,35
 276 815 276 815 276 723 c 0,36,37
 276 648 276 648 230 561 c 0,38,39
 174 456 174 456 96 432 c 1,40,-1
 73 427 l 1,41,42
 64 378 64 378 48 276 c 1,43,44
 90 279 90 279 129 298 c 1,45,46
 134 351 134 351 153.5 388.5 c 128,-1,47
 173 426 173 426 203 426 c 0,48,49
 227 426 227 426 227 398 c 0,50,51
 227 345 227 345 168 300 c 1,52,53
 167 285 167 285 167 270 c 0,0,1
204 575 m 0,54,55
 249 662 249 662 249 727 c 128,-1,56
 249 792 249 792 217 792 c 0,57,58
 172 792 172 792 140 704.5 c 128,-1,59
 108 617 108 617 78 453 c 1,60,61
 150 469 150 469 204 575 c 0,54,55
-51 -19 m 1,62,63
 -108 -78 -108 -78 -160 -188 c 128,-1,64
 -212 -298 -212 -298 -212 -335.5 c 128,-1,65
 -212 -373 -212 -373 -190 -373 c 0,66,67
 -144 -373 -144 -373 -112 -281 c 128,-1,68
 -80 -189 -80 -189 -51 -19 c 1,62,63
171 327 m 1,69,70
 189 344 189 344 198.5 363 c 128,-1,71
 208 382 208 382 208 393.5 c 128,-1,72
 208 405 208 405 202 407 c 1,73,74
 180 407 180 407 171 327 c 1,69,70
EndSplineSet
EndChar

StartChar: g
Encoding: 103 103 74
Width: 388
GlyphClass: 2
Flags: W
LayerCount: 2
Fore
SplineSet
267 365 m 0,0,1
 292 365 292 365 292 323 c 0,2,3
 292 293 292 293 259 149.5 c 128,-1,4
 226 6 226 6 200 -88 c 128,-1,5
 174 -182 174 -182 151 -227.5 c 128,-1,6
 128 -273 128 -273 95.5 -319 c 128,-1,7
 63 -365 63 -365 24 -382 c 128,-1,8
 -15 -399 -15 -399 -66 -399 c 0,9,10
 -161 -399 -161 -399 -161 -302 c 0,11,12
 -161 -245 -161 -245 -118 -179 c 0,13,14
 -56 -82 -56 -82 48 -51 c 0,15,16
 85 -40 85 -40 125 -40 c 0,17,18
 132 -40 132 -40 132 -54 c 128,-1,19
 132 -68 132 -68 125 -68 c 0,20,21
 7 -68 7 -68 -73 -161 c 0,22,23
 -132 -231 -132 -231 -132 -296 c 128,-1,24
 -132 -361 -132 -361 -82 -371 c 1,25,-1
 -66 -372 l 1,26,27
 16 -372 16 -372 64 -304 c 0,28,29
 113 -235 113 -235 141 -130 c 0,30,31
 169 -24 169 -24 213 202 c 1,32,-1
 205 202 l 1,33,34
 97 -1 97 -1 27 -1 c 0,35,36
 -52 -1 -52 -1 -52 118 c 0,37,38
 -52 187 -52 187 -16 269 c 0,39,40
 34 380 34 380 111 414 c 0,41,42
 138 425 138 425 165.5 425 c 128,-1,43
 193 425 193 425 209 409 c 128,-1,44
 225 393 225 393 225 373 c 0,45,46
 225 364 225 364 215.5 364.5 c 128,-1,47
 206 365 206 365 206 374 c 128,-1,48
 206 383 206 383 196.5 390.5 c 128,-1,49
 187 398 187 398 169 398 c 0,50,51
 106 398 106 398 55 285 c 0,52,53
 7 180 7 180 7 86 c 0,54,55
 7 28 7 28 32 28 c 0,56,57
 65 28 65 28 118 106 c 0,58,59
 198 224 198 224 243 337 c 0,60,61
 255 365 255 365 267 365 c 0,0,1
EndSplineSet
EndChar

StartChar: h
Encoding: 104 104 75
Width: 410
GlyphClass: 2
Flags: W
LayerCount: 2
Fore
SplineSet
201 815 m 0,0,1
 246 815 246 815 246 755 c 0,2,3
 246 740 246 740 243 720 c 0,4,5
 228 625 228 625 164 524 c 0,6,7
 118 451 118 451 77 432 c 1,8,9
 57 324 57 324 42 236 c 1,10,-1
 49 236 l 1,11,12
 133 423 133 423 219 423 c 0,13,14
 250 423 250 423 267.5 404 c 128,-1,15
 285 385 285 385 285 352 c 128,-1,16
 285 319 285 319 259 207.5 c 128,-1,17
 233 96 233 96 233 52 c 0,18,19
 233 -13 233 -13 257 -13 c 1,20,21
 257 -20 257 -20 248 -27 c 128,-1,22
 239 -34 239 -34 227 -34 c 0,23,24
 169 -34 169 -34 169 57 c 0,25,26
 169 113 169 113 198.5 223.5 c 128,-1,27
 228 334 228 334 228 366 c 128,-1,28
 228 398 228 398 203 398 c 0,29,30
 174 398 174 398 139 349 c 128,-1,31
 104 300 104 300 74 224 c 1,32,33
 24 102 24 102 -1 20 c 0,34,35
 -7 0 -7 0 -18 0 c 0,36,37
 -36 0 -36 0 -45 22 c 0,38,39
 -50 34 -50 34 -50 47.5 c 128,-1,40
 -50 61 -50 61 -42 97.5 c 128,-1,41
 -34 134 -34 134 -15.5 226 c 128,-1,42
 3 318 3 318 16 378.5 c 128,-1,43
 29 439 29 439 46 514.5 c 128,-1,44
 63 590 63 590 78.5 637.5 c 128,-1,45
 94 685 94 685 114 729 c 0,46,47
 152 815 152 815 201 815 c 0,0,1
223 753 m 0,48,49
 223 785 223 785 205 792 c 1,50,51
 146 792 146 792 83 462 c 1,52,53
 123 490 123 490 166 574 c 0,54,55
 223 687 223 687 223 753 c 0,48,49
EndSplineSet
EndChar

StartChar: i
Encoding: 105 105 76
Width: 230
GlyphClass: 2
Flags: W
LayerCount: 2
Fore
SplineSet
106 599 m 0,0,1
 129 599 129 599 129 568 c 128,-1,2
 129 537 129 537 99 518 c 0,3,4
 84 508 84 508 73 508 c 0,5,6
 57 508 57 508 54 518 c 2,7,-1
 53 521 l 1,8,9
 62 521 62 521 66 540.5 c 128,-1,10
 70 560 70 560 78.5 579.5 c 128,-1,11
 87 599 87 599 106 599 c 0,0,1
42 24 m 0,12,13
 68 24 68 24 115 93 c 128,-1,14
 162 162 162 162 196 231 c 2,15,-1
 230 300 l 1,16,-1
 257 300 l 1,17,18
 251 288 251 288 241.5 267.5 c 128,-1,19
 232 247 232 247 204 194.5 c 128,-1,20
 176 142 176 142 150.5 102 c 128,-1,21
 125 62 125 62 93.5 29.5 c 128,-1,22
 62 -3 62 -3 39 -3 c 0,23,24
 -35 -3 -35 -3 -35 93 c 0,25,26
 -35 165 -35 165 6 327 c 0,27,28
 10 344 10 344 12.5 353 c 128,-1,29
 15 362 15 362 18 376.5 c 128,-1,30
 21 391 21 391 24 403 c 0,31,32
 29 424 29 424 42 424 c 0,33,34
 60 424 60 424 68 398 c 0,35,36
 72 386 72 386 72 369 c 128,-1,37
 72 352 72 352 68 333.5 c 128,-1,38
 64 315 64 315 55 279 c 128,-1,39
 46 243 46 243 41 220 c 128,-1,40
 36 197 36 197 30 164 c 0,41,42
 19 109 19 109 19 66.5 c 128,-1,43
 19 24 19 24 42 24 c 0,12,13
EndSplineSet
EndChar

StartChar: j
Encoding: 106 106 77
Width: 174
GlyphClass: 2
Flags: W
LayerCount: 2
Fore
SplineSet
37 424 m 0,0,1
 55 424 55 424 63 398 c 0,2,3
 67 386 67 386 67 369 c 128,-1,4
 67 352 67 352 57 311.5 c 128,-1,5
 47 271 47 271 27.5 184 c 128,-1,6
 8 97 8 97 -6 36 c 128,-1,7
 -20 -25 -20 -25 -39 -98.5 c 128,-1,8
 -58 -172 -58 -172 -76 -221 c 128,-1,9
 -94 -270 -94 -270 -116 -314 c 0,10,11
 -160 -400 -160 -400 -220 -400 c 0,12,13
 -272 -400 -272 -400 -272 -348 c 0,14,15
 -272 -323 -272 -323 -259 -284 c 0,16,17
 -225 -182 -225 -182 -137 -69 c 1,18,19
 -90 -7 -90 -7 -56 14 c 1,20,21
 -39 91 -39 91 19 403 c 0,22,23
 22 424 22 424 37 424 c 0,0,1
-244 -344 m 0,24,25
 -244 -373 -244 -373 -223 -373 c 0,26,27
 -143 -373 -143 -373 -62 -13 c 1,28,29
 -118 -62 -118 -62 -181 -179 c 128,-1,30
 -244 -296 -244 -296 -244 -344 c 0,24,25
86 599 m 0,31,32
 109 599 109 599 109 568 c 128,-1,33
 109 537 109 537 79 518 c 0,34,35
 64 508 64 508 53 508 c 0,36,37
 37 508 37 508 34 518 c 2,38,-1
 33 521 l 1,39,40
 42 521 42 521 46 540.5 c 128,-1,41
 50 560 50 560 58.5 579.5 c 128,-1,42
 67 599 67 599 86 599 c 0,31,32
EndSplineSet
EndChar

StartChar: k
Encoding: 107 107 78
Width: 381
GlyphClass: 2
Flags: W
LayerCount: 2
Fore
SplineSet
196 260 m 0,0,1
 235 317 235 317 235 358 c 128,-1,2
 235 399 235 399 208 399 c 0,3,4
 176 399 176 399 138 345.5 c 128,-1,5
 100 292 100 292 70 218 c 0,6,7
 12 75 12 75 -1 20 c 1,8,9
 -7 0 -7 0 -18 0 c 0,10,11
 -36 0 -36 0 -45 22 c 0,12,13
 -50 34 -50 34 -50 47.5 c 128,-1,14
 -50 61 -50 61 -42 97.5 c 128,-1,15
 -34 134 -34 134 -15.5 226 c 128,-1,16
 3 318 3 318 16 378.5 c 128,-1,17
 29 439 29 439 46 514.5 c 128,-1,18
 63 590 63 590 78.5 637.5 c 128,-1,19
 94 685 94 685 114 729 c 0,20,21
 152 815 152 815 201 815 c 0,22,23
 246 815 246 815 246 755 c 0,24,25
 246 740 246 740 243 720 c 0,26,27
 228 625 228 625 164 524 c 0,28,29
 118 451 118 451 77 432 c 1,30,31
 70 395 70 395 58 326 c 128,-1,32
 46 257 46 257 41 230 c 1,33,-1
 46 230 l 1,34,35
 131 423 131 423 219 423 c 0,36,37
 285 423 285 423 285 350 c 0,38,39
 285 302 285 302 244.5 246 c 128,-1,40
 204 190 204 190 136 174 c 1,41,42
 170 161 170 161 193.5 128.5 c 128,-1,43
 217 96 217 96 226 66 c 0,44,45
 249 -13 249 -13 272 -13 c 1,46,47
 272 -20 272 -20 263 -27 c 128,-1,48
 254 -34 254 -34 242 -34 c 0,49,50
 208 -34 208 -34 188.5 -2 c 128,-1,51
 169 30 169 30 163 68 c 128,-1,52
 157 106 157 106 141 138 c 128,-1,53
 125 170 125 170 97 170 c 2,54,-1
 95 170 l 2,55,56
 86 170 86 170 82 184 c 1,57,58
 144 184 144 184 196 260 c 0,0,1
223 753 m 0,59,60
 223 785 223 785 205 792 c 1,61,62
 146 792 146 792 83 462 c 1,63,64
 123 490 123 490 166 574 c 0,65,66
 223 687 223 687 223 753 c 0,59,60
EndSplineSet
EndChar

StartChar: l
Encoding: 108 108 79
Width: 237
GlyphClass: 2
Flags: W
LayerCount: 2
Fore
SplineSet
219 627 m 0,0,1
 255 721 255 721 255 755 c 128,-1,2
 255 789 255 789 238 791 c 1,3,4
 191 791 191 791 140.5 640.5 c 128,-1,5
 90 490 90 490 61.5 328.5 c 128,-1,6
 33 167 33 167 33 100 c 0,7,8
 33 -13 33 -13 89 -13 c 1,9,10
 89 -20 89 -20 80 -27 c 128,-1,11
 71 -34 71 -34 59 -34 c 0,12,13
 -23 -34 -23 -34 -23 113 c 0,14,15
 -23 167 -23 167 -3 278.5 c 128,-1,16
 17 390 17 390 49 512 c 128,-1,17
 81 634 81 634 132 724.5 c 128,-1,18
 183 815 183 815 236 815 c 0,19,20
 278 815 278 815 278 762 c 0,21,22
 278 722 278 722 253 650 c 0,23,24
 205 510 205 510 115 370 c 0,25,26
 91 333 91 333 72 310 c 0,27,28
 67 304 67 304 67 314 c 0,29,30
 66 333 66 333 76 347 c 0,31,32
 158 470 158 470 219 627 c 0,0,1
EndSplineSet
EndChar

StartChar: m
Encoding: 109 109 80
Width: 617
GlyphClass: 2
Flags: W
LayerCount: 2
Fore
SplineSet
-15 0 m 0,0,1
 -43 0 -43 0 -43 43 c 0,2,3
 -43 66 -43 66 13 378 c 0,4,5
 16 399 16 399 31 399 c 0,6,7
 49 399 49 399 58 373 c 0,8,9
 63 359 63 359 63 342.5 c 128,-1,10
 63 326 63 326 59 307 c 2,11,-1
 44 231 l 1,12,-1
 50 231 l 1,13,14
 138 429 138 429 220 429 c 0,15,16
 248 429 248 429 264.5 409 c 128,-1,17
 281 389 281 389 281 361 c 0,18,19
 281 309 281 309 265 231 c 1,20,-1
 269 231 l 1,21,22
 354 416 354 416 436 416 c 0,23,24
 463 416 463 416 480 396 c 128,-1,25
 497 376 497 376 497 343 c 128,-1,26
 497 310 497 310 471.5 203 c 128,-1,27
 446 96 446 96 446 52 c 0,28,29
 446 -13 446 -13 470 -13 c 1,30,31
 470 -20 470 -20 461 -27 c 128,-1,32
 452 -34 452 -34 440 -34 c 0,33,34
 382 -34 382 -34 382 57 c 0,35,36
 382 114 382 114 411 221.5 c 128,-1,37
 440 329 440 329 440 359.5 c 128,-1,38
 440 390 440 390 420 390 c 0,39,40
 383 390 383 390 333.5 300.5 c 128,-1,41
 284 211 284 211 254.5 129 c 128,-1,42
 225 47 225 47 220 23.5 c 128,-1,43
 215 0 215 0 202 0 c 0,44,45
 174 0 174 0 174 43 c 0,46,47
 174 59 174 59 191 156 c 0,48,49
 224 334 224 334 224 368.5 c 128,-1,50
 224 403 224 403 204 403 c 0,51,52
 177 403 177 403 141 347.5 c 128,-1,53
 105 292 105 292 76 219 c 0,54,55
 13 65 13 65 2 20 c 0,56,57
 -2 0 -2 0 -15 0 c 0,0,1
EndSplineSet
EndChar

StartChar: n
Encoding: 110 110 81
Width: 407
GlyphClass: 2
Flags: W
LayerCount: 2
Fore
SplineSet
-15 0 m 0,0,1
 -43 0 -43 0 -43 43 c 0,2,3
 -43 66 -43 66 13 378 c 0,4,5
 16 399 16 399 31 399 c 0,6,7
 49 399 49 399 58 373 c 0,8,9
 63 359 63 359 63 342.5 c 128,-1,10
 63 326 63 326 59 307 c 2,11,-1
 43 227 l 1,12,-1
 49 227 l 1,13,14
 139 429 139 429 221 429 c 0,15,16
 253 429 253 429 270 409.5 c 128,-1,17
 287 390 287 390 287 356 c 128,-1,18
 287 322 287 322 260 209 c 128,-1,19
 233 96 233 96 233 52 c 0,20,21
 233 -13 233 -13 257 -13 c 1,22,23
 257 -20 257 -20 248 -27 c 128,-1,24
 239 -34 239 -34 227 -34 c 0,25,26
 169 -34 169 -34 169 57 c 0,27,28
 169 113 169 113 199.5 226.5 c 128,-1,29
 230 340 230 340 230 371.5 c 128,-1,30
 230 403 230 403 205 403 c 0,31,32
 169 403 169 403 118.5 309 c 128,-1,33
 68 215 68 215 37.5 129.5 c 128,-1,34
 7 44 7 44 2.5 22 c 128,-1,35
 -2 0 -2 0 -15 0 c 0,0,1
EndSplineSet
EndChar

StartChar: o
Encoding: 111 111 82
Width: 393
GlyphClass: 2
Flags: W
LayerCount: 2
Fore
SplineSet
23 132 m 0,0,1
 23 27 23 27 79 27 c 0,2,3
 117 27 117 27 150 74 c 0,4,5
 213 162 213 162 227 306 c 1,6,7
 192 321 192 321 178 355 c 0,8,9
 169 376 169 376 169 390.5 c 128,-1,10
 169 405 169 405 173 416 c 0,11,12
 182 443 182 443 206 443 c 128,-1,13
 230 443 230 443 242.5 412.5 c 128,-1,14
 255 382 255 382 255 335 c 0,15,16
 255 332 255 332 255 328 c 1,17,18
 267 324 267 324 290.5 324 c 128,-1,19
 314 324 314 324 332 343 c 128,-1,20
 350 362 350 362 350 378 c 0,21,22
 350 382 350 382 355 383.5 c 128,-1,23
 360 385 360 385 364.5 383 c 128,-1,24
 369 381 369 381 369 377 c 0,25,26
 369 348 369 348 344.5 322 c 128,-1,27
 320 296 320 296 279 296 c 0,28,29
 269 296 269 296 253 298 c 1,30,31
 247 230 247 230 224.5 163.5 c 128,-1,32
 202 97 202 97 162 48.5 c 128,-1,33
 122 0 122 0 76 0 c 0,34,35
 -11 0 -11 0 -31 93 c 0,36,37
 -36 120 -36 120 -36 148 c 0,38,39
 -36 211 -36 211 -7 283 c 0,40,41
 31 377 31 377 87 400 c 1,42,43
 116 410 116 410 127 403 c 128,-1,44
 138 396 138 396 141 387 c 1,45,46
 95 387 95 387 59 301 c 128,-1,47
 23 215 23 215 23 132 c 0,0,1
EndSplineSet
EndChar

StartChar: p
Encoding: 112 112 83
Width: 405
GlyphClass: 2
Flags: W
LayerCount: 2
Fore
SplineSet
122 27 m 0,0,1
 160 27 160 27 205 130 c 1,2,3
 251 239 251 239 251 329 c 0,4,5
 251 391 251 391 219 392 c 0,6,7
 188 392 188 392 148.5 342 c 128,-1,8
 109 292 109 292 77 224 c 0,9,10
 8 75 8 75 -9 1 c 0,11,12
 -62 -239 -62 -239 -82 -297 c 0,13,14
 -117 -399 -117 -399 -162 -399 c 0,15,16
 -197 -399 -197 -399 -197 -351 c 0,17,18
 -197 -323 -197 -323 -185 -277 c 0,19,20
 -154 -166 -154 -166 -88 -64 c 1,21,-1
 -61 -27 l 1,22,23
 -52 18 -52 18 -37 103 c 0,24,25
 -7 274 -7 274 6.5 329.5 c 128,-1,26
 20 385 20 385 38.5 405.5 c 128,-1,27
 57 426 57 426 70 426 c 0,28,29
 95 426 95 426 88 406 c 0,30,31
 63 324 63 324 36 212 c 1,32,-1
 43 212 l 1,33,34
 141 425 141 425 220 425 c 0,35,36
 284 425 284 425 300 343 c 0,37,38
 305 317 305 317 305 290 c 0,39,40
 305 224 305 224 275 147 c 0,41,42
 233 37 233 37 163 8 c 0,43,44
 142 -1 142 -1 121 -1 c 0,45,46
 72 -1 72 -1 64 53 c 0,47,48
 63 62 63 62 68 67 c 128,-1,49
 73 72 73 72 80 70 c 128,-1,50
 87 68 87 68 88 60 c 0,51,52
 93 27 93 27 122 27 c 0,0,1
-165 -372 m 0,53,54
 -126 -372 -126 -372 -69 -70 c 1,55,56
 -128 -162 -128 -162 -164 -274 c 0,57,58
 -180 -324 -180 -324 -180 -348 c 128,-1,59
 -180 -372 -180 -372 -165 -372 c 0,53,54
EndSplineSet
EndChar

StartChar: q
Encoding: 113 113 84
Width: 388
GlyphClass: 2
Flags: W
LayerCount: 2
Fore
SplineSet
-60 -35 m 0,0,1
 74 -35 74 -35 159 98 c 0,2,3
 229 206 229 206 229 328 c 0,4,5
 229 407 229 407 191 426 c 0,6,7
 182 431 182 431 172 431 c 1,8,9
 181 458 181 458 204 458 c 0,10,11
 262 458 262 458 278 383 c 0,12,13
 284 356 284 356 284 326 c 0,14,15
 284 258 284 258 253 177 c 0,16,17
 199 39 199 39 95 -20 c 0,18,19
 51 -46 51 -46 1 -52 c 1,20,21
 4 -53 4 -53 24.5 -65 c 128,-1,22
 45 -77 45 -77 55 -81 c 128,-1,23
 65 -85 65 -85 86 -92 c 1,24,25
 122 -106 122 -106 178.5 -106 c 128,-1,26
 235 -106 235 -106 254 -64 c 0,27,28
 265 -41 265 -41 255 -34 c 0,29,30
 253 -33 253 -33 251 -33 c 1,31,32
 253 -20 253 -20 266 -20 c 0,33,34
 283 -20 283 -20 283 -44 c 0,35,36
 283 -96 283 -96 236 -132 c 0,37,38
 204 -157 204 -157 156 -157 c 128,-1,39
 108 -157 108 -157 64 -132 c 128,-1,40
 20 -107 20 -107 -16 -82 c 128,-1,41
 -52 -57 -52 -57 -83 -57 c 1,42,43
 -79 -35 -79 -35 -60 -35 c 0,0,1
166 406 m 1,44,45
 110 406 110 406 67.5 317 c 128,-1,46
 25 228 25 228 25 140 c 128,-1,47
 25 52 25 52 77 52 c 1,48,49
 75 36 75 36 54 36 c 0,50,51
 -14 36 -14 36 -29 116 c 1,52,53
 -32 138 -32 138 -32 160 c 0,54,55
 -32 223 -32 223 -1 295 c 0,56,57
 40 391 40 391 103 414 c 0,58,59
 119 419 119 419 131 419 c 0,60,61
 153 419 153 419 166 406 c 1,44,45
EndSplineSet
EndChar

StartChar: r
Encoding: 114 114 85
Width: 322
GlyphClass: 2
Flags: W
LayerCount: 2
Fore
SplineSet
-14 0 m 0,0,1
 -42 0 -42 0 -42 43 c 0,2,3
 -42 66 -42 66 14 378 c 0,4,5
 18 399 18 399 32 399 c 0,6,7
 50 399 50 399 59 373 c 0,8,9
 64 359 64 359 64 342.5 c 128,-1,10
 64 326 64 326 60 307 c 2,11,-1
 44 225 l 1,12,-1
 49 225 l 1,13,14
 135 425 135 425 207 425 c 0,15,16
 247 425 247 425 260 386 c 0,17,18
 265 371 265 371 265 351.5 c 128,-1,19
 265 332 265 332 254 309 c 0,20,21
 235 270 235 270 197 270 c 0,22,23
 189 270 189 270 184.5 274 c 128,-1,24
 180 278 180 278 179 285 c 1,25,26
 187 285 187 285 200 314.5 c 128,-1,27
 213 344 213 344 215 369 c 128,-1,28
 217 394 217 394 198 398 c 1,29,30
 163 398 163 398 115 307 c 128,-1,31
 67 216 67 216 38 133 c 128,-1,32
 9 50 9 50 4 25 c 128,-1,33
 -1 0 -1 0 -14 0 c 0,0,1
EndSplineSet
EndChar

StartChar: s
Encoding: 115 115 86
Width: 317
GlyphClass: 2
Flags: W
LayerCount: 2
Fore
SplineSet
123 534 m 2,0,-1
 125 534 l 1,1,2
 134 533 134 533 139 526 c 128,-1,3
 144 519 144 519 144 511.5 c 128,-1,4
 144 504 144 504 130.5 480 c 128,-1,5
 117 456 117 456 117 441.5 c 128,-1,6
 117 427 117 427 121 414.5 c 128,-1,7
 125 402 125 402 146 354 c 0,8,9
 192 249 192 249 192 166.5 c 128,-1,10
 192 84 192 84 147.5 30 c 128,-1,11
 103 -24 103 -24 41.5 -24 c 128,-1,12
 -20 -24 -20 -24 -20 50.5 c 128,-1,13
 -20 125 -20 125 33 210 c 0,14,15
 64 259 64 259 100 284 c 0,16,17
 110 291 110 291 113.5 281 c 128,-1,18
 117 271 117 271 109 265 c 0,19,20
 51 223 51 223 19 132 c 0,21,22
 -10 50 -10 50 13 18 c 0,23,24
 21 6 21 6 36 6 c 0,25,26
 80 6 80 6 105 65 c 128,-1,27
 130 124 130 124 130 212 c 0,28,29
 130 288 130 288 112 353 c 128,-1,30
 94 418 94 418 92 428 c 1,31,32
 62 371 62 371 27 300 c 1,33,-1
 0 300 l 1,34,35
 57 413 57 413 88 470 c 1,36,37
 92 534 92 534 123 534 c 2,0,-1
EndSplineSet
EndChar

StartChar: t
Encoding: 116 116 87
Width: 247
GlyphClass: 2
Flags: W
LayerCount: 2
Fore
SplineSet
-28 437 m 0,0,1
 -28 448 -28 448 -14 448 c 2,2,-1
 38 448 l 1,3,4
 43 468 43 468 51 498 c 2,5,-1
 65 550 l 2,6,7
 71 573 71 573 75.5 592 c 128,-1,8
 80 611 80 611 93 611 c 0,9,10
 110 611 110 611 117 585 c 0,11,12
 120 574 120 574 120 558 c 128,-1,13
 120 542 120 542 114 517 c 2,14,-1
 95 448 l 1,15,-1
 157 448 l 2,16,17
 166 448 166 448 169.5 442 c 128,-1,18
 173 436 173 436 169.5 430.5 c 128,-1,19
 166 425 166 425 157 425 c 2,20,-1
 89 425 l 1,21,22
 27 192 27 192 27 95 c 0,23,24
 27 24 27 24 59 24 c 0,25,26
 85 24 85 24 132 93 c 128,-1,27
 179 162 179 162 213 231 c 2,28,-1
 247 300 l 1,29,-1
 274 300 l 1,30,31
 268 288 268 288 258.5 267.5 c 128,-1,32
 249 247 249 247 221 194.5 c 128,-1,33
 193 142 193 142 167.5 102 c 128,-1,34
 142 62 142 62 110.5 29.5 c 128,-1,35
 79 -3 79 -3 52 -3 c 128,-1,36
 25 -3 25 -3 5.5 14.5 c 128,-1,37
 -14 32 -14 32 -19.5 64.5 c 128,-1,38
 -25 97 -25 97 -25 131 c 0,39,40
 -25 210 -25 210 31 425 c 1,41,-1
 -14 425 l 2,42,43
 -22 425 -22 425 -25 429.5 c 128,-1,44
 -28 434 -28 434 -28 437 c 0,0,1
EndSplineSet
EndChar

StartChar: u
Encoding: 117 117 88
Width: 467
GlyphClass: 2
Flags: W
LayerCount: 2
Fore
SplineSet
279 24 m 0,0,1
 305 24 305 24 352 93 c 128,-1,2
 399 162 399 162 433 231 c 2,3,-1
 467 300 l 1,4,-1
 494 300 l 1,5,6
 488 288 488 288 478.5 267.5 c 128,-1,7
 469 247 469 247 441 194.5 c 128,-1,8
 413 142 413 142 387.5 102 c 128,-1,9
 362 62 362 62 330.5 29.5 c 128,-1,10
 299 -3 299 -3 271 -3 c 128,-1,11
 243 -3 243 -3 225 14 c 0,12,13
 203 36 203 36 203 91 c 128,-1,14
 203 146 203 146 222 236 c 1,15,-1
 215 236 l 1,16,17
 100 0 100 0 24 0 c 0,18,19
 -43 0 -43 0 -43 87 c 0,20,21
 -43 150 -43 150 11 338 c 0,22,23
 23 381 23 381 29 402.5 c 128,-1,24
 35 424 35 424 48 424 c 0,25,26
 66 424 66 424 74 398 c 0,27,28
 78 387 78 387 78 370.5 c 128,-1,29
 78 354 78 354 73 334.5 c 128,-1,30
 68 315 68 315 52 260 c 0,31,32
 9 112 9 112 9 61 c 0,33,34
 9 28 9 28 29 28 c 0,35,36
 54 28 54 28 88 73 c 0,37,38
 124 120 124 120 147 164 c 128,-1,39
 170 208 170 208 184 236 c 128,-1,40
 198 264 198 264 212 294.5 c 128,-1,41
 226 325 226 325 234.5 345 c 128,-1,42
 243 365 243 365 251 383.5 c 128,-1,43
 259 402 259 402 259 403 c 0,44,45
 268 424 268 424 279 424 c 0,46,47
 297 424 297 424 305 398 c 0,48,49
 309 386 309 386 309 369 c 128,-1,50
 309 352 309 352 305 333.5 c 128,-1,51
 301 315 301 315 292 279 c 128,-1,52
 283 243 283 243 278 220 c 128,-1,53
 273 197 273 197 266 164 c 0,54,55
 256 109 256 109 256 66.5 c 128,-1,56
 256 24 256 24 279 24 c 0,0,1
EndSplineSet
EndChar

StartChar: v
Encoding: 118 118 89
Width: 362
GlyphClass: 2
Flags: W
LayerCount: 2
Fore
SplineSet
204 443 m 0,0,1
 247 443 247 443 247 360 c 0,2,3
 247 345 247 345 245 329 c 1,4,5
 262 324 262 324 284 324 c 128,-1,6
 306 324 306 324 324 343 c 128,-1,7
 342 362 342 362 342 378 c 0,8,9
 342 382 342 382 347 383.5 c 128,-1,10
 352 385 352 385 356.5 383 c 128,-1,11
 361 381 361 381 361 377 c 0,12,13
 361 348 361 348 336.5 322 c 128,-1,14
 312 296 312 296 271 296 c 0,15,16
 255 296 255 296 242 299 c 1,17,18
 216 139 216 139 138 48 c 0,19,20
 97 0 97 0 58 0 c 0,21,22
 -14 0 -14 0 -30 48 c 0,23,24
 -39 74 -39 74 -39 103 c 128,-1,25
 -39 132 -39 132 -31 172 c 0,26,27
 -18 237 -18 237 23 381 c 0,28,29
 29 402 29 402 42 402 c 0,30,31
 60 402 60 402 68 376 c 0,32,33
 72 365 72 365 72 348.5 c 128,-1,34
 72 332 72 332 66 309 c 0,35,36
 28 166 28 166 23 136.5 c 128,-1,37
 18 107 18 107 18 86 c 0,38,39
 18 27 18 27 55 27 c 0,40,41
 109 27 109 27 155.5 117 c 128,-1,42
 202 207 202 207 219 308 c 1,43,44
 189 324 189 324 179.5 350.5 c 128,-1,45
 170 377 170 377 170 391.5 c 128,-1,46
 170 406 170 406 174 417 c 0,47,48
 182 443 182 443 204 443 c 0,0,1
EndSplineSet
EndChar

StartChar: w
Encoding: 119 119 90
Width: 574
GlyphClass: 2
Flags: W
LayerCount: 2
Fore
SplineSet
277 27 m 0,0,1
 314 27 314 27 348 74 c 0,2,3
 409 160 409 160 430 306 c 1,4,5
 398 322 398 322 387.5 349 c 128,-1,6
 377 376 377 376 377 391 c 0,7,8
 377 443 377 443 411 443 c 0,9,10
 453 443 453 443 453 350 c 0,11,12
 453 340 453 340 453 329 c 1,13,14
 468 324 468 324 490.5 324 c 128,-1,15
 513 324 513 324 531 343 c 128,-1,16
 549 362 549 362 549 378 c 0,17,18
 549 382 549 382 553.5 383.5 c 128,-1,19
 558 385 558 385 563 383 c 128,-1,20
 568 381 568 381 568 377 c 0,21,22
 568 348 568 348 543.5 322 c 128,-1,23
 519 296 519 296 478 296 c 0,24,25
 463 296 463 296 451 299 c 1,26,27
 433 141 433 141 358 48 c 0,28,29
 319 0 319 0 275 0 c 0,30,31
 205 0 205 0 181 74 c 1,32,33
 122 0 122 0 68 0 c 0,34,35
 -8 0 -8 0 -26 52 c 0,36,37
 -36 80 -36 80 -36 112 c 128,-1,38
 -36 144 -36 144 -29 183 c 0,39,40
 -14 257 -14 257 29 404 c 0,41,42
 35 425 35 425 48 425 c 0,43,44
 66 425 66 425 74 400 c 0,45,46
 78 388 78 388 78 371.5 c 128,-1,47
 78 355 78 355 73 337 c 128,-1,48
 68 319 68 319 61 293 c 128,-1,49
 54 267 54 267 49 249 c 128,-1,50
 44 231 44 231 37.5 205 c 128,-1,51
 31 179 31 179 27.5 160 c 128,-1,52
 24 141 24 141 21.5 119 c 128,-1,53
 19 97 19 97 21 81.5 c 128,-1,54
 23 66 23 66 28 53 c 0,55,56
 38 27 38 27 70 27 c 0,57,58
 118 27 118 27 173 106 c 1,59,60
 169 130 169 130 169 155 c 0,61,62
 169 222 169 222 194 298 c 0,63,64
 229 402 229 402 265 402 c 0,65,66
 294 402 294 402 294 357 c 0,67,68
 294 339 294 339 289 315 c 0,69,70
 274 230 274 230 223 139 c 1,71,72
 232 27 232 27 277 27 c 0,0,1
257 275 m 128,-1,74
 271 317 271 317 272.5 331.5 c 128,-1,75
 274 346 274 346 274 356 c 128,-1,76
 274 366 274 366 266 368 c 1,77,78
 249 368 249 368 236 312.5 c 128,-1,79
 223 257 223 257 222 190 c 1,80,73
 243 233 243 233 257 275 c 128,-1,74
EndSplineSet
EndChar

StartChar: x
Encoding: 120 120 91
Width: 392
GlyphClass: 2
Flags: W
LayerCount: 2
Fore
SplineSet
278 -13 m 1,0,1
 275 -34 275 -34 248.5 -34 c 128,-1,2
 222 -34 222 -34 200.5 -16.5 c 128,-1,3
 179 1 179 1 161 36 c 0,4,5
 132 92 132 92 105 185 c 1,6,7
 46 112 46 112 8 61 c 128,-1,8
 -30 10 -30 10 -32 8 c 0,9,10
 -38 0 -38 0 -42 8.5 c 128,-1,11
 -46 17 -46 17 -46 24.5 c 128,-1,12
 -46 32 -46 32 -41 38.5 c 128,-1,13
 -36 45 -36 45 -17 72 c 0,14,15
 31 138 31 138 94 221 c 1,16,17
 54 353 54 353 34 375 c 0,18,19
 23 387 23 387 10 387 c 1,20,21
 18 411 18 411 48 411 c 0,22,23
 91 411 91 411 138 275 c 1,24,25
 260 425 260 425 300 425 c 0,26,27
 310 425 310 425 317 418.5 c 128,-1,28
 324 412 324 412 327 399 c 1,29,30
 285 399 285 399 149 239 c 1,31,32
 153 226 153 226 161.5 200 c 128,-1,33
 170 174 170 174 174.5 159.5 c 128,-1,34
 179 145 179 145 187 122 c 128,-1,35
 195 99 195 99 200.5 85.5 c 128,-1,36
 206 72 206 72 214 54 c 128,-1,37
 222 36 222 36 229 26 c 128,-1,38
 236 16 236 16 244 6 c 0,39,40
 259 -13 259 -13 278 -13 c 1,0,1
EndSplineSet
EndChar

StartChar: y
Encoding: 121 121 92
Width: 404
GlyphClass: 2
Flags: W
LayerCount: 2
Fore
SplineSet
-57 -399 m 0,0,1
 -152 -399 -152 -399 -152 -302 c 0,2,3
 -152 -245 -152 -245 -109 -179 c 0,4,5
 -47 -82 -47 -82 57 -51 c 0,6,7
 94 -40 94 -40 134 -40 c 0,8,9
 141 -40 141 -40 141 -54 c 128,-1,10
 141 -68 141 -68 134 -68 c 0,11,12
 16 -68 16 -68 -64 -161 c 0,13,14
 -123 -231 -123 -231 -123 -296 c 128,-1,15
 -123 -361 -123 -361 -73 -371 c 1,16,-1
 -57 -372 l 1,17,18
 26 -372 26 -372 76 -302 c 0,19,20
 111 -252 111 -252 128.5 -200.5 c 128,-1,21
 146 -149 146 -149 154.5 -118 c 128,-1,22
 163 -87 163 -87 174 -36.5 c 128,-1,23
 185 14 185 14 191.5 49 c 128,-1,24
 198 84 198 84 210.5 149.5 c 128,-1,25
 223 215 223 215 230 253 c 1,26,-1
 224 253 l 1,27,28
 103 0 103 0 25 0 c 0,29,30
 -42 0 -42 0 -42 87 c 0,31,32
 -42 150 -42 150 12 338 c 0,33,34
 24 381 24 381 30 402.5 c 128,-1,35
 36 424 36 424 49 424 c 0,36,37
 67 424 67 424 75 398 c 0,38,39
 79 387 79 387 79 370.5 c 128,-1,40
 79 354 79 354 74 334.5 c 128,-1,41
 69 315 69 315 53 260 c 0,42,43
 10 112 10 112 10 61 c 0,44,45
 10 28 10 28 30 28 c 0,46,47
 54 28 54 28 89.5 73 c 128,-1,48
 125 118 125 118 159 183 c 0,49,50
 221 301 221 301 260 403 c 0,51,52
 268 424 268 424 280 424 c 0,53,54
 297 424 297 424 305 398 c 0,55,56
 309 384 309 384 309 367 c 128,-1,57
 309 350 309 350 292.5 269 c 128,-1,58
 276 188 276 188 259.5 114 c 128,-1,59
 243 40 243 40 216.5 -60 c 128,-1,60
 190 -160 190 -160 166.5 -209 c 128,-1,61
 143 -258 143 -258 109.5 -309 c 128,-1,62
 76 -360 76 -360 35 -379.5 c 128,-1,63
 -6 -399 -6 -399 -57 -399 c 0,0,1
EndSplineSet
EndChar

StartChar: z
Encoding: 122 122 93
Width: 409
GlyphClass: 2
Flags: W
LayerCount: 2
Fore
SplineSet
-9.5 24.5 m 128,-1,1
 -28 0 -28 0 -43 0 c 128,-1,2
 -58 0 -58 0 -58 7 c 0,3,4
 -58 10 -58 10 -56 12 c 0,5,6
 79 182 79 182 218 329 c 1,7,8
 188 321 188 321 158 321 c 0,9,10
 71 321 71 321 49 372 c 0,11,12
 44 385 44 385 44 400.5 c 128,-1,13
 44 416 44 416 58.5 432.5 c 128,-1,14
 73 449 73 449 91 449 c 128,-1,15
 109 449 109 449 117.5 442.5 c 128,-1,16
 126 436 126 436 129 423 c 1,17,18
 114 423 114 423 110 406 c 0,19,20
 109 401 109 401 109 397 c 0,21,22
 109 377 109 377 137 366 c 0,23,24
 155 359 155 359 190.5 359 c 128,-1,25
 226 359 226 359 260 372 c 1,26,27
 315 425 315 425 331 425 c 0,28,29
 339 425 339 425 339 419 c 128,-1,30
 339 413 339 413 324 392 c 128,-1,31
 309 371 309 371 267 348 c 1,32,33
 193 266 193 266 33 76 c 1,34,35
 37 77 37 77 49.5 77 c 128,-1,36
 62 77 62 77 102.5 58 c 128,-1,37
 143 39 143 39 175 39 c 0,38,39
 233 39 233 39 253 86 c 0,40,41
 259 101 259 101 259 114.5 c 128,-1,42
 259 128 259 128 252 137 c 128,-1,43
 245 146 245 146 235 146 c 1,44,45
 237 159 237 159 250 159 c 0,46,47
 287 159 287 159 287 101 c 0,48,49
 287 59 287 59 255 18 c 128,-1,50
 223 -23 223 -23 165 -23 c 0,51,52
 137 -23 137 -23 115 -11.5 c 128,-1,53
 93 0 93 0 82 13 c 0,54,55
 50 49 50 49 29.5 49 c 128,-1,0
 9 49 9 49 -9.5 24.5 c 128,-1,1
EndSplineSet
EndChar

StartChar: braceleft
Encoding: 123 123 94
Width: 403
GlyphClass: 2
Flags: W
LayerCount: 2
Fore
SplineSet
61 358 m 0,0,1
 53 358 53 358 53 371.5 c 128,-1,2
 53 385 53 385 60 385 c 0,3,4
 98 385 98 385 119.5 429.5 c 128,-1,5
 141 474 141 474 152.5 537 c 128,-1,6
 164 600 164 600 179.5 663.5 c 128,-1,7
 195 727 195 727 233.5 771.5 c 128,-1,8
 272 816 272 816 335 816 c 0,9,10
 349 816 349 816 354 804 c 1,11,-1
 355 799 l 1,12,13
 303 799 303 799 271.5 771.5 c 128,-1,14
 240 744 240 744 230 702.5 c 128,-1,15
 220 661 220 661 212 609.5 c 128,-1,16
 204 558 204 558 199 511 c 128,-1,17
 194 464 194 464 174 424.5 c 128,-1,18
 154 385 154 385 119 369 c 1,19,20
 141 348 141 348 141 302 c 128,-1,21
 141 256 141 256 132 211 c 0,22,23
 104 74 104 74 104 6 c 0,24,25
 104 -30 104 -30 122 -56.5 c 128,-1,26
 140 -83 140 -83 183 -83 c 1,27,28
 179 -100 179 -100 163 -100 c 0,29,30
 109 -100 109 -100 88 -53 c 0,31,32
 72 -15 72 -15 72 36 c 0,33,34
 72 84 72 84 82.5 164.5 c 128,-1,35
 93 245 93 245 93 271.5 c 128,-1,36
 93 298 93 298 92 311 c 0,37,38
 89 358 89 358 61 358 c 0,0,1
EndSplineSet
EndChar

StartChar: bar
Encoding: 124 124 95
Width: 404
GlyphClass: 2
Flags: W
LayerCount: 2
Fore
SplineSet
153 -141 m 0,0,1
 145 -141 145 -141 143 -121 c 1,2,3
 149 357 149 357 159 619 c 1,4,5
 160 701 160 701 196 701 c 0,6,7
 212 701 212 701 212 677 c 0,8,9
 212 667 212 667 194 325 c 128,-1,10
 176 -17 176 -17 174 -77 c 0,11,12
 172 -141 172 -141 153 -141 c 0,0,1
EndSplineSet
EndChar

StartChar: braceright
Encoding: 125 125 96
Width: 356
GlyphClass: 2
Flags: W
LayerCount: 2
Fore
SplineSet
205 346 m 1,0,1
 182 368 182 368 182 414.5 c 128,-1,2
 182 461 182 461 191 505 c 0,3,4
 220 646 220 646 220 696 c 128,-1,5
 220 746 220 746 202 772.5 c 128,-1,6
 184 799 184 799 141 799 c 1,7,8
 145 816 145 816 161 816 c 0,9,10
 215 816 215 816 236 769 c 1,11,12
 252 730 252 730 252 678 c 0,13,14
 252 627 252 627 242 549 c 128,-1,15
 232 471 232 471 232 444.5 c 128,-1,16
 232 418 232 418 232 405 c 1,17,18
 236 358 236 358 264 358 c 0,19,20
 272 358 272 358 272 344.5 c 128,-1,21
 272 331 272 331 264 331 c 0,22,23
 226 331 226 331 204.5 286.5 c 128,-1,24
 183 242 183 242 171.5 179 c 128,-1,25
 160 116 160 116 144.5 52.5 c 128,-1,26
 129 -11 129 -11 90.5 -55.5 c 128,-1,27
 52 -100 52 -100 -10 -100 c 0,28,29
 -24 -100 -24 -100 -28 -88 c 2,30,-1
 -30 -83 l 1,31,32
 31 -83 31 -83 63 -45.5 c 128,-1,33
 95 -8 95 -8 104 49 c 128,-1,34
 113 106 113 106 118 165 c 0,35,36
 132 313 132 313 205 346 c 1,0,1
EndSplineSet
EndChar

StartChar: asciitilde
Encoding: 126 126 97
Width: 496
GlyphClass: 2
Flags: W
LayerCount: 2
Fore
SplineSet
367 410 m 0,0,1
 330 410 330 410 268 390 c 128,-1,2
 206 370 206 370 178 370 c 128,-1,3
 150 370 150 370 128 384 c 128,-1,4
 106 398 106 398 96 412 c 2,5,-1
 87 425 l 1,6,-1
 113 425 l 1,7,8
 130 402 130 402 163 402 c 128,-1,9
 196 402 196 402 259 426.5 c 128,-1,10
 322 451 322 451 358 451 c 128,-1,11
 394 451 394 451 428.5 431.5 c 128,-1,12
 463 412 463 412 480 392 c 2,13,-1
 496 373 l 1,14,-1
 470 373 l 1,15,16
 429 410 429 410 374 410 c 0,17,18
 371 410 371 410 367 410 c 0,0,1
EndSplineSet
EndChar

StartChar: exclamdown
Encoding: 161 161 98
Width: 459
GlyphClass: 2
Flags: W
LayerCount: 2
Fore
SplineSet
257 426 m 0,0,1
 281 426 281 426 281 395 c 128,-1,2
 281 364 281 364 252 345 c 0,3,4
 238 335 238 335 227 335 c 0,5,6
 211 335 211 335 207 348 c 1,7,8
 221 348 221 348 224 387 c 0,9,10
 226 402 226 402 234 414 c 128,-1,11
 242 426 242 426 257 426 c 0,0,1
193 241 m 0,12,13
 193 254 193 254 212.5 254 c 128,-1,14
 232 254 232 254 232 241 c 0,15,16
 232 150 232 150 128 48 c 0,17,18
 84 5 84 5 40.5 -38.5 c 128,-1,19
 -3 -82 -3 -82 -33.5 -139 c 128,-1,20
 -64 -196 -64 -196 -64 -258 c 0,21,22
 -64 -349 -64 -349 23 -349 c 0,23,24
 98 -349 98 -349 139 -268 c 1,25,26
 162 -220 162 -220 162 -175 c 0,27,28
 162 -157 162 -157 158 -139 c 0,29,30
 147 -87 147 -87 108 -87 c 1,31,32
 108 -73 108 -73 130 -73 c 0,33,34
 192 -73 192 -73 210 -134 c 0,35,36
 216 -154 216 -154 216 -174 c 0,37,38
 216 -219 216 -219 189 -268 c 0,39,40
 130 -374 130 -374 8 -374 c 0,41,42
 -60 -374 -60 -374 -95 -341.5 c 128,-1,43
 -130 -309 -130 -309 -130 -258.5 c 128,-1,44
 -130 -208 -130 -208 -112 -166.5 c 128,-1,45
 -94 -125 -94 -125 -65.5 -92 c 128,-1,46
 -37 -59 -37 -59 -2.5 -27 c 128,-1,47
 32 5 32 5 66 36 c 128,-1,48
 100 67 100 67 128 98 c 0,49,50
 193 168 193 168 193 241 c 0,12,13
EndSplineSet
EndChar

StartChar: cent
Encoding: 162 162 99
Width: 339
GlyphClass: 2
Flags: W
LayerCount: 2
Fore
SplineSet
171 534 m 0,0,1
 173 534 173 534 175 532 c 1,2,3
 187 527 187 527 187 509.5 c 128,-1,4
 187 492 187 492 186 481 c 2,5,-1
 178 424 l 1,6,7
 210 418 210 418 222 392 c 0,8,9
 230 377 230 377 230 365 c 128,-1,10
 230 353 230 353 226 344 c 0,11,12
 218 320 218 320 199 320 c 0,13,14
 191 320 191 320 187 331 c 1,15,16
 192 331 192 331 196 345.5 c 128,-1,17
 200 360 200 360 195 376.5 c 128,-1,18
 190 393 190 393 174 397 c 1,19,-1
 115 26 l 1,20,21
 142 30 142 30 168 52 c 128,-1,22
 194 74 194 74 206 94 c 2,23,-1
 219 114 l 1,24,-1
 246 114 l 1,25,26
 211 43 211 43 157 13 c 0,27,28
 134 0 134 0 111 -2 c 1,29,30
 97 -95 97 -95 95.5 -104.5 c 128,-1,31
 94 -114 94 -114 91 -114 c 0,32,33
 77 -114 77 -114 77 -87 c 0,34,35
 77 -79 77 -79 78 -70 c 2,36,-1
 87 -1 l 1,37,38
 -6 7 -6 7 -30 98 c 0,39,40
 -38 127 -38 127 -38 158 c 0,41,42
 -38 218 -38 218 -9 285 c 0,43,44
 34 382 34 382 109 414 c 0,45,46
 128 422 128 422 149 424 c 1,47,-1
 164 523 l 2,48,49
 166 534 166 534 171 534 c 0,0,1
22 142 m 0,50,51
 22 34 22 34 91 25 c 1,52,53
 117 211 117 211 145 395 c 1,54,55
 94 378 94 378 58 297 c 128,-1,56
 22 216 22 216 22 142 c 0,50,51
EndSplineSet
EndChar

StartChar: sterling
Encoding: 163 163 100
Width: 697
GlyphClass: 2
Flags: W
LayerCount: 2
Fore
SplineSet
192 275 m 2,0,1
 180 275 180 275 181 282 c 0,2,3
 183 296 183 296 218 299 c 2,4,-1
 231 300 l 1,5,-1
 292 300 l 1,6,7
 322 457 322 457 345 512 c 0,8,9
 393 629 393 629 493 629 c 0,10,11
 576 629 576 629 606 563 c 0,12,13
 618 537 618 537 618 511 c 128,-1,14
 618 485 618 485 605 458 c 1,15,16
 580 411 580 411 529 410 c 0,17,18
 510 410 510 410 502 424 c 2,19,-1
 499 429 l 1,20,21
 525 429 525 429 544 447 c 0,22,23
 575 475 575 475 575 525 c 0,24,25
 575 564 575 564 551.5 583.5 c 128,-1,26
 528 603 528 603 501.5 603 c 128,-1,27
 475 603 475 603 459.5 598 c 128,-1,28
 444 593 444 593 432 581.5 c 128,-1,29
 420 570 420 570 411 559 c 128,-1,30
 402 548 402 548 394 526 c 128,-1,31
 386 504 386 504 381 489 c 128,-1,32
 376 474 376 474 370 445 c 128,-1,33
 364 416 364 416 362 400 c 0,34,35
 351 329 351 329 345 298 c 1,36,37
 380 297 380 297 485 297 c 0,38,39
 496 297 496 297 495 291 c 0,40,41
 491 277 491 277 453 277 c 0,42,43
 373 277 373 277 341 276 c 1,44,45
 309 93 309 93 240 28 c 1,46,47
 344 -29 344 -29 402 -29 c 0,48,49
 475 -29 475 -29 498 22 c 0,50,51
 505 38 505 38 505 52 c 128,-1,52
 505 66 505 66 497.5 75.5 c 128,-1,53
 490 85 490 85 480 85 c 1,54,55
 483 97 483 97 495 97 c 0,56,57
 529 97 529 97 540 59 c 0,58,59
 544 46 544 46 544 34 c 0,60,61
 544 4 544 4 521 -22 c 0,62,63
 489 -60 489 -60 426 -60 c 0,64,65
 388 -60 388 -60 347.5 -48 c 128,-1,66
 307 -36 307 -36 282.5 -23.5 c 128,-1,67
 258 -11 258 -11 219 11 c 1,68,69
 170 -24 170 -24 90.5 -24 c 128,-1,70
 11 -24 11 -24 -8 18 c 0,71,72
 -12 28 -12 28 -12 37 c 0,73,74
 -12 57 -12 57 11.5 76 c 128,-1,75
 35 95 35 95 78.5 95 c 128,-1,76
 122 95 122 95 205 49 c 1,77,78
 254 104 254 104 288 275 c 1,79,-1
 192 275 l 2,0,1
16 35 m 0,80,81
 16 20 16 20 39 10 c 128,-1,82
 62 0 62 0 106 0 c 128,-1,83
 150 0 150 0 186 30 c 1,84,85
 115 70 115 70 72 70 c 128,-1,86
 29 70 29 70 18 45 c 0,87,88
 16 40 16 40 16 35 c 0,80,81
EndSplineSet
EndChar

StartChar: currency
Encoding: 164 164 101
Width: 576
GlyphClass: 2
Flags: W
LayerCount: 2
Fore
SplineSet
414 407 m 0,0,1
 425 407 425 407 425 397 c 0,2,3
 425 391 425 391 420 385 c 2,4,-1
 360 325 l 1,5,6
 377 297 377 297 377 257 c 0,7,8
 377 182 377 182 333 116 c 1,9,-1
 399 50 l 2,10,11
 405 44 405 44 403.5 37.5 c 128,-1,12
 402 31 402 31 396 29.5 c 128,-1,13
 390 28 390 28 383 34 c 2,14,-1
 319 98 l 1,15,16
 272 41 272 41 215 41 c 128,-1,17
 158 41 158 41 132 78 c 1,18,-1
 84 30 l 2,19,20
 79 25 79 25 74 25 c 0,21,22
 63 25 63 25 63 35 c 0,23,24
 63 40 63 40 68 46 c 2,25,-1
 121 99 l 1,26,27
 113 120 113 120 113 150 c 128,-1,28
 113 180 113 180 132 220 c 0,29,30
 164 287 164 287 222 301 c 0,31,32
 228 302 228 302 231 298 c 128,-1,33
 234 294 234 294 233 289 c 128,-1,34
 232 284 232 284 229 283 c 0,35,36
 196 274 196 274 177 219 c 0,37,38
 164 182 164 182 164 147 c 0,39,40
 164 61 164 61 215 61 c 128,-1,41
 266 61 266 61 298 127 c 128,-1,42
 330 193 330 193 330 254 c 0,43,44
 330 343 330 343 278 343 c 0,45,46
 246 343 246 343 225.5 325 c 128,-1,47
 205 307 205 307 191 311 c 0,48,49
 186 312 186 312 189 316 c 1,50,-1
 121 384 l 2,51,52
 115 390 115 390 116.5 397 c 128,-1,53
 118 404 118 404 124.5 405 c 128,-1,54
 131 406 131 406 138 400 c 2,55,-1
 205 332 l 1,56,57
 241 363 241 363 281.5 363 c 128,-1,58
 322 363 322 363 345 343 c 1,59,-1
 404 402 l 2,60,61
 409 407 409 407 414 407 c 0,0,1
EndSplineSet
EndChar

StartChar: yen
Encoding: 165 165 102
Width: 626
GlyphClass: 2
Flags: W
LayerCount: 2
Fore
SplineSet
278 71 m 2,0,1
 266 71 266 71 267 77 c 1,2,3
 279 91 279 91 317 93 c 1,4,-1
 351 93 l 1,5,6
 369 147 369 147 382 217 c 1,7,8
 314 146 314 146 264 146 c 0,9,10
 176 146 176 146 176 231 c 0,11,12
 176 279 176 279 210 382 c 128,-1,13
 244 485 244 485 244 541 c 0,14,15
 244 627 244 627 165 627 c 0,16,17
 98 627 98 627 58 558 c 0,18,19
 31 512 31 512 31 465 c 0,20,21
 31 444 31 444 36 422 c 1,22,23
 55 354 55 354 128 354 c 1,24,25
 126 337 126 337 101 337 c 0,26,27
 31 337 31 337 10 407 c 0,28,29
 3 432 3 432 3 467.5 c 128,-1,30
 3 503 3 503 25 551 c 0,31,32
 72 651 72 651 165 651 c 0,33,34
 227 651 227 651 261 612.5 c 128,-1,35
 295 574 295 574 295 516 c 128,-1,36
 295 458 295 458 262 353.5 c 128,-1,37
 229 249 229 249 229 210 c 128,-1,38
 229 171 229 171 263 171 c 0,39,40
 319 171 319 171 389 258 c 1,41,42
 405 373 405 373 423.5 435 c 128,-1,43
 442 497 442 497 457 513.5 c 128,-1,44
 472 530 472 530 492 530 c 0,45,46
 526 530 526 530 526 491 c 0,47,48
 526 472 526 472 518 444 c 0,49,50
 499 380 499 380 450 304 c 1,51,52
 434 170 434 170 409 91 c 1,53,-1
 460 90 l 2,54,55
 471 90 471 90 470 85 c 0,56,57
 468 73 468 73 428 73 c 1,58,59
 416 72 416 72 403 72 c 1,60,-1
 385 28 l 1,61,-1
 440 27 l 2,62,63
 451 27 451 27 450 22 c 0,64,65
 448 10 448 10 408 10 c 1,66,67
 393 9 393 9 375 9 c 1,68,69
 309 -115 309 -115 182 -115 c 0,70,71
 87 -115 87 -115 60 -52 c 0,72,73
 52 -33 52 -33 52 -11.5 c 128,-1,74
 52 10 52 10 69.5 36 c 128,-1,75
 87 62 87 62 119 62 c 0,76,77
 138 62 138 62 142 50 c 2,78,-1
 144 45 l 1,79,80
 102 45 102 45 87 6 c 0,81,82
 81 -8 81 -8 81 -26.5 c 128,-1,83
 81 -45 81 -45 101.5 -68 c 128,-1,84
 122 -91 122 -91 167 -91 c 0,85,86
 261 -91 261 -91 316 8 c 1,87,-1
 258 8 l 2,88,89
 246 8 246 8 247 14 c 1,90,91
 259 28 259 28 297 30 c 1,92,-1
 327 30 l 1,93,94
 337 53 337 53 344 71 c 1,95,-1
 278 71 l 2,0,1
499 478 m 0,96,97
 499 498 499 498 487 498 c 128,-1,98
 475 498 475 498 469 467.5 c 128,-1,99
 463 437 463 437 459 400 c 128,-1,100
 455 363 455 363 455 359 c 1,101,102
 499 441 499 441 499 478 c 0,96,97
EndSplineSet
EndChar

StartChar: brokenbar
Encoding: 166 166 103
Width: 413
GlyphClass: 2
Flags: W
LayerCount: 2
Fore
SplineSet
196 701 m 0,0,1
 212 701 212 701 212 673 c 128,-1,2
 212 645 212 645 195 342 c 1,3,-1
 152 342 l 1,4,5
 158 604 158 604 159 619 c 0,6,7
 160 701 160 701 196 701 c 0,0,1
153 -141 m 0,8,9
 145 -141 145 -141 143 -121 c 1,10,11
 144 -48 144 -48 150 246 c 1,12,-1
 190 246 l 1,13,14
 187 188 187 188 183 114 c 0,15,16
 176 -22 176 -22 174 -79 c 0,17,18
 172 -141 172 -141 153 -141 c 0,8,9
EndSplineSet
EndChar

StartChar: section
Encoding: 167 167 104
Width: 583
GlyphClass: 2
Flags: W
LayerCount: 2
Fore
SplineSet
45 91 m 0,0,1
 45 42 45 42 68 14.5 c 128,-1,2
 91 -13 91 -13 153.5 -13 c 128,-1,3
 216 -13 216 -13 253 30 c 128,-1,4
 290 73 290 73 290 133 c 0,5,6
 290 205 290 205 222 267 c 0,7,8
 193 293 193 293 164 320 c 0,9,10
 96 383 96 383 96 461 c 0,11,12
 96 515 96 515 131.5 553 c 128,-1,13
 167 591 167 591 230 598 c 1,14,15
 209 637 209 637 209 680 c 0,16,17
 209 740 209 740 251.5 779.5 c 128,-1,18
 294 819 294 819 368 819 c 0,19,20
 420 819 420 819 451 793.5 c 128,-1,21
 482 768 482 768 482 729 c 0,22,23
 482 710 482 710 451.5 710 c 128,-1,24
 421 710 421 710 421 729 c 0,25,26
 421 795 421 795 356 795 c 0,27,28
 316 795 316 795 291.5 768.5 c 128,-1,29
 267 742 267 742 267 704 c 128,-1,30
 267 666 267 666 287.5 634 c 128,-1,31
 308 602 308 602 337 575 c 128,-1,32
 366 548 366 548 395 520 c 0,33,34
 465 451 465 451 465 372 c 0,35,36
 465 313 465 313 431.5 264.5 c 128,-1,37
 398 216 398 216 347 195 c 1,38,39
 352 173 352 173 352 153 c 0,40,41
 352 73 352 73 294.5 18 c 128,-1,42
 237 -37 237 -37 152.5 -37 c 128,-1,43
 68 -37 68 -37 26.5 1 c 128,-1,44
 -15 39 -15 39 -15 95 c 0,45,46
 -15 111 -15 111 0 118 c 128,-1,47
 15 125 15 125 30 117.5 c 128,-1,48
 45 110 45 110 45 91 c 0,0,1
178.5 549.5 m 128,-1,50
 154 523 154 523 154 484.5 c 128,-1,51
 154 446 154 446 176.5 411.5 c 128,-1,52
 199 377 199 377 228 352 c 0,53,54
 311 280 311 280 337 222 c 1,55,56
 366 241 366 241 384.5 277 c 128,-1,57
 403 313 403 313 403 350.5 c 128,-1,58
 403 388 403 388 385.5 420.5 c 128,-1,59
 368 453 368 453 346 474 c 128,-1,60
 324 495 324 495 293 524.5 c 128,-1,61
 262 554 262 554 245 576 c 1,62,-1
 243 576 l 2,63,49
 203 576 203 576 178.5 549.5 c 128,-1,50
EndSplineSet
EndChar

StartChar: dieresis
Encoding: 168 168 105
Width: 303
GlyphClass: 2
Flags: W
LayerCount: 2
Fore
SplineSet
106 599 m 0,0,1
 129 599 129 599 129 568 c 128,-1,2
 129 537 129 537 99 518 c 0,3,4
 84 508 84 508 73 508 c 0,5,6
 57 508 57 508 54 518 c 2,7,-1
 53 521 l 1,8,9
 62 521 62 521 66 540.5 c 128,-1,10
 70 560 70 560 78.5 579.5 c 128,-1,11
 87 599 87 599 106 599 c 0,0,1
232 599 m 0,12,13
 255 599 255 599 255 568 c 128,-1,14
 255 537 255 537 225 518 c 0,15,16
 210 508 210 508 199 508 c 0,17,18
 183 508 183 508 180 518 c 2,19,-1
 179 521 l 1,20,21
 188 521 188 521 192 540.5 c 128,-1,22
 196 560 196 560 204.5 579.5 c 128,-1,23
 213 599 213 599 232 599 c 0,12,13
EndSplineSet
EndChar

StartChar: copyright
Encoding: 169 169 106
Width: 773
GlyphClass: 2
Flags: W
LayerCount: 2
Fore
SplineSet
285 192 m 0,0,1
 285 104 285 104 347 104 c 0,2,3
 366 104 366 104 385.5 117 c 128,-1,4
 405 130 405 130 414 143 c 2,5,-1
 424 156 l 1,6,-1
 443 150 l 1,7,8
 438 142 438 142 429.5 131 c 128,-1,9
 421 120 421 120 396 101.5 c 128,-1,10
 371 83 371 83 347 83 c 0,11,12
 240 83 240 83 240 206 c 0,13,14
 240 264 240 264 274 323 c 0,15,16
 321 403 321 403 388 403 c 0,17,18
 408 403 408 403 420.5 391.5 c 128,-1,19
 433 380 433 380 434.5 363 c 128,-1,20
 436 346 436 346 432 329.5 c 128,-1,21
 428 313 428 313 416 301.5 c 128,-1,22
 404 290 404 290 395 290 c 0,23,24
 383 290 383 290 381 298 c 1,25,26
 387 298 387 298 397 319.5 c 128,-1,27
 407 341 407 341 407 362 c 128,-1,28
 407 383 407 383 389 383 c 0,29,30
 350 383 350 383 317.5 318 c 128,-1,31
 285 253 285 253 285 192 c 0,0,1
96 209 m 0,32,33
 96 121 96 121 154 56 c 0,34,35
 223 -21 223 -21 331 -21 c 128,-1,36
 439 -21 439 -21 524 56 c 0,37,38
 622 144 622 144 622 269 c 0,39,40
 622 359 622 359 562 424 c 1,41,42
 493 501 493 501 385 501 c 128,-1,43
 277 501 277 501 192.5 424.5 c 128,-1,44
 108 348 108 348 98 240 c 0,45,46
 96 224 96 224 96 209 c 0,32,33
387 521 m 128,-1,48
 503 521 503 521 577 438 c 0,49,50
 641 367 641 367 641 269 c 0,51,52
 641 255 641 255 640 240 c 0,53,54
 627 124 627 124 536 41.5 c 128,-1,55
 445 -41 445 -41 329 -41 c 128,-1,56
 213 -41 213 -41 139 42 c 0,57,58
 76 112 76 112 76 206 c 0,59,60
 76 223 76 223 78 240 c 0,61,62
 89 356 89 356 180 438.5 c 128,-1,47
 271 521 271 521 387 521 c 128,-1,48
EndSplineSet
EndChar

StartChar: ordfeminine
Encoding: 170 170 107
Width: 583
GlyphClass: 2
Flags: W
LayerCount: 2
Fore
SplineSet
351 634 m 0,0,1
 329 531 329 531 329 486 c 128,-1,2
 329 441 329 441 353 441 c 0,3,4
 372 441 372 441 397.5 490 c 128,-1,5
 423 539 423 539 438 588 c 2,6,-1
 454 637 l 1,7,-1
 475 637 l 1,8,9
 472 628 472 628 467.5 613.5 c 128,-1,10
 463 599 463 599 449 562 c 128,-1,11
 435 525 435 525 421 496.5 c 128,-1,12
 407 468 407 468 387.5 445 c 128,-1,13
 368 422 368 422 351 422 c 0,14,15
 286 422 286 422 286 517 c 0,16,17
 286 533 286 533 288 552 c 1,18,-1
 282 552 l 1,19,20
 213 424 213 424 164 424 c 0,21,22
 100 424 100 424 100 513 c 0,23,24
 100 571 100 571 134 634 c 0,25,26
 186 728 186 728 262 728 c 0,27,28
 282 728 282 728 293.5 716.5 c 128,-1,29
 305 705 305 705 305 696 c 128,-1,30
 305 687 305 687 299 684 c 128,-1,31
 293 681 293 681 287.5 681.5 c 128,-1,32
 282 682 282 682 282 686 c 0,33,34
 282 703 282 703 262 703 c 0,35,36
 221 703 221 703 188 637 c 0,37,38
 152 567 152 567 152 512 c 128,-1,39
 152 457 152 457 169 449 c 1,40,41
 209 449 209 449 292 621 c 0,42,43
 304 647 304 647 312.5 666 c 128,-1,44
 321 685 321 685 333.5 685 c 128,-1,45
 346 685 346 685 350.5 671 c 128,-1,46
 355 657 355 657 351 634 c 0,0,1
EndSplineSet
EndChar

StartChar: guillemotleft
Encoding: 171 171 108
Width: 537
GlyphClass: 2
Flags: W
LayerCount: 2
Fore
SplineSet
171 68 m 1,0,1
 39 221 39 221 39 232 c 0,2,3
 39 238 39 238 45 242 c 2,4,-1
 223 355 l 1,5,-1
 223 330 l 1,6,-1
 84 223 l 1,7,-1
 171 95 l 1,8,-1
 171 68 l 1,0,1
349 68 m 1,9,10
 217 221 217 221 217 232 c 0,11,12
 217 238 217 238 223 242 c 2,13,-1
 401 355 l 1,14,-1
 401 330 l 1,15,-1
 262 223 l 1,16,-1
 349 95 l 1,17,-1
 349 68 l 1,9,10
EndSplineSet
EndChar

StartChar: logicalnot
Encoding: 172 172 109
Width: 768
GlyphClass: 2
Flags: W
LayerCount: 2
Fore
SplineSet
574 319.5 m 128,-1,1
 581 311 581 311 581 304 c 128,-1,2
 581 297 581 297 579 291 c 2,3,-1
 497 102 l 1,4,-1
 473 102 l 1,5,-1
 528 284 l 1,6,-1
 70 293 l 1,7,-1
 70 314 l 1,8,-1
 544 328 l 2,9,10
 546 328 546 328 556.5 328 c 128,-1,0
 567 328 567 328 574 319.5 c 128,-1,1
EndSplineSet
EndChar

StartChar: uni00AD
Encoding: 173 173 110
Width: 609
GlyphClass: 2
Flags: W
LayerCount: 2
Fore
SplineSet
424 285 m 2,0,-1
 107 283 l 2,1,2
 96 283 96 283 96 291 c 0,3,4
 96 307 96 307 128 313 c 0,5,6
 136 314 136 314 146 314 c 2,7,-1
 456 305 l 2,8,9
 466 305 466 305 466 300 c 0,10,11
 466 286 466 286 424 285 c 2,0,-1
EndSplineSet
EndChar

StartChar: registered
Encoding: 174 174 111
Width: 546
GlyphClass: 2
Flags: W
LayerCount: 2
Fore
SplineSet
310.5 750 m 128,-1,1
 378 750 378 750 418.5 705 c 128,-1,2
 459 660 459 660 459 601 c 0,3,4
 459 594 459 594 458 587 c 0,5,6
 450 519 450 519 397.5 471.5 c 128,-1,7
 345 424 345 424 277.5 424 c 128,-1,8
 210 424 210 424 170.5 468 c 128,-1,9
 131 512 131 512 131 566 c 0,10,11
 131 646 131 646 187 698 c 128,-1,0
 243 750 243 750 310.5 750 c 128,-1,1
374 467 m 1,12,13
 447 519 447 519 447 603 c 0,14,15
 447 655 447 655 409.5 696.5 c 128,-1,16
 372 738 372 738 309.5 738 c 128,-1,17
 247 738 247 738 198 694 c 0,18,19
 142 643 142 643 142 569 c 0,20,21
 142 518 142 518 179 477 c 128,-1,22
 216 436 216 436 278 436 c 0,23,24
 322 436 322 436 364 460 c 1,25,26
 341 463 341 463 332 481 c 128,-1,27
 323 499 323 499 321 536.5 c 128,-1,28
 319 574 319 574 317 583 c 1,29,30
 306 579 306 579 291 579 c 2,31,-1
 289 579 l 1,32,33
 277 481 277 481 218 481 c 0,34,35
 188 481 188 481 179 502 c 0,36,37
 175 512 175 512 175 522.5 c 128,-1,38
 175 533 175 533 182 546 c 0,39,40
 195 567 195 567 217 567 c 1,41,-1
 227 560 l 1,42,43
 196 560 196 560 188 531 c 0,44,45
 186 524 186 524 186 512.5 c 128,-1,46
 186 501 186 501 196.5 496 c 128,-1,47
 207 491 207 491 214 491 c 0,48,49
 239 491 239 491 251.5 515 c 128,-1,50
 264 539 264 539 271 582 c 1,51,52
 251 590 251 590 253.5 607.5 c 128,-1,53
 256 625 256 625 278 626 c 1,54,55
 289 683 289 683 313 683 c 0,56,57
 320 683 320 683 320 678 c 2,58,-1
 320 677 l 1,59,60
 300 677 300 677 295 624 c 1,61,62
 315 620 315 620 327 600 c 1,63,64
 358 622 358 622 358 659 c 0,65,66
 358 672 358 672 352 684 c 0,67,68
 341 704 341 704 312 704 c 0,69,70
 252 704 252 704 229 653 c 0,71,72
 220 634 220 634 220 619 c 128,-1,73
 220 604 220 604 228 593.5 c 128,-1,74
 236 583 236 583 248 583 c 1,75,76
 246 575 246 575 237 575 c 0,77,78
 206 575 206 575 206 615.5 c 128,-1,79
 206 656 206 656 235.5 685 c 128,-1,80
 265 714 265 714 310.5 714 c 128,-1,81
 356 714 356 714 372 689 c 0,82,83
 381 675 381 675 381 661 c 128,-1,84
 381 647 381 647 375 634 c 0,85,86
 362 603 362 603 332 588 c 1,87,88
 338 572 338 572 342 540.5 c 128,-1,89
 346 509 346 509 352.5 489.5 c 128,-1,90
 359 470 359 470 374 467 c 1,12,13
294 616 m 1,91,-1
 290 588 l 1,92,93
 302 588 302 588 315 593 c 1,94,95
 309 610 309 610 294 616 c 1,91,-1
263 603 m 0,96,97
 263 595 263 595 273 591 c 1,98,99
 275 609 275 609 277 618 c 1,100,101
 263 616 263 616 263 603 c 0,96,97
EndSplineSet
EndChar

StartChar: degree
Encoding: 176 176 112
Width: 349
GlyphClass: 2
Flags: W
LayerCount: 2
Fore
SplineSet
98 557 m 128,-1,1
 121 580 121 580 155.5 580 c 128,-1,2
 190 580 190 580 213 557 c 128,-1,3
 236 534 236 534 236 500 c 128,-1,4
 236 466 236 466 213 443 c 128,-1,5
 190 420 190 420 155.5 420 c 128,-1,6
 121 420 121 420 98 443.5 c 128,-1,7
 75 467 75 467 75 500.5 c 128,-1,0
 75 534 75 534 98 557 c 128,-1,1
154 446 m 128,-1,9
 176 446 176 446 192.5 462 c 128,-1,10
 209 478 209 478 209 500.5 c 128,-1,11
 209 523 209 523 193 539 c 128,-1,12
 177 555 177 555 154 555 c 128,-1,13
 131 555 131 555 115.5 539 c 128,-1,14
 100 523 100 523 100 500.5 c 128,-1,15
 100 478 100 478 116 462 c 128,-1,8
 132 446 132 446 154 446 c 128,-1,9
EndSplineSet
EndChar

StartChar: plusminus
Encoding: 177 177 113
Width: 702
GlyphClass: 2
Flags: W
LayerCount: 2
Fore
SplineSet
448 266 m 2,0,-1
 320 265 l 1,1,-1
 309 182 l 1,2,3
 306 167 306 167 299 176 c 128,-1,4
 292 185 292 185 292 215 c 1,5,6
 294 236 294 236 297 265 c 1,7,8
 240 264 240 264 131 264 c 0,9,10
 119 264 119 264 120 273 c 0,11,12
 122 289 122 289 152 294 c 1,13,-1
 170 295 l 1,14,15
 203 295 203 295 299 291 c 1,16,17
 314 437 314 437 314.5 447.5 c 128,-1,18
 315 458 315 458 321 458 c 0,19,20
 323 458 323 458 326 456 c 0,21,22
 341 450 341 450 341 420 c 0,23,24
 341 413 341 413 340 405 c 2,25,-1
 324 290 l 1,26,27
 440 286 440 286 480 286 c 0,28,29
 490 286 490 286 490 281 c 0,30,31
 490 267 490 267 448 266 c 2,0,-1
424 109 m 2,32,-1
 107 107 l 2,33,34
 96 107 96 107 96 115 c 0,35,36
 96 131 96 131 128 137 c 0,37,38
 136 138 136 138 146 138 c 2,39,-1
 456 129 l 2,40,41
 466 129 466 129 466 124 c 0,42,43
 466 110 466 110 424 109 c 2,32,-1
EndSplineSet
EndChar

StartChar: twosuperior
Encoding: 178 178 114
Width: 535
GlyphClass: 2
Flags: W
LayerCount: 2
Fore
SplineSet
239 615 m 0,0,1
 182 615 182 615 182 684 c 0,2,3
 182 723 182 723 211 761 c 0,4,5
 251 815 251 815 320 815 c 0,6,7
 365 815 365 815 388.5 793 c 128,-1,8
 412 771 412 771 412 738 c 128,-1,9
 412 705 412 705 398 675.5 c 128,-1,10
 384 646 384 646 356.5 617.5 c 128,-1,11
 329 589 329 589 306.5 569 c 128,-1,12
 284 549 284 549 247 520.5 c 128,-1,13
 210 492 210 492 197 481 c 1,14,-1
 199 481 l 2,15,16
 215 481 215 481 247 463.5 c 128,-1,17
 279 446 279 446 308 446 c 0,18,19
 357 446 357 446 377 489 c 1,20,21
 385 503 385 503 385 514 c 128,-1,22
 385 525 385 525 379 529.5 c 128,-1,23
 373 534 373 534 368 534 c 1,24,25
 370 547 370 547 382 547 c 0,26,27
 406 547 406 547 406 502 c 128,-1,28
 406 457 406 457 374.5 425.5 c 128,-1,29
 343 394 343 394 307.5 394 c 128,-1,30
 272 394 272 394 251 410 c 128,-1,31
 230 426 230 426 216 442 c 128,-1,32
 202 458 202 458 186 458 c 128,-1,33
 170 458 170 458 160 444.5 c 128,-1,34
 150 431 150 431 150 421 c 0,35,36
 150 413 150 413 135.5 413 c 128,-1,37
 121 413 121 413 121 421 c 0,38,39
 121 435 121 435 146.5 459.5 c 128,-1,40
 172 484 172 484 207.5 514 c 128,-1,41
 243 544 243 544 278.5 578 c 128,-1,42
 314 612 314 612 339 654.5 c 128,-1,43
 364 697 364 697 364 731.5 c 128,-1,44
 364 766 364 766 352 780 c 128,-1,45
 340 794 340 794 310 794 c 0,46,47
 259 794 259 794 234 736 c 0,48,49
 222 707 222 707 222 686 c 128,-1,50
 222 665 222 665 230 646.5 c 128,-1,51
 238 628 238 628 258 628 c 1,52,53
 254 615 254 615 239 615 c 0,0,1
EndSplineSet
EndChar

StartChar: threesuperior
Encoding: 179 179 115
Width: 498
GlyphClass: 2
Flags: W
LayerCount: 2
Fore
SplineSet
359 653 m 1,0,1
 398 621 398 621 398 558 c 0,2,3
 398 474 398 474 327 424 c 0,4,5
 283 393 283 393 218 393 c 128,-1,6
 153 393 153 393 128 439 c 0,7,8
 117 461 117 461 117 484 c 128,-1,9
 117 507 117 507 131 531 c 0,10,11
 158 577 158 577 212 577 c 0,12,13
 223 577 223 577 228.5 571.5 c 128,-1,14
 234 566 234 566 234 560 c 2,15,-1
 234 555 l 1,16,17
 226 559 226 559 210 559 c 128,-1,18
 194 559 194 559 178 544 c 0,19,20
 153 522 153 522 153 482 c 0,21,22
 153 474 153 474 155 459 c 128,-1,23
 157 444 157 444 175.5 429 c 128,-1,24
 194 414 194 414 229.5 414 c 128,-1,25
 265 414 265 414 296 440 c 0,26,27
 352 486 352 486 352 567 c 0,28,29
 352 608 352 608 334 634 c 1,30,31
 303 614 303 614 261 614 c 128,-1,32
 219 614 219 614 219 640 c 0,33,34
 219 660 219 660 247 671 c 0,35,36
 263 677 263 677 283.5 677 c 128,-1,37
 304 677 304 677 327 670 c 1,38,39
 351 704 351 704 351 732 c 0,40,41
 351 798 351 798 296 798 c 0,42,43
 253 798 253 798 238 758 c 0,44,45
 233 744 233 744 233 732 c 128,-1,46
 233 720 233 720 240 713.5 c 128,-1,47
 247 707 247 707 254 707 c 1,48,49
 250 694 250 694 234 694 c 0,50,51
 200 694 200 694 200 737 c 0,52,53
 200 767 200 767 228 793 c 128,-1,54
 256 819 256 819 306 819 c 128,-1,55
 356 819 356 819 377.5 793 c 128,-1,56
 399 767 399 767 399 738 c 0,57,58
 399 691 399 691 359 653 c 1,0,1
238 641 m 0,59,60
 238 632 238 632 263.5 632 c 128,-1,61
 289 632 289 632 313 653 c 1,62,63
 299 661 299 661 283 661 c 0,64,65
 247 661 247 661 239 646 c 0,66,67
 238 643 238 643 238 641 c 0,59,60
EndSplineSet
EndChar

StartChar: acute
Encoding: 180 180 116
Width: 388
GlyphClass: 2
Flags: W
LayerCount: 2
Fore
SplineSet
271 617 m 1,0,1
 241 580 241 580 203.5 545 c 128,-1,2
 166 510 166 510 155.5 510 c 128,-1,3
 145 510 145 510 145 521 c 128,-1,4
 145 532 145 532 168.5 568.5 c 128,-1,5
 192 605 192 605 225 642 c 1,6,7
 237 657 237 657 248 657 c 128,-1,8
 259 657 259 657 269 652.5 c 128,-1,9
 279 648 279 648 279 638.5 c 128,-1,10
 279 629 279 629 271 617 c 1,0,1
EndSplineSet
EndChar

StartChar: mu
Encoding: 181 181 117
AltUni2: 0003bc.ffffffff.0
Width: 467
GlyphClass: 2
Flags: W
LayerCount: 2
Fore
SplineSet
279 24 m 0,0,1
 305 24 305 24 352 93 c 128,-1,2
 399 162 399 162 433 231 c 2,3,-1
 467 300 l 1,4,-1
 494 300 l 1,5,6
 488 288 488 288 478.5 267.5 c 128,-1,7
 469 247 469 247 441 194.5 c 128,-1,8
 413 142 413 142 387.5 102 c 128,-1,9
 362 62 362 62 330.5 29.5 c 128,-1,10
 299 -3 299 -3 275.5 -3 c 128,-1,11
 252 -3 252 -3 236 6 c 0,12,13
 202 25 202 25 202 94 c 0,14,15
 202 143 202 143 228 264 c 1,16,17
 104 0 104 0 24 0 c 0,18,19
 -14 0 -14 0 -29 24 c 1,20,21
 -59 -120 -59 -120 -59 -212 c 128,-1,22
 -59 -304 -59 -304 -27 -304 c 1,23,24
 -37 -324 -37 -324 -56 -324 c 0,25,26
 -113 -324 -113 -324 -113 -217 c 128,-1,27
 -113 -110 -113 -110 -55 105 c 0,28,29
 -38 169 -38 169 -17.5 240 c 128,-1,30
 3 311 3 311 29 403 c 0,31,32
 35 424 35 424 48 424 c 0,33,34
 66 424 66 424 74 398 c 0,35,36
 78 387 78 387 78 370.5 c 128,-1,37
 78 354 78 354 73 334.5 c 128,-1,38
 68 315 68 315 52 260 c 0,39,40
 9 112 9 112 9 61 c 0,41,42
 9 28 9 28 29 28 c 0,43,44
 64 28 64 28 122 121.5 c 128,-1,45
 180 215 180 215 220 309 c 2,46,-1
 261 403 l 1,47,48
 266 424 266 424 279 424 c 0,49,50
 297 424 297 424 305 398 c 0,51,52
 309 386 309 386 309 369 c 128,-1,53
 309 352 309 352 305 333.5 c 128,-1,54
 301 315 301 315 292 279 c 128,-1,55
 283 243 283 243 278 220 c 128,-1,56
 273 197 273 197 266 164 c 0,57,58
 256 109 256 109 256 66.5 c 128,-1,59
 256 24 256 24 279 24 c 0,0,1
EndSplineSet
EndChar

StartChar: paragraph
Encoding: 182 182 118
Width: 756
GlyphClass: 2
Flags: W
LayerCount: 2
Fore
SplineSet
207 -113 m 0,0,1
 65 -113 65 -113 16 -27 c 0,2,3
 -4 8 -4 8 -4 40 c 128,-1,4
 -4 72 -4 72 8 101 c 0,5,6
 37 171 37 171 104 171 c 0,7,8
 124 171 124 171 132 157 c 1,9,-1
 134 152 l 1,10,11
 87 152 87 152 61 100 c 0,12,13
 46 70 46 70 46 42 c 128,-1,14
 46 14 46 14 57 -12 c 1,15,16
 92 -87 92 -87 207 -87 c 0,17,18
 291 -87 291 -87 349.5 -42.5 c 128,-1,19
 408 2 408 2 436.5 70.5 c 128,-1,20
 465 139 465 139 486 229 c 128,-1,21
 507 319 507 319 517 402 c 0,22,23
 542 610 542 610 593 695 c 1,24,25
 521 724 521 724 474 724 c 0,26,27
 372 724 372 724 304 622 c 0,28,29
 248 538 248 538 248 442 c 0,30,31
 248 340 248 340 312 311 c 0,32,33
 332 301 332 301 358 301 c 1,34,35
 356 285 356 285 335 285 c 0,36,37
 231 285 231 285 187 373 c 0,38,39
 165 418 165 418 165 464 c 128,-1,40
 165 510 165 510 179 555 c 0,41,42
 214 664 214 664 312 716 c 0,43,44
 374 748 374 748 446.5 748 c 128,-1,45
 519 748 519 748 606 714 c 1,46,-1
 609 717 l 1,47,48
 646 900 646 900 721 900 c 0,49,50
 735 900 735 900 740 888 c 1,51,-1
 741 883 l 1,52,53
 670 883 670 883 637 743 c 1,54,55
 669 763 669 763 704 763 c 0,56,57
 753 763 753 763 763 730 c 0,58,59
 766 723 766 723 766 717 c 0,60,61
 766 696 766 696 744.5 681 c 128,-1,62
 723 666 723 666 695.5 666 c 128,-1,63
 668 666 668 666 625 682 c 1,64,65
 614 614 614 614 605.5 501.5 c 128,-1,66
 597 389 597 389 590 301 c 128,-1,67
 583 213 583 213 570 126 c 0,68,69
 541 -56 541 -56 456 -56 c 0,70,71
 445 -56 445 -56 441 -49 c 128,-1,72
 437 -42 437 -42 439 -29 c 1,73,74
 503 -29 503 -29 532 129 c 0,75,76
 553 245 553 245 569 408.5 c 128,-1,77
 585 572 585 572 595 637 c 1,78,79
 564 549 564 549 537 340 c 0,80,81
 527 263 527 263 503.5 177.5 c 128,-1,82
 480 92 480 92 447.5 30 c 128,-1,83
 415 -32 415 -32 353.5 -72.5 c 128,-1,84
 292 -113 292 -113 207 -113 c 0,0,1
705 741 m 0,85,86
 659 741 659 741 630 704 c 1,87,88
 668 689 668 689 700.5 689 c 128,-1,89
 733 689 733 689 739 712 c 0,90,91
 740 716 740 716 740 719 c 0,92,93
 740 732 740 732 723 738 c 0,94,95
 715 741 715 741 705 741 c 0,85,86
EndSplineSet
EndChar

StartChar: periodcentered
Encoding: 183 183 119
Width: 369
GlyphClass: 2
Flags: W
LayerCount: 2
Fore
SplineSet
177 302 m 0,0,1
 200 302 200 302 200 271 c 128,-1,2
 200 240 200 240 170 221 c 0,3,4
 155 211 155 211 144 211 c 0,5,6
 128 211 128 211 124 224 c 1,7,8
 133 224 133 224 137 243.5 c 128,-1,9
 141 263 141 263 149.5 282.5 c 128,-1,10
 158 302 158 302 177 302 c 0,0,1
EndSplineSet
EndChar

StartChar: cedilla
Encoding: 184 184 120
Width: 339
GlyphClass: 2
Flags: W
LayerCount: 2
Fore
SplineSet
16 -64 m 0,0,1
 16 -43 16 -43 65 26 c 1,2,-1
 86 26 l 1,3,-1
 42 -52 l 1,4,5
 66 -39 66 -39 98 -39 c 0,6,7
 147 -39 147 -39 156 -76 c 0,8,9
 157 -83 157 -83 157 -90 c 0,10,11
 157 -119 157 -119 124 -147.5 c 128,-1,12
 91 -176 91 -176 34 -176 c 128,-1,13
 -23 -176 -23 -176 -23 -139 c 0,14,15
 -23 -124 -23 -124 -10 -118 c 0,16,17
 -6 -116 -6 -116 -1 -116 c 0,18,19
 10 -116 10 -116 12 -125 c 1,20,-1
 12 -128 l 1,21,22
 -1 -128 -1 -128 -3 -140 c 0,23,24
 -5 -157 -5 -157 17 -162 c 1,25,-1
 30 -163 l 1,26,27
 88 -163 88 -163 113 -120 c 0,28,29
 123 -104 123 -104 123 -91 c 128,-1,30
 123 -78 123 -78 113.5 -67.5 c 128,-1,31
 104 -57 104 -57 81.5 -57 c 128,-1,32
 59 -57 59 -57 27 -73 c 1,33,-1
 25 -73 l 2,34,35
 16 -73 16 -73 16 -64 c 0,0,1
EndSplineSet
EndChar

StartChar: onesuperior
Encoding: 185 185 121
Width: 430
GlyphClass: 2
Flags: W
LayerCount: 2
Fore
SplineSet
278 388 m 0,0,1
 239 388 239 388 239 470 c 0,2,3
 239 566 239 566 290 695 c 1,4,5
 236 665 236 665 204 630 c 128,-1,6
 172 595 172 595 172 545 c 0,7,8
 172 533 172 533 177 530 c 128,-1,9
 182 527 182 527 183 527 c 1,10,11
 183 515 183 515 170.5 515 c 128,-1,12
 158 515 158 515 148.5 526.5 c 128,-1,13
 139 538 139 538 139 562 c 128,-1,14
 139 586 139 586 153 611.5 c 128,-1,15
 167 637 167 637 195 658 c 0,16,17
 234 689 234 689 303 723 c 1,18,19
 346 816 346 816 385 816 c 0,20,21
 410 816 410 816 410 791 c 0,22,23
 410 771 410 771 390.5 754.5 c 128,-1,24
 371 738 371 738 331 717 c 1,25,26
 300 628 300 628 288 518 c 0,27,28
 285 482 285 482 285 458 c 0,29,30
 285 407 285 407 301 405 c 1,31,32
 298 388 298 388 278 388 c 0,0,1
385 797 m 0,33,34
 364 797 364 797 341 742 c 1,35,36
 393 770 393 770 393 788 c 0,37,38
 393 797 393 797 385 797 c 0,33,34
EndSplineSet
EndChar

StartChar: ordmasculine
Encoding: 186 186 122
Width: 420
GlyphClass: 2
Flags: W
LayerCount: 2
Fore
SplineSet
237 693 m 1,0,1
 204 693 204 693 179 632.5 c 128,-1,2
 154 572 154 572 154 508.5 c 128,-1,3
 154 445 154 445 188 445 c 0,4,5
 214 445 214 445 236 478 c 0,6,7
 280 542 280 542 291 640 c 1,8,9
 268 652 268 652 260.5 670.5 c 128,-1,10
 253 689 253 689 253 699.5 c 128,-1,11
 253 710 253 710 256 718 c 0,12,13
 262 737 262 737 279 737 c 128,-1,14
 296 737 296 737 305 715.5 c 128,-1,15
 314 694 314 694 314 676.5 c 128,-1,16
 314 659 314 659 314 655 c 1,17,18
 323 652 323 652 339.5 652 c 128,-1,19
 356 652 356 652 368.5 665.5 c 128,-1,20
 381 679 381 679 381 686.5 c 128,-1,21
 381 694 381 694 384.5 695 c 128,-1,22
 388 696 388 696 391.5 694.5 c 128,-1,23
 395 693 395 693 395 690 c 0,24,25
 395 669 395 669 377.5 650.5 c 128,-1,26
 360 632 360 632 339 632 c 128,-1,27
 318 632 318 632 312 633 c 1,28,29
 305 556 305 556 270 489 c 128,-1,30
 235 422 235 422 186 422 c 0,31,32
 106 422 106 422 106 530 c 0,33,34
 106 584 106 584 132 638 c 0,35,36
 167 710 167 710 213 710 c 0,37,38
 231 710 231 710 236 698 c 1,39,-1
 237 693 l 1,0,1
EndSplineSet
EndChar

StartChar: guillemotright
Encoding: 187 187 123
Width: 557
GlyphClass: 2
Flags: W
LayerCount: 2
Fore
SplineSet
306 355 m 1,0,1
 438 202 438 202 438 191 c 0,2,3
 438 185 438 185 432 181 c 2,4,-1
 254 68 l 1,5,-1
 254 93 l 1,6,-1
 393 200 l 1,7,-1
 306 328 l 1,8,-1
 306 355 l 1,0,1
128 355 m 1,9,10
 260 202 260 202 260 191 c 0,11,12
 260 185 260 185 254 181 c 2,13,-1
 76 68 l 1,14,-1
 76 93 l 1,15,-1
 215 200 l 1,16,-1
 128 328 l 1,17,-1
 128 355 l 1,9,10
EndSplineSet
EndChar

StartChar: onequarter
Encoding: 188 188 124
Width: 954
GlyphClass: 2
Flags: W
LayerCount: 2
Fore
SplineSet
749 322 m 0,0,1
 763 322 763 322 763 312 c 2,2,-1
 763 309 l 1,3,4
 743 309 743 309 721 244 c 128,-1,5
 699 179 699 179 688 103 c 1,6,-1
 691 103 l 2,7,8
 727 103 727 103 737 128 c 0,9,10
 745 146 745 146 731 150 c 0,11,12
 729 151 729 151 727 151 c 1,13,14
 729 165 729 165 746 165 c 128,-1,15
 763 165 763 165 763 137 c 128,-1,16
 763 109 763 109 734 93 c 0,17,18
 717 84 717 84 692 84 c 2,19,-1
 686 84 l 1,20,21
 683 56 683 56 683 37 c 0,22,23
 683 -9 683 -9 698 -9 c 1,24,25
 696 -26 696 -26 675 -26 c 0,26,27
 639 -26 639 -26 639 42 c 0,28,29
 639 63 639 63 642 89 c 1,30,31
 636 90 636 90 542 116 c 1,32,33
 511 80 511 80 475.5 80 c 128,-1,34
 440 80 440 80 440 107 c 0,35,36
 440 125 440 125 465 135 c 0,37,38
 479 141 479 141 495.5 141 c 128,-1,39
 512 141 512 141 526 138 c 1,40,41
 546 176 546 176 557 231.5 c 128,-1,42
 568 287 568 287 568 336.5 c 128,-1,43
 568 386 568 386 551 386 c 1,44,45
 555 403 555 403 575 403 c 0,46,47
 614 403 614 403 614 327 c 0,48,49
 614 289 614 289 599 233 c 128,-1,50
 584 177 584 177 553 132 c 1,51,52
 634 109 634 109 645 107 c 1,53,54
 658 185 658 185 689.5 253.5 c 128,-1,55
 721 322 721 322 749 322 c 0,0,1
230 -102 m 0,56,57
 220 -102 220 -102 220 -87 c 128,-1,58
 220 -72 220 -72 239 -32 c 128,-1,59
 258 8 258 8 324.5 152.5 c 128,-1,60
 391 297 391 297 465 459.5 c 128,-1,61
 539 622 539 622 550 646 c 1,62,63
 562 667 562 667 577 667 c 0,64,65
 595 667 595 667 595 642 c 0,66,67
 595 615 595 615 574 575 c 0,68,69
 571 568 571 568 426 279.5 c 128,-1,70
 281 -9 281 -9 245 -87 c 0,71,72
 238 -102 238 -102 230 -102 c 0,56,57
261 194 m 0,73,74
 222 194 222 194 222 276 c 0,75,76
 222 372 222 372 273 501 c 1,77,78
 219 471 219 471 187 436 c 128,-1,79
 155 401 155 401 155 351 c 0,80,81
 155 339 155 339 160 336 c 128,-1,82
 165 333 165 333 166 333 c 1,83,84
 166 321 166 321 153.5 321 c 128,-1,85
 141 321 141 321 131.5 332.5 c 128,-1,86
 122 344 122 344 122 368 c 128,-1,87
 122 392 122 392 136 417.5 c 128,-1,88
 150 443 150 443 178 464 c 0,89,90
 217 495 217 495 286 529 c 1,91,92
 329 622 329 622 368 622 c 0,93,94
 393 622 393 622 393 597 c 0,95,96
 393 577 393 577 373.5 560.5 c 128,-1,97
 354 544 354 544 314 523 c 1,98,99
 283 434 283 434 272 324 c 0,100,101
 268 288 268 288 268 264 c 0,102,103
 268 213 268 213 284 211 c 1,104,105
 281 194 281 194 261 194 c 0,73,74
368 603 m 0,106,107
 347 603 347 603 324 548 c 1,108,109
 376 576 376 576 376 594 c 0,110,111
 376 603 376 603 368 603 c 0,106,107
497 125 m 0,112,113
 467 125 467 125 462 111 c 1,114,115
 462 100 462 100 478 98 c 1,116,117
 499 98 499 98 516 123 c 1,118,119
 502 125 502 125 497 125 c 0,112,113
EndSplineSet
EndChar

StartChar: onehalf
Encoding: 189 189 125
Width: 947
GlyphClass: 2
Flags: W
LayerCount: 2
Fore
SplineSet
574 192 m 0,0,1
 517 192 517 192 517 261 c 0,2,3
 517 300 517 300 546 338 c 0,4,5
 587 391 587 391 655 392 c 0,6,7
 700 392 700 392 723.5 370 c 128,-1,8
 747 348 747 348 747 315 c 128,-1,9
 747 282 747 282 733 252.5 c 128,-1,10
 719 223 719 223 691.5 194.5 c 128,-1,11
 664 166 664 166 641.5 146 c 128,-1,12
 619 126 619 126 582 97.5 c 128,-1,13
 545 69 545 69 532 58 c 1,14,-1
 534 58 l 2,15,16
 550 58 550 58 582 40.5 c 128,-1,17
 614 23 614 23 643 23 c 0,18,19
 692 23 692 23 712 66 c 1,20,21
 720 80 720 80 720 91 c 128,-1,22
 720 102 720 102 714 106.5 c 128,-1,23
 708 111 708 111 703 111 c 1,24,25
 705 124 705 124 717 124 c 0,26,27
 741 124 741 124 741 79 c 128,-1,28
 741 34 741 34 709.5 2.5 c 128,-1,29
 678 -29 678 -29 642.5 -29 c 128,-1,30
 607 -29 607 -29 586 -13 c 128,-1,31
 565 3 565 3 551 19 c 128,-1,32
 537 35 537 35 523 35 c 128,-1,33
 509 35 509 35 499.5 25.5 c 128,-1,34
 490 16 490 16 485 -2 c 1,35,36
 485 -10 485 -10 470.5 -10 c 128,-1,37
 456 -10 456 -10 456 -2 c 0,38,39
 456 23 456 23 578 122 c 0,40,41
 623 159 623 159 661 212.5 c 128,-1,42
 699 266 699 266 699 315 c 0,43,44
 699 343 699 343 687 357 c 128,-1,45
 675 371 675 371 645 371 c 0,46,47
 594 371 594 371 569 313 c 0,48,49
 557 284 557 284 557 263 c 128,-1,50
 557 242 557 242 565 223.5 c 128,-1,51
 573 205 573 205 593 205 c 1,52,53
 589 192 589 192 574 192 c 0,0,1
230 -102 m 0,54,55
 220 -102 220 -102 220 -87 c 128,-1,56
 220 -72 220 -72 239 -32 c 128,-1,57
 258 8 258 8 324.5 152.5 c 128,-1,58
 391 297 391 297 465 459.5 c 128,-1,59
 539 622 539 622 550 646 c 1,60,61
 562 667 562 667 577 667 c 0,62,63
 595 667 595 667 595 642 c 0,64,65
 595 615 595 615 574 575 c 0,66,67
 571 568 571 568 426 279.5 c 128,-1,68
 281 -9 281 -9 245 -87 c 0,69,70
 238 -102 238 -102 230 -102 c 0,54,55
261 194 m 0,71,72
 222 194 222 194 222 276 c 0,73,74
 222 372 222 372 273 501 c 1,75,76
 219 471 219 471 187 436 c 128,-1,77
 155 401 155 401 155 351 c 0,78,79
 155 339 155 339 160 336 c 128,-1,80
 165 333 165 333 166 333 c 1,81,82
 166 321 166 321 153.5 321 c 128,-1,83
 141 321 141 321 131.5 332.5 c 128,-1,84
 122 344 122 344 122 368 c 128,-1,85
 122 392 122 392 136 417.5 c 128,-1,86
 150 443 150 443 178 464 c 0,87,88
 217 495 217 495 286 529 c 1,89,90
 329 622 329 622 368 622 c 0,91,92
 393 622 393 622 393 597 c 0,93,94
 393 577 393 577 373.5 560.5 c 128,-1,95
 354 544 354 544 314 523 c 1,96,97
 283 434 283 434 272 324 c 0,98,99
 268 288 268 288 268 264 c 0,100,101
 268 213 268 213 284 211 c 1,102,103
 281 194 281 194 261 194 c 0,71,72
368 603 m 0,104,105
 347 603 347 603 324 548 c 1,106,107
 376 576 376 576 376 594 c 0,108,109
 376 603 376 603 368 603 c 0,104,105
EndSplineSet
EndChar

StartChar: threequarters
Encoding: 190 190 126
Width: 957
GlyphClass: 2
Flags: W
LayerCount: 2
Fore
SplineSet
299 454 m 1,0,1
 338 422 338 422 338 359 c 0,2,3
 338 275 338 275 267 225 c 0,4,5
 223 194 223 194 158 194 c 128,-1,6
 93 194 93 194 68 240 c 0,7,8
 57 262 57 262 57 285 c 128,-1,9
 57 308 57 308 71 332 c 0,10,11
 98 378 98 378 152 378 c 0,12,13
 163 378 163 378 168.5 372.5 c 128,-1,14
 174 367 174 367 174 362 c 2,15,-1
 174 356 l 1,16,17
 166 360 166 360 150 360 c 128,-1,18
 134 360 134 360 118 345 c 0,19,20
 93 323 93 323 93 283 c 0,21,22
 93 275 93 275 95 260 c 128,-1,23
 97 245 97 245 115.5 230 c 128,-1,24
 134 215 134 215 169.5 215 c 128,-1,25
 205 215 205 215 236 240 c 0,26,27
 292 287 292 287 292 368 c 0,28,29
 292 409 292 409 274 435 c 1,30,31
 243 415 243 415 201 415 c 128,-1,32
 159 415 159 415 159 441 c 0,33,34
 159 461 159 461 187 472 c 0,35,36
 203 478 203 478 223.5 478 c 128,-1,37
 244 478 244 478 267 471 c 1,38,39
 291 505 291 505 291 533 c 0,40,41
 291 599 291 599 236 599 c 0,42,43
 193 599 193 599 178 559 c 0,44,45
 173 545 173 545 173 533 c 128,-1,46
 173 521 173 521 180 514.5 c 128,-1,47
 187 508 187 508 194 508 c 1,48,49
 190 495 190 495 174 495 c 0,50,51
 140 495 140 495 140 538 c 0,52,53
 140 568 140 568 168 594 c 128,-1,54
 196 620 196 620 246 620 c 128,-1,55
 296 620 296 620 317.5 594 c 128,-1,56
 339 568 339 568 339 539 c 0,57,58
 339 492 339 492 299 454 c 1,0,1
749 322 m 0,59,60
 763 322 763 322 763 312 c 2,61,-1
 763 309 l 1,62,63
 743 309 743 309 721 244 c 128,-1,64
 699 179 699 179 688 103 c 1,65,-1
 691 103 l 2,66,67
 727 103 727 103 737 128 c 0,68,69
 745 146 745 146 731 150 c 0,70,71
 729 151 729 151 727 151 c 1,72,73
 729 165 729 165 746 165 c 128,-1,74
 763 165 763 165 763 137 c 128,-1,75
 763 109 763 109 734 93 c 0,76,77
 717 84 717 84 692 84 c 2,78,-1
 686 84 l 1,79,80
 683 56 683 56 683 37 c 0,81,82
 683 -9 683 -9 698 -9 c 1,83,84
 696 -26 696 -26 675 -26 c 0,85,86
 639 -26 639 -26 639 42 c 0,87,88
 639 63 639 63 642 89 c 1,89,90
 636 90 636 90 542 116 c 1,91,92
 511 80 511 80 475.5 80 c 128,-1,93
 440 80 440 80 440 107 c 0,94,95
 440 125 440 125 465 135 c 0,96,97
 479 141 479 141 495.5 141 c 128,-1,98
 512 141 512 141 526 138 c 1,99,100
 546 176 546 176 557 231.5 c 128,-1,101
 568 287 568 287 568 336.5 c 128,-1,102
 568 386 568 386 551 386 c 1,103,104
 555 403 555 403 575 403 c 0,105,106
 614 403 614 403 614 327 c 0,107,108
 614 289 614 289 599 233 c 128,-1,109
 584 177 584 177 553 132 c 1,110,111
 634 109 634 109 645 107 c 1,112,113
 658 185 658 185 689.5 253.5 c 128,-1,114
 721 322 721 322 749 322 c 0,59,60
230 -102 m 0,115,116
 220 -102 220 -102 220 -87 c 128,-1,117
 220 -72 220 -72 239 -32 c 128,-1,118
 258 8 258 8 324.5 152.5 c 128,-1,119
 391 297 391 297 465 459.5 c 128,-1,120
 539 622 539 622 550 646 c 1,121,122
 562 667 562 667 577 667 c 0,123,124
 595 667 595 667 595 642 c 0,125,126
 595 615 595 615 574 575 c 0,127,128
 571 568 571 568 426 279.5 c 128,-1,129
 281 -9 281 -9 245 -87 c 0,130,131
 238 -102 238 -102 230 -102 c 0,115,116
178 442 m 0,132,133
 178 433 178 433 203.5 433 c 128,-1,134
 229 433 229 433 253 454 c 1,135,136
 239 462 239 462 223 462 c 0,137,138
 187 462 187 462 179 447 c 0,139,140
 178 444 178 444 178 442 c 0,132,133
497 125 m 0,141,142
 467 125 467 125 462 111 c 1,143,144
 462 100 462 100 478 98 c 1,145,146
 499 98 499 98 516 123 c 1,147,148
 502 125 502 125 497 125 c 0,141,142
EndSplineSet
EndChar

StartChar: questiondown
Encoding: 191 191 127
Width: 469
GlyphClass: 2
Flags: W
LayerCount: 2
Fore
SplineSet
190 72 m 0,0,1
 214 72 214 72 214 41 c 128,-1,2
 214 10 214 10 185 -9 c 0,3,4
 171 -19 171 -19 160 -19 c 0,5,6
 144 -19 144 -19 140 -6 c 1,7,8
 154 -6 154 -6 158 33 c 0,9,10
 159 48 159 48 167 60 c 128,-1,11
 175 72 175 72 190 72 c 0,0,1
216 161 m 0,12,13
 216 148 216 148 196.5 148 c 128,-1,14
 177 148 177 148 177 161 c 0,15,16
 177 252 177 252 282 354 c 0,17,18
 325 397 325 397 368.5 440.5 c 128,-1,19
 412 484 412 484 442.5 541 c 128,-1,20
 473 598 473 598 473 660 c 0,21,22
 473 751 473 751 386 751 c 0,23,24
 311 751 311 751 270 670 c 1,25,26
 247 622 247 622 247 577 c 0,27,28
 247 559 247 559 251 541 c 0,29,30
 262 489 262 489 301 489 c 1,31,32
 301 475 301 475 279 475 c 0,33,34
 217 475 217 475 199 536 c 0,35,36
 193 556 193 556 193 576 c 0,37,38
 193 621 193 621 220 670 c 0,39,40
 279 776 279 776 401 776 c 0,41,42
 469 776 469 776 504 743.5 c 128,-1,43
 539 711 539 711 539 660.5 c 128,-1,44
 539 610 539 610 521 568.5 c 128,-1,45
 503 527 503 527 474.5 494 c 128,-1,46
 446 461 446 461 412 429 c 128,-1,47
 378 397 378 397 343.5 366 c 128,-1,48
 309 335 309 335 280 304 c 0,49,50
 216 234 216 234 216 161 c 0,12,13
EndSplineSet
EndChar

StartChar: Agrave
Encoding: 192 192 128
Width: 1005
GlyphClass: 2
Flags: W
LayerCount: 2
Fore
SplineSet
918 1007 m 0,0,1
 954 974 954 974 986.5 934.5 c 128,-1,2
 1019 895 1019 895 1019 885.5 c 128,-1,3
 1019 876 1019 876 1008.5 876 c 128,-1,4
 998 876 998 876 963 901 c 128,-1,5
 928 926 928 926 891 962 c 0,6,7
 877 976 877 976 877 986 c 128,-1,8
 877 996 877 996 883 1006 c 128,-1,9
 889 1016 889 1016 898.5 1016 c 128,-1,10
 908 1016 908 1016 918 1007 c 0,0,1
1012 818 m 0,11,12
 1020 818 1020 818 1024 813 c 128,-1,13
 1028 808 1028 808 1029 799 c 1,14,15
 925 799 925 799 847 696 c 1,16,17
 899 677 899 677 948 666 c 1,18,19
 1002 736 1002 736 1047 736 c 0,20,21
 1057 736 1057 736 1064 730.5 c 128,-1,22
 1071 725 1071 725 1074 714 c 1,23,24
 1035 714 1035 714 993 659 c 1,25,26
 1000 658 1000 658 1014 658 c 0,27,28
 1113 658 1113 658 1153 717 c 1,29,30
 1170 740 1170 740 1170 756 c 0,31,32
 1170 801 1170 801 1130 801 c 1,33,34
 1139 815 1139 815 1159 815 c 0,35,36
 1198 815 1198 815 1210 776 c 0,37,38
 1213 764 1213 764 1213 753 c 0,39,40
 1213 720 1213 720 1185 688 c 0,41,42
 1136 634 1136 634 1034 634 c 0,43,44
 1004 634 1004 634 980 638 c 1,45,46
 913 531 913 531 872 334 c 0,47,48
 843 197 843 197 843 104 c 0,49,50
 843 64 843 64 848 32 c 1,51,52
 905 76 905 76 957 143 c 128,-1,53
 1009 210 1009 210 1032 255 c 2,54,-1
 1055 300 l 1,55,-1
 1082 300 l 1,56,57
 1074 279 1074 279 1047.5 233.5 c 128,-1,58
 1021 188 1021 188 996.5 153.5 c 128,-1,59
 972 119 972 119 933 77 c 128,-1,60
 894 35 894 35 854 6 c 1,61,62
 867 -32 867 -32 891 -32 c 1,63,64
 881 -52 881 -52 862 -52 c 0,65,66
 830 -52 830 -52 809 -22 c 1,67,68
 737 -59 737 -59 669 -59 c 0,69,70
 570 -59 570 -59 498 -7 c 1,71,72
 393 -127 393 -127 245 -127 c 128,-1,73
 97 -127 97 -127 30 -22 c 0,74,75
 -7 37 -7 37 -7 105 c 0,76,77
 -7 133 -7 133 -1 162 c 0,78,79
 20 259 20 259 94 300 c 0,80,81
 133 322 133 322 181 322 c 0,82,83
 284 322 284 322 320 242 c 0,84,85
 335 209 335 209 335 174.5 c 128,-1,86
 335 140 335 140 321 105 c 0,87,88
 287 21 287 21 210 21 c 0,89,90
 198 21 198 21 190 26.5 c 128,-1,91
 182 32 182 32 178 43 c 1,92,93
 205 43 205 43 229 57 c 0,94,95
 269 81 269 81 292 144 c 1,96,97
 298 165 298 165 298 178.5 c 128,-1,98
 298 192 298 192 296 209.5 c 128,-1,99
 294 227 294 227 283 250 c 128,-1,100
 272 273 272 273 245 287 c 128,-1,101
 218 301 218 301 181 301 c 0,102,103
 86 301 86 301 41 217 c 0,104,105
 15 169 15 169 15 126 c 128,-1,106
 15 83 15 83 24 49 c 0,107,108
 50 -46 50 -46 133 -82 c 0,109,110
 172 -99 172 -99 219 -99 c 0,111,112
 354 -99 354 -99 463 23 c 1,113,114
 415 74 415 74 397 146 c 0,115,116
 386 188 386 188 386 221 c 0,117,118
 386 325 386 325 446 386 c 0,119,120
 490 430 490 430 553.5 430 c 128,-1,121
 617 430 617 430 668 399 c 1,122,123
 757 606 757 606 812 686 c 1,124,125
 805 688 805 688 760.5 705 c 128,-1,126
 716 722 716 722 704 726 c 2,127,-1
 656 742 l 2,128,129
 572 770 572 770 508 770 c 0,130,131
 378 770 378 770 316 672 c 1,132,133
 280 617 280 617 280 558 c 0,134,135
 280 541 280 541 284 523 c 0,136,137
 295 458 295 458 342 445 c 0,138,139
 351 442 351 442 361 442 c 1,140,141
 355 420 355 420 328 420 c 0,142,143
 267 420 267 420 242 485 c 0,144,145
 230 516 230 516 230 554 c 128,-1,146
 230 592 230 592 250 639 c 0,147,148
 292 740 292 740 398 777 c 0,149,150
 448 794 448 794 491.5 794 c 128,-1,151
 535 794 535 794 563.5 789.5 c 128,-1,152
 592 785 592 785 632 772.5 c 128,-1,153
 672 760 672 760 690.5 754 c 128,-1,154
 709 748 709 748 762.5 727.5 c 128,-1,155
 816 707 816 707 824 704 c 1,156,157
 910 818 910 818 1012 818 c 0,11,12
797 -1 m 1,158,159
 780 39 780 39 780 96.5 c 128,-1,160
 780 154 780 154 756 229.5 c 128,-1,161
 732 305 732 305 686 353 c 1,162,163
 595 113 595 113 516 13 c 1,164,165
 578 -36 578 -36 668 -36 c 0,166,167
 732 -36 732 -36 797 -1 c 1,158,159
658 377 m 1,169,170
 620 404 620 404 569.5 404 c 128,-1,171
 519 404 519 404 480 366 c 1,172,173
 424 309 424 309 424 217 c 0,174,175
 424 115 424 115 481 46 c 1,176,177
 545 128 545 128 604 255 c 0,178,168
 625 302 625 302 658 377 c 1,169,170
788 218 m 1,179,180
 804 336 804 336 844 453.5 c 128,-1,181
 884 571 884 571 935 647 c 1,182,183
 893 657 893 657 834 678 c 1,184,185
 787 608 787 608 740 493 c 0,186,187
 726 457 726 457 696 378 c 1,188,189
 758 323 758 323 788 218 c 1,179,180
EndSplineSet
EndChar

StartChar: Aacute
Encoding: 193 193 129
Width: 1005
GlyphClass: 2
Flags: W
LayerCount: 2
Fore
SplineSet
1146 987 m 1,0,1
 1116 950 1116 950 1078.5 915 c 128,-1,2
 1041 880 1041 880 1030.5 880 c 128,-1,3
 1020 880 1020 880 1020 891 c 128,-1,4
 1020 902 1020 902 1043.5 938.5 c 128,-1,5
 1067 975 1067 975 1100 1012 c 1,6,7
 1112 1027 1112 1027 1123 1027 c 128,-1,8
 1134 1027 1134 1027 1144 1022.5 c 128,-1,9
 1154 1018 1154 1018 1154 1008.5 c 128,-1,10
 1154 999 1154 999 1146 987 c 1,0,1
1012 818 m 0,11,12
 1020 818 1020 818 1024 813 c 128,-1,13
 1028 808 1028 808 1029 799 c 1,14,15
 925 799 925 799 847 696 c 1,16,17
 899 677 899 677 948 666 c 1,18,19
 1002 736 1002 736 1047 736 c 0,20,21
 1057 736 1057 736 1064 730.5 c 128,-1,22
 1071 725 1071 725 1074 714 c 1,23,24
 1035 714 1035 714 993 659 c 1,25,26
 1000 658 1000 658 1014 658 c 0,27,28
 1113 658 1113 658 1153 717 c 1,29,30
 1170 740 1170 740 1170 756 c 0,31,32
 1170 801 1170 801 1130 801 c 1,33,34
 1139 815 1139 815 1159 815 c 0,35,36
 1198 815 1198 815 1210 776 c 0,37,38
 1213 764 1213 764 1213 753 c 0,39,40
 1213 720 1213 720 1185 688 c 0,41,42
 1136 634 1136 634 1034 634 c 0,43,44
 1004 634 1004 634 980 638 c 1,45,46
 913 531 913 531 872 334 c 0,47,48
 843 197 843 197 843 104 c 0,49,50
 843 64 843 64 848 32 c 1,51,52
 905 76 905 76 957 143 c 128,-1,53
 1009 210 1009 210 1032 255 c 2,54,-1
 1055 300 l 1,55,-1
 1082 300 l 1,56,57
 1074 279 1074 279 1047.5 233.5 c 128,-1,58
 1021 188 1021 188 996.5 153.5 c 128,-1,59
 972 119 972 119 933 77 c 128,-1,60
 894 35 894 35 854 6 c 1,61,62
 867 -32 867 -32 891 -32 c 1,63,64
 881 -52 881 -52 862 -52 c 0,65,66
 830 -52 830 -52 809 -22 c 1,67,68
 737 -59 737 -59 669 -59 c 0,69,70
 570 -59 570 -59 498 -7 c 1,71,72
 393 -127 393 -127 245 -127 c 128,-1,73
 97 -127 97 -127 30 -22 c 0,74,75
 -7 37 -7 37 -7 105 c 0,76,77
 -7 133 -7 133 -1 162 c 0,78,79
 20 259 20 259 94 300 c 0,80,81
 133 322 133 322 181 322 c 0,82,83
 284 322 284 322 320 242 c 0,84,85
 335 209 335 209 335 174.5 c 128,-1,86
 335 140 335 140 321 105 c 0,87,88
 287 21 287 21 210 21 c 0,89,90
 198 21 198 21 190 26.5 c 128,-1,91
 182 32 182 32 178 43 c 1,92,93
 205 43 205 43 229 57 c 0,94,95
 269 81 269 81 292 144 c 1,96,97
 298 165 298 165 298 178.5 c 128,-1,98
 298 192 298 192 296 209.5 c 128,-1,99
 294 227 294 227 283 250 c 128,-1,100
 272 273 272 273 245 287 c 128,-1,101
 218 301 218 301 181 301 c 0,102,103
 86 301 86 301 41 217 c 0,104,105
 15 169 15 169 15 126 c 128,-1,106
 15 83 15 83 24 49 c 0,107,108
 50 -46 50 -46 133 -82 c 0,109,110
 172 -99 172 -99 219 -99 c 0,111,112
 354 -99 354 -99 463 23 c 1,113,114
 415 74 415 74 397 146 c 0,115,116
 386 188 386 188 386 221 c 0,117,118
 386 325 386 325 446 386 c 0,119,120
 490 430 490 430 553.5 430 c 128,-1,121
 617 430 617 430 668 399 c 1,122,123
 757 606 757 606 812 686 c 1,124,125
 805 688 805 688 760.5 705 c 128,-1,126
 716 722 716 722 704 726 c 2,127,-1
 656 742 l 2,128,129
 572 770 572 770 508 770 c 0,130,131
 378 770 378 770 316 672 c 1,132,133
 280 617 280 617 280 558 c 0,134,135
 280 541 280 541 284 523 c 0,136,137
 295 458 295 458 342 445 c 0,138,139
 351 442 351 442 361 442 c 1,140,141
 355 420 355 420 328 420 c 0,142,143
 267 420 267 420 242 485 c 0,144,145
 230 516 230 516 230 554 c 128,-1,146
 230 592 230 592 250 639 c 0,147,148
 292 740 292 740 398 777 c 0,149,150
 448 794 448 794 491.5 794 c 128,-1,151
 535 794 535 794 563.5 789.5 c 128,-1,152
 592 785 592 785 632 772.5 c 128,-1,153
 672 760 672 760 690.5 754 c 128,-1,154
 709 748 709 748 762.5 727.5 c 128,-1,155
 816 707 816 707 824 704 c 1,156,157
 910 818 910 818 1012 818 c 0,11,12
797 -1 m 1,158,159
 780 39 780 39 780 96.5 c 128,-1,160
 780 154 780 154 756 229.5 c 128,-1,161
 732 305 732 305 686 353 c 1,162,163
 595 113 595 113 516 13 c 1,164,165
 578 -36 578 -36 668 -36 c 0,166,167
 732 -36 732 -36 797 -1 c 1,158,159
658 377 m 1,169,170
 620 404 620 404 569.5 404 c 128,-1,171
 519 404 519 404 480 366 c 1,172,173
 424 309 424 309 424 217 c 0,174,175
 424 115 424 115 481 46 c 1,176,177
 545 128 545 128 604 255 c 0,178,168
 625 302 625 302 658 377 c 1,169,170
788 218 m 1,179,180
 804 336 804 336 844 453.5 c 128,-1,181
 884 571 884 571 935 647 c 1,182,183
 893 657 893 657 834 678 c 1,184,185
 787 608 787 608 740 493 c 0,186,187
 726 457 726 457 696 378 c 1,188,189
 758 323 758 323 788 218 c 1,179,180
EndSplineSet
EndChar

StartChar: Acircumflex
Encoding: 194 194 130
Width: 1005
GlyphClass: 2
Flags: W
LayerCount: 2
Fore
SplineSet
1015.5 984 m 128,-1,1
 1022 984 1022 984 1025 977 c 2,2,-1
 1075 878 l 1,3,-1
 1051 878 l 1,4,-1
 1013 942 l 1,5,-1
 904 878 l 1,6,-1
 879 878 l 1,7,8
 960 945 960 945 984.5 964.5 c 128,-1,0
 1009 984 1009 984 1015.5 984 c 128,-1,1
1012 818 m 0,9,10
 1020 818 1020 818 1024 813 c 128,-1,11
 1028 808 1028 808 1029 799 c 1,12,13
 925 799 925 799 847 696 c 1,14,15
 899 677 899 677 948 666 c 1,16,17
 1002 736 1002 736 1047 736 c 0,18,19
 1057 736 1057 736 1064 730.5 c 128,-1,20
 1071 725 1071 725 1074 714 c 1,21,22
 1035 714 1035 714 993 659 c 1,23,24
 1000 658 1000 658 1014 658 c 0,25,26
 1113 658 1113 658 1153 717 c 1,27,28
 1170 740 1170 740 1170 756 c 0,29,30
 1170 801 1170 801 1130 801 c 1,31,32
 1139 815 1139 815 1159 815 c 0,33,34
 1198 815 1198 815 1210 776 c 0,35,36
 1213 764 1213 764 1213 753 c 0,37,38
 1213 720 1213 720 1185 688 c 0,39,40
 1136 634 1136 634 1034 634 c 0,41,42
 1004 634 1004 634 980 638 c 1,43,44
 913 531 913 531 872 334 c 0,45,46
 843 197 843 197 843 104 c 0,47,48
 843 64 843 64 848 32 c 1,49,50
 905 76 905 76 957 143 c 128,-1,51
 1009 210 1009 210 1032 255 c 2,52,-1
 1055 300 l 1,53,-1
 1082 300 l 1,54,55
 1074 279 1074 279 1047.5 233.5 c 128,-1,56
 1021 188 1021 188 996.5 153.5 c 128,-1,57
 972 119 972 119 933 77 c 128,-1,58
 894 35 894 35 854 6 c 1,59,60
 867 -32 867 -32 891 -32 c 1,61,62
 881 -52 881 -52 862 -52 c 0,63,64
 830 -52 830 -52 809 -22 c 1,65,66
 737 -59 737 -59 669 -59 c 0,67,68
 570 -59 570 -59 498 -7 c 1,69,70
 393 -127 393 -127 245 -127 c 128,-1,71
 97 -127 97 -127 30 -22 c 0,72,73
 -7 37 -7 37 -7 105 c 0,74,75
 -7 133 -7 133 -1 162 c 0,76,77
 20 259 20 259 94 300 c 0,78,79
 133 322 133 322 181 322 c 0,80,81
 284 322 284 322 320 242 c 0,82,83
 335 209 335 209 335 174.5 c 128,-1,84
 335 140 335 140 321 105 c 0,85,86
 287 21 287 21 210 21 c 0,87,88
 198 21 198 21 190 26.5 c 128,-1,89
 182 32 182 32 178 43 c 1,90,91
 205 43 205 43 229 57 c 0,92,93
 269 81 269 81 292 144 c 1,94,95
 298 165 298 165 298 178.5 c 128,-1,96
 298 192 298 192 296 209.5 c 128,-1,97
 294 227 294 227 283 250 c 128,-1,98
 272 273 272 273 245 287 c 128,-1,99
 218 301 218 301 181 301 c 0,100,101
 86 301 86 301 41 217 c 0,102,103
 15 169 15 169 15 126 c 128,-1,104
 15 83 15 83 24 49 c 0,105,106
 50 -46 50 -46 133 -82 c 0,107,108
 172 -99 172 -99 219 -99 c 0,109,110
 354 -99 354 -99 463 23 c 1,111,112
 415 74 415 74 397 146 c 0,113,114
 386 188 386 188 386 221 c 0,115,116
 386 325 386 325 446 386 c 0,117,118
 490 430 490 430 553.5 430 c 128,-1,119
 617 430 617 430 668 399 c 1,120,121
 757 606 757 606 812 686 c 1,122,123
 805 688 805 688 760.5 705 c 128,-1,124
 716 722 716 722 704 726 c 2,125,-1
 656 742 l 2,126,127
 572 770 572 770 508 770 c 0,128,129
 378 770 378 770 316 672 c 1,130,131
 280 617 280 617 280 558 c 0,132,133
 280 541 280 541 284 523 c 0,134,135
 295 458 295 458 342 445 c 0,136,137
 351 442 351 442 361 442 c 1,138,139
 355 420 355 420 328 420 c 0,140,141
 267 420 267 420 242 485 c 0,142,143
 230 516 230 516 230 554 c 128,-1,144
 230 592 230 592 250 639 c 0,145,146
 292 740 292 740 398 777 c 0,147,148
 448 794 448 794 491.5 794 c 128,-1,149
 535 794 535 794 563.5 789.5 c 128,-1,150
 592 785 592 785 632 772.5 c 128,-1,151
 672 760 672 760 690.5 754 c 128,-1,152
 709 748 709 748 762.5 727.5 c 128,-1,153
 816 707 816 707 824 704 c 1,154,155
 910 818 910 818 1012 818 c 0,9,10
797 -1 m 1,156,157
 780 39 780 39 780 96.5 c 128,-1,158
 780 154 780 154 756 229.5 c 128,-1,159
 732 305 732 305 686 353 c 1,160,161
 595 113 595 113 516 13 c 1,162,163
 578 -36 578 -36 668 -36 c 0,164,165
 732 -36 732 -36 797 -1 c 1,156,157
658 377 m 1,166,167
 620 404 620 404 569.5 404 c 128,-1,168
 519 404 519 404 480 366 c 1,169,170
 424 309 424 309 424 217 c 0,171,172
 424 115 424 115 481 46 c 1,173,174
 545 128 545 128 604 255 c 0,175,176
 625 302 625 302 658 377 c 1,166,167
788 218 m 1,177,178
 804 336 804 336 844 453.5 c 128,-1,179
 884 571 884 571 935 647 c 1,180,181
 893 657 893 657 834 678 c 1,182,183
 787 608 787 608 740 493 c 0,184,185
 726 457 726 457 696 378 c 1,186,187
 758 323 758 323 788 218 c 1,177,178
EndSplineSet
EndChar

StartChar: Atilde
Encoding: 195 195 131
Width: 1005
GlyphClass: 2
Flags: W
LayerCount: 2
Fore
SplineSet
920 920 m 0,0,1
 895 920 895 920 871 878 c 1,2,-1
 848 878 l 1,3,4
 850 884 850 884 860.5 899.5 c 128,-1,5
 871 915 871 915 881 924 c 0,6,7
 907 949 907 949 942 949 c 0,8,9
 961 949 961 949 989 929.5 c 128,-1,10
 1017 910 1017 910 1033.5 910 c 128,-1,11
 1050 910 1050 910 1062 919 c 128,-1,12
 1074 928 1074 928 1084 946 c 1,13,-1
 1106 946 l 1,14,15
 1103 938 1103 938 1096.5 926 c 128,-1,16
 1090 914 1090 914 1067 894.5 c 128,-1,17
 1044 875 1044 875 1019.5 875 c 128,-1,18
 995 875 995 875 965 897.5 c 128,-1,19
 935 920 935 920 920 920 c 0,0,1
1012 818 m 0,20,21
 1020 818 1020 818 1024 813 c 128,-1,22
 1028 808 1028 808 1029 799 c 1,23,24
 925 799 925 799 847 696 c 1,25,26
 899 677 899 677 948 666 c 1,27,28
 1002 736 1002 736 1047 736 c 0,29,30
 1057 736 1057 736 1064 730.5 c 128,-1,31
 1071 725 1071 725 1074 714 c 1,32,33
 1035 714 1035 714 993 659 c 1,34,35
 1000 658 1000 658 1014 658 c 0,36,37
 1113 658 1113 658 1153 717 c 1,38,39
 1170 740 1170 740 1170 756 c 0,40,41
 1170 801 1170 801 1130 801 c 1,42,43
 1139 815 1139 815 1159 815 c 0,44,45
 1198 815 1198 815 1210 776 c 0,46,47
 1213 764 1213 764 1213 753 c 0,48,49
 1213 720 1213 720 1185 688 c 0,50,51
 1136 634 1136 634 1034 634 c 0,52,53
 1004 634 1004 634 980 638 c 1,54,55
 913 531 913 531 872 334 c 0,56,57
 843 197 843 197 843 104 c 0,58,59
 843 64 843 64 848 32 c 1,60,61
 905 76 905 76 957 143 c 128,-1,62
 1009 210 1009 210 1032 255 c 2,63,-1
 1055 300 l 1,64,-1
 1082 300 l 1,65,66
 1074 279 1074 279 1047.5 233.5 c 128,-1,67
 1021 188 1021 188 996.5 153.5 c 128,-1,68
 972 119 972 119 933 77 c 128,-1,69
 894 35 894 35 854 6 c 1,70,71
 867 -32 867 -32 891 -32 c 1,72,73
 881 -52 881 -52 862 -52 c 0,74,75
 830 -52 830 -52 809 -22 c 1,76,77
 737 -59 737 -59 669 -59 c 0,78,79
 570 -59 570 -59 498 -7 c 1,80,81
 393 -127 393 -127 245 -127 c 128,-1,82
 97 -127 97 -127 30 -22 c 0,83,84
 -7 37 -7 37 -7 105 c 0,85,86
 -7 133 -7 133 -1 162 c 0,87,88
 20 259 20 259 94 300 c 0,89,90
 133 322 133 322 181 322 c 0,91,92
 284 322 284 322 320 242 c 0,93,94
 335 209 335 209 335 174.5 c 128,-1,95
 335 140 335 140 321 105 c 0,96,97
 287 21 287 21 210 21 c 0,98,99
 198 21 198 21 190 26.5 c 128,-1,100
 182 32 182 32 178 43 c 1,101,102
 205 43 205 43 229 57 c 0,103,104
 269 81 269 81 292 144 c 1,105,106
 298 165 298 165 298 178.5 c 128,-1,107
 298 192 298 192 296 209.5 c 128,-1,108
 294 227 294 227 283 250 c 128,-1,109
 272 273 272 273 245 287 c 128,-1,110
 218 301 218 301 181 301 c 0,111,112
 86 301 86 301 41 217 c 0,113,114
 15 169 15 169 15 126 c 128,-1,115
 15 83 15 83 24 49 c 0,116,117
 50 -46 50 -46 133 -82 c 0,118,119
 172 -99 172 -99 219 -99 c 0,120,121
 354 -99 354 -99 463 23 c 1,122,123
 415 74 415 74 397 146 c 0,124,125
 386 188 386 188 386 221 c 0,126,127
 386 325 386 325 446 386 c 0,128,129
 490 430 490 430 553.5 430 c 128,-1,130
 617 430 617 430 668 399 c 1,131,132
 757 606 757 606 812 686 c 1,133,134
 805 688 805 688 760.5 705 c 128,-1,135
 716 722 716 722 704 726 c 2,136,-1
 656 742 l 2,137,138
 572 770 572 770 508 770 c 0,139,140
 378 770 378 770 316 672 c 1,141,142
 280 617 280 617 280 558 c 0,143,144
 280 541 280 541 284 523 c 0,145,146
 295 458 295 458 342 445 c 0,147,148
 351 442 351 442 361 442 c 1,149,150
 355 420 355 420 328 420 c 0,151,152
 267 420 267 420 242 485 c 0,153,154
 230 516 230 516 230 554 c 128,-1,155
 230 592 230 592 250 639 c 0,156,157
 292 740 292 740 398 777 c 0,158,159
 448 794 448 794 491.5 794 c 128,-1,160
 535 794 535 794 563.5 789.5 c 128,-1,161
 592 785 592 785 632 772.5 c 128,-1,162
 672 760 672 760 690.5 754 c 128,-1,163
 709 748 709 748 762.5 727.5 c 128,-1,164
 816 707 816 707 824 704 c 1,165,166
 910 818 910 818 1012 818 c 0,20,21
797 -1 m 1,167,168
 780 39 780 39 780 96.5 c 128,-1,169
 780 154 780 154 756 229.5 c 128,-1,170
 732 305 732 305 686 353 c 1,171,172
 595 113 595 113 516 13 c 1,173,174
 578 -36 578 -36 668 -36 c 0,175,176
 732 -36 732 -36 797 -1 c 1,167,168
658 377 m 1,177,178
 620 404 620 404 569.5 404 c 128,-1,179
 519 404 519 404 480 366 c 1,180,181
 424 309 424 309 424 217 c 0,182,183
 424 115 424 115 481 46 c 1,184,185
 545 128 545 128 604 255 c 0,186,187
 625 302 625 302 658 377 c 1,177,178
788 218 m 1,188,189
 804 336 804 336 844 453.5 c 128,-1,190
 884 571 884 571 935 647 c 1,191,192
 893 657 893 657 834 678 c 1,193,194
 787 608 787 608 740 493 c 0,195,196
 726 457 726 457 696 378 c 1,197,198
 758 323 758 323 788 218 c 1,188,189
EndSplineSet
EndChar

